<svg width="201" height="289" viewBox="0 0 201 289" fill="none" xmlns="http://www.w3.org/2000/svg">
<g clip-path="url(#clip0_39_28)">
<rect width="200" height="288" transform="translate(0.25 0.5)" fill="#251102"/>
<rect width="200" height="288" transform="translate(0.25 0.5)" fill="url(#paint0_linear_39_28)" fill-opacity="0.2"/>
<circle cx="109.75" cy="136.5" r="136" fill="#FF5C00"/>
<circle cx="109.75" cy="263" r="136" fill="#FF5C00"/>
<path d="M15.5167 72.5V57.9545H20.9712C22.0887 57.9545 23.0262 58.1487 23.7837 58.5369C24.546 58.9252 25.1213 59.4697 25.5096 60.1705C25.9026 60.8665 26.0991 61.6785 26.0991 62.6065C26.0991 63.5393 25.9002 64.349 25.5025 65.0355C25.1095 65.7173 24.5295 66.2453 23.7624 66.6193C22.9954 66.9886 22.0531 67.1733 20.9357 67.1733H17.0508V64.9858H20.5806C21.234 64.9858 21.7691 64.8958 22.1857 64.7159C22.6024 64.5312 22.9102 64.2637 23.109 63.9134C23.3126 63.5582 23.4144 63.1226 23.4144 62.6065C23.4144 62.0904 23.3126 61.6501 23.109 61.2855C22.9054 60.9162 22.5953 60.6368 22.1786 60.4474C21.762 60.2533 21.2246 60.1562 20.5664 60.1562H18.1516V72.5H15.5167ZM23.0309 65.9091L26.6317 72.5H23.6914L20.1545 65.9091H23.0309ZM33.0842 72.7131C31.9904 72.7131 31.0458 72.4858 30.2504 72.0312C29.4596 71.572 28.8512 70.9233 28.4251 70.0852C27.9989 69.2424 27.7859 68.2505 27.7859 67.1094C27.7859 65.9872 27.9989 65.0024 28.4251 64.1548C28.8559 63.3026 29.4573 62.6397 30.229 62.1662C31.0008 61.688 31.9076 61.4489 32.9492 61.4489C33.6216 61.4489 34.256 61.5578 34.8526 61.7756C35.454 61.9886 35.9843 62.3201 36.4435 62.7699C36.9076 63.2197 37.2721 63.7926 37.5373 64.4886C37.8024 65.1799 37.935 66.0038 37.935 66.9602V67.7486H28.9933V66.0156H35.4705C35.4658 65.5232 35.3593 65.0852 35.1509 64.7017C34.9426 64.3134 34.6514 64.008 34.2773 63.7855C33.908 63.563 33.4772 63.4517 32.9847 63.4517C32.4592 63.4517 31.9975 63.5795 31.5998 63.8352C31.2021 64.0862 30.8919 64.4176 30.6694 64.8295C30.4516 65.2367 30.3403 65.6842 30.3356 66.1719V67.6847C30.3356 68.3191 30.4516 68.8636 30.6836 69.3182C30.9156 69.768 31.2399 70.1136 31.6566 70.3551C32.0733 70.5919 32.561 70.7102 33.1197 70.7102C33.4937 70.7102 33.8323 70.6581 34.1353 70.554C34.4383 70.4451 34.7011 70.2865 34.9237 70.0781C35.1462 69.8698 35.3143 69.6117 35.4279 69.304L37.8285 69.5739C37.677 70.2083 37.3881 70.7623 36.962 71.2358C36.5406 71.7045 36.0008 72.0691 35.3427 72.3295C34.6845 72.5852 33.9317 72.7131 33.0842 72.7131ZM47.3899 76.5909V70.7812H47.2834C47.1508 71.0464 46.959 71.3281 46.7081 71.6264C46.4571 71.92 46.1257 72.1709 45.7138 72.3793C45.3018 72.5876 44.7834 72.6918 44.1584 72.6918C43.3014 72.6918 42.5343 72.4716 41.8572 72.0312C41.1802 71.5909 40.6451 70.9517 40.2521 70.1136C39.8591 69.2756 39.6626 68.2576 39.6626 67.0597C39.6626 65.8475 39.8615 64.8248 40.2592 63.9915C40.6617 63.1534 41.2038 62.5213 41.8857 62.0952C42.5675 61.6643 43.3274 61.4489 44.1655 61.4489C44.8047 61.4489 45.3303 61.5578 45.7422 61.7756C46.1541 61.9886 46.4808 62.2467 46.7223 62.5497C46.9638 62.848 47.1508 63.1297 47.2834 63.3949H47.4396V61.5909H49.968V76.5909H47.3899ZM44.8757 70.5824C45.4202 70.5824 45.8842 70.4356 46.2678 70.142C46.6513 69.8437 46.9425 69.4295 47.1413 68.8991C47.3402 68.3688 47.4396 67.7509 47.4396 67.0455C47.4396 66.34 47.3402 65.7268 47.1413 65.206C46.9472 64.6851 46.6584 64.2803 46.2749 63.9915C45.8961 63.7027 45.4297 63.5582 44.8757 63.5582C44.3028 63.5582 43.8246 63.7074 43.4411 64.0057C43.0575 64.304 42.7687 64.7159 42.5746 65.2415C42.3804 65.767 42.2834 66.3684 42.2834 67.0455C42.2834 67.7273 42.3804 68.3357 42.5746 68.8707C42.7734 69.401 43.0646 69.8201 43.4482 70.1278C43.8364 70.4309 44.3123 70.5824 44.8757 70.5824ZM59.5632 67.9119V61.5909H62.1342V72.5H59.6413V70.5611H59.5277C59.2815 71.1719 58.8767 71.6714 58.3132 72.0597C57.7545 72.4479 57.0656 72.642 56.2464 72.642C55.5315 72.642 54.8994 72.4834 54.3501 72.1662C53.8056 71.8442 53.3795 71.3778 53.0717 70.767C52.764 70.1515 52.6101 69.4081 52.6101 68.5369V61.5909H55.1811V68.1392C55.1811 68.8305 55.3705 69.3797 55.7493 69.7869C56.1281 70.1941 56.6252 70.3977 57.2408 70.3977C57.6196 70.3977 57.9865 70.3054 58.3416 70.1207C58.6967 69.9361 58.9879 69.6615 59.2152 69.2969C59.4472 68.9276 59.5632 68.4659 59.5632 67.9119ZM64.7781 72.5V61.5909H67.3491V72.5H64.7781ZM66.0707 60.0426C65.6635 60.0426 65.3131 59.9077 65.0195 59.6378C64.726 59.3632 64.5792 59.0341 64.5792 58.6506C64.5792 58.2623 64.726 57.9332 65.0195 57.6634C65.3131 57.3887 65.6635 57.2514 66.0707 57.2514C66.4826 57.2514 66.833 57.3887 67.1218 57.6634C67.4154 57.9332 67.5621 58.2623 67.5621 58.6506C67.5621 59.0341 67.4154 59.3632 67.1218 59.6378C66.833 59.9077 66.4826 60.0426 66.0707 60.0426ZM69.9929 72.5V61.5909H72.4858V63.4091H72.5994C72.7983 62.7794 73.1392 62.294 73.6222 61.9531C74.1098 61.6075 74.6662 61.4347 75.2912 61.4347C75.4332 61.4347 75.5919 61.4418 75.767 61.456C75.947 61.4654 76.0961 61.482 76.2145 61.5057V63.8707C76.1056 63.8329 75.9328 63.7997 75.696 63.7713C75.464 63.7382 75.2391 63.7216 75.0213 63.7216C74.5526 63.7216 74.1312 63.8234 73.7571 64.027C73.3878 64.2259 73.0966 64.5028 72.8835 64.858C72.6705 65.2131 72.5639 65.6226 72.5639 66.0866V72.5H69.9929ZM82.3029 72.7131C81.2092 72.7131 80.2646 72.4858 79.4691 72.0312C78.6784 71.572 78.07 70.9233 77.6438 70.0852C77.2177 69.2424 77.0046 68.2505 77.0046 67.1094C77.0046 65.9872 77.2177 65.0024 77.6438 64.1548C78.0747 63.3026 78.676 62.6397 79.4478 62.1662C80.2196 61.688 81.1263 61.4489 82.168 61.4489C82.8403 61.4489 83.4748 61.5578 84.0714 61.7756C84.6727 61.9886 85.203 62.3201 85.6623 62.7699C86.1263 63.2197 86.4909 63.7926 86.756 64.4886C87.0212 65.1799 87.1538 66.0038 87.1538 66.9602V67.7486H78.212V66.0156H84.6893C84.6845 65.5232 84.578 65.0852 84.3697 64.7017C84.1613 64.3134 83.8701 64.008 83.4961 63.7855C83.1268 63.563 82.6959 63.4517 82.2035 63.4517C81.6779 63.4517 81.2163 63.5795 80.8185 63.8352C80.4208 64.0862 80.1107 64.4176 79.8881 64.8295C79.6703 65.2367 79.5591 65.6842 79.5543 66.1719V67.6847C79.5543 68.3191 79.6703 68.8636 79.9023 69.3182C80.1344 69.768 80.4587 70.1136 80.8754 70.3551C81.292 70.5919 81.7797 70.7102 82.3384 70.7102C82.7125 70.7102 83.051 70.6581 83.354 70.554C83.6571 70.4451 83.9199 70.2865 84.1424 70.0781C84.3649 69.8698 84.533 69.6117 84.6467 69.304L87.0472 69.5739C86.8957 70.2083 86.6069 70.7623 86.1808 71.2358C85.7594 71.7045 85.2196 72.0691 84.5614 72.3295C83.9033 72.5852 83.1504 72.7131 82.3029 72.7131ZM89.3288 72.5V61.5909H91.7862V63.4446H91.9141C92.1413 62.8196 92.5178 62.3319 93.0433 61.9815C93.5689 61.6264 94.1963 61.4489 94.9254 61.4489C95.6641 61.4489 96.2867 61.6288 96.7933 61.9886C97.3047 62.3437 97.6645 62.8291 97.8729 63.4446H97.9865C98.228 62.8385 98.6352 62.3556 99.2081 61.9957C99.7857 61.6312 100.47 61.4489 101.261 61.4489C102.264 61.4489 103.084 61.7661 103.718 62.4006C104.353 63.035 104.67 63.9607 104.67 65.1776V72.5H102.092V65.5753C102.092 64.8982 101.912 64.4034 101.552 64.0909C101.192 63.7737 100.752 63.6151 100.231 63.6151C99.6106 63.6151 99.1252 63.8092 98.7749 64.1974C98.4292 64.581 98.2564 65.0805 98.2564 65.696V72.5H95.7351V65.4688C95.7351 64.9053 95.5646 64.4555 95.2237 64.1193C94.8875 63.7831 94.4472 63.6151 93.9027 63.6151C93.5334 63.6151 93.1972 63.7098 92.8942 63.8991C92.5911 64.0838 92.3497 64.3466 92.1697 64.6875C91.9898 65.0237 91.8999 65.4167 91.8999 65.8665V72.5H89.3288ZM112.108 72.7131C111.014 72.7131 110.069 72.4858 109.274 72.0312C108.483 71.572 107.875 70.9233 107.449 70.0852C107.022 69.2424 106.809 68.2505 106.809 67.1094C106.809 65.9872 107.022 65.0024 107.449 64.1548C107.879 63.3026 108.481 62.6397 109.252 62.1662C110.024 61.688 110.931 61.4489 111.973 61.4489C112.645 61.4489 113.279 61.5578 113.876 61.7756C114.477 61.9886 115.008 62.3201 115.467 62.7699C115.931 63.2197 116.296 63.7926 116.561 64.4886C116.826 65.1799 116.958 66.0038 116.958 66.9602V67.7486H108.017V66.0156H114.494C114.489 65.5232 114.383 65.0852 114.174 64.7017C113.966 64.3134 113.675 64.008 113.301 63.7855C112.931 63.563 112.501 63.4517 112.008 63.4517C111.483 63.4517 111.021 63.5795 110.623 63.8352C110.225 64.0862 109.915 64.4176 109.693 64.8295C109.475 65.2367 109.364 65.6842 109.359 66.1719V67.6847C109.359 68.3191 109.475 68.8636 109.707 69.3182C109.939 69.768 110.263 70.1136 110.68 70.3551C111.097 70.5919 111.584 70.7102 112.143 70.7102C112.517 70.7102 112.856 70.6581 113.159 70.554C113.462 70.4451 113.725 70.2865 113.947 70.0781C114.17 69.8698 114.338 69.6117 114.451 69.304L116.852 69.5739C116.7 70.2083 116.412 70.7623 115.985 71.2358C115.564 71.7045 115.024 72.0691 114.366 72.3295C113.708 72.5852 112.955 72.7131 112.108 72.7131ZM121.705 66.108V72.5H119.134V61.5909H121.591V63.4446H121.719C121.97 62.8338 122.37 62.3485 122.919 61.9886C123.473 61.6288 124.157 61.4489 124.972 61.4489C125.724 61.4489 126.38 61.6098 126.939 61.9318C127.502 62.2538 127.938 62.7202 128.246 63.331C128.558 63.9418 128.712 64.6828 128.707 65.554V72.5H126.136V65.9517C126.136 65.2225 125.947 64.652 125.568 64.2401C125.194 63.8281 124.676 63.6222 124.013 63.6222C123.563 63.6222 123.163 63.7216 122.812 63.9205C122.467 64.1146 122.195 64.3963 121.996 64.7656C121.802 65.1349 121.705 65.5824 121.705 66.108ZM136.768 61.5909V63.5795H130.497V61.5909H136.768ZM132.045 58.9773H134.616V69.2188C134.616 69.5644 134.669 69.8295 134.773 70.0142C134.882 70.1941 135.024 70.3172 135.199 70.3835C135.374 70.4498 135.568 70.483 135.781 70.483C135.942 70.483 136.089 70.4711 136.222 70.4474C136.359 70.4238 136.463 70.4025 136.534 70.3835L136.967 72.3935C136.83 72.4408 136.634 72.4929 136.378 72.5497C136.127 72.6065 135.819 72.6397 135.455 72.6491C134.811 72.6681 134.231 72.571 133.714 72.358C133.198 72.1402 132.789 71.804 132.486 71.3494C132.188 70.8949 132.041 70.3267 132.045 69.6449V58.9773ZM147.385 64.4744L145.041 64.7301C144.975 64.4934 144.859 64.2708 144.693 64.0625C144.532 63.8542 144.314 63.6861 144.039 63.5582C143.765 63.4304 143.429 63.3665 143.031 63.3665C142.496 63.3665 142.046 63.4825 141.681 63.7145C141.322 63.9465 141.144 64.2472 141.149 64.6165C141.144 64.9337 141.26 65.1918 141.497 65.3906C141.738 65.5895 142.136 65.7528 142.69 65.8807L144.551 66.2784C145.583 66.5009 146.35 66.8537 146.852 67.3366C147.359 67.8196 147.614 68.4517 147.619 69.233C147.614 69.9195 147.413 70.5256 147.015 71.0511C146.622 71.572 146.075 71.9792 145.375 72.2727C144.674 72.5663 143.869 72.7131 142.96 72.7131C141.625 72.7131 140.55 72.4337 139.735 71.875C138.921 71.3116 138.436 70.5279 138.279 69.5241L140.787 69.2827C140.9 69.7751 141.142 70.1468 141.511 70.3977C141.88 70.6487 142.361 70.7741 142.953 70.7741C143.564 70.7741 144.054 70.6487 144.423 70.3977C144.797 70.1468 144.984 69.8366 144.984 69.4673C144.984 69.1548 144.863 68.8968 144.622 68.6932C144.385 68.4896 144.016 68.3333 143.514 68.2244L141.653 67.8338C140.607 67.616 139.833 67.2491 139.331 66.733C138.829 66.2121 138.58 65.554 138.585 64.7585C138.58 64.0862 138.762 63.5038 139.132 63.0114C139.506 62.5142 140.024 62.1307 140.687 61.8608C141.355 61.5862 142.124 61.4489 142.995 61.4489C144.274 61.4489 145.28 61.7211 146.014 62.2656C146.752 62.8101 147.209 63.5464 147.385 64.4744Z" fill="white"/>
<path d="M22.377 98.4645C22.0476 98.4645 21.7468 98.3842 21.4745 98.2235C21.2023 98.0602 20.9845 97.8424 20.8211 97.5701C20.6605 97.2979 20.5802 96.997 20.5802 96.6676C20.5802 96.3355 20.6605 96.0346 20.8211 95.7651C20.9845 95.4928 21.2023 95.2764 21.4745 95.1158C21.7468 94.9524 22.0476 94.8707 22.377 94.8707C22.7092 94.8707 23.01 94.9524 23.2796 95.1158C23.5518 95.2764 23.7683 95.4928 23.9289 95.7651C24.0922 96.0346 24.1739 96.3355 24.1739 96.6676C24.1739 96.997 24.0922 97.2979 23.9289 97.5701C23.7683 97.8424 23.5518 98.0602 23.2796 98.2235C23.01 98.3842 22.7092 98.4645 22.377 98.4645ZM35.7515 100H34.1343L37.0787 91.6364H38.9491L41.8976 100H40.2805L38.0466 93.3516H37.9813L35.7515 100ZM35.8046 96.7207H40.2151V97.9377H35.8046V96.7207ZM44.4122 91.6364V100H42.9339V91.6364H44.4122ZM47.4108 91.6364V100H45.9324V91.6364H47.4108ZM51.7835 100V93.7273H53.1965V94.7931H53.27C53.4007 94.4338 53.6171 94.1533 53.9193 93.9519C54.2215 93.7477 54.5823 93.6456 55.0016 93.6456C55.4263 93.6456 55.7843 93.7491 56.0756 93.956C56.3696 94.1602 56.5765 94.4392 56.6963 94.7931H56.7617C56.9005 94.4447 57.1347 94.167 57.4641 93.96C57.7962 93.7504 58.1896 93.6456 58.6443 93.6456C59.2215 93.6456 59.6925 93.828 60.0573 94.1928C60.4221 94.5576 60.6045 95.0899 60.6045 95.7896V100H59.1221V96.0183C59.1221 95.629 59.0187 95.3445 58.8117 95.1648C58.6048 94.9824 58.3516 94.8912 58.0522 94.8912C57.6955 94.8912 57.4164 95.0028 57.215 95.226C57.0162 95.4466 56.9169 95.7338 56.9169 96.0877V100H55.4671V95.957C55.4671 95.633 55.3691 95.3744 55.1731 95.1811C54.9798 94.9878 54.7266 94.8912 54.4135 94.8912C54.2011 94.8912 54.0078 94.9456 53.8336 95.0545C53.6593 95.1607 53.5205 95.3118 53.417 95.5078C53.3136 95.7011 53.2619 95.9271 53.2619 96.1857V100H51.7835ZM64.8813 100.123C64.2524 100.123 63.7093 99.9918 63.2519 99.7305C62.7972 99.4664 62.4474 99.0934 62.2023 98.6115C61.9573 98.1269 61.8348 97.5565 61.8348 96.9004C61.8348 96.2551 61.9573 95.6889 62.2023 95.2015C62.4501 94.7115 62.7958 94.3303 63.2396 94.0581C63.6834 93.7831 64.2048 93.6456 64.8037 93.6456C65.1903 93.6456 65.5551 93.7082 65.8982 93.8335C66.2439 93.956 66.5489 94.1465 66.8129 94.4052C67.0798 94.6638 67.2894 94.9933 67.4419 95.3935C67.5943 95.791 67.6705 96.2647 67.6705 96.8146V97.2679H62.529V96.2715H66.2535C66.2507 95.9883 66.1895 95.7365 66.0697 95.516C65.9499 95.2927 65.7825 95.1171 65.5674 94.9892C65.355 94.8612 65.1073 94.7972 64.8241 94.7972C64.5219 94.7972 64.2565 94.8707 64.0278 95.0178C63.7991 95.1621 63.6208 95.3526 63.4928 95.5895C63.3676 95.8236 63.3036 96.0809 63.3009 96.3613V97.2312C63.3009 97.596 63.3676 97.9091 63.501 98.1705C63.6344 98.4291 63.8209 98.6278 64.0605 98.7667C64.3 98.9028 64.5805 98.9709 64.9017 98.9709C65.1168 98.9709 65.3115 98.9409 65.4857 98.881C65.6599 98.8184 65.811 98.7272 65.939 98.6074C66.067 98.4876 66.1636 98.3393 66.229 98.1623L67.6093 98.3175C67.5222 98.6823 67.3561 99.0008 67.1111 99.2731C66.8688 99.5426 66.5584 99.7522 66.18 99.902C65.8015 100.049 65.3686 100.123 64.8813 100.123ZM68.9212 100V93.7273H70.3342V94.7931H70.4077C70.5384 94.4338 70.7548 94.1533 71.057 93.9519C71.3592 93.7477 71.72 93.6456 72.1392 93.6456C72.564 93.6456 72.922 93.7491 73.2133 93.956C73.5073 94.1602 73.7142 94.4392 73.834 94.7931H73.8994C74.0382 94.4447 74.2724 94.167 74.6018 93.96C74.9339 93.7504 75.3273 93.6456 75.782 93.6456C76.3592 93.6456 76.8302 93.828 77.195 94.1928C77.5598 94.5576 77.7422 95.0899 77.7422 95.7896V100H76.2598V96.0183C76.2598 95.629 76.1564 95.3445 75.9494 95.1648C75.7425 94.9824 75.4893 94.8912 75.1899 94.8912C74.8332 94.8912 74.5541 95.0028 74.3527 95.226C74.1539 95.4466 74.0546 95.7338 74.0546 96.0877V100H72.6048V95.957C72.6048 95.633 72.5068 95.3744 72.3108 95.1811C72.1175 94.9878 71.8643 94.8912 71.5512 94.8912C71.3388 94.8912 71.1455 94.9456 70.9713 95.0545C70.797 95.1607 70.6582 95.3118 70.5547 95.5078C70.4513 95.7011 70.3995 95.9271 70.3995 96.1857V100H68.9212ZM79.3074 100V91.6364H80.7857V94.7646H80.8469C80.9232 94.6121 81.0307 94.4501 81.1696 94.2786C81.3084 94.1043 81.4963 93.956 81.7331 93.8335C81.97 93.7082 82.2722 93.6456 82.6397 93.6456C83.1243 93.6456 83.5613 93.7695 83.9506 94.0172C84.3427 94.2623 84.6531 94.6257 84.8817 95.1076C85.1132 95.5868 85.2289 96.1748 85.2289 96.8718C85.2289 97.5606 85.1159 98.146 84.8899 98.6278C84.6639 99.1097 84.3563 99.4773 83.967 99.7305C83.5777 99.9837 83.1366 100.11 82.6438 100.11C82.2844 100.11 81.9863 100.05 81.7495 99.9306C81.5126 99.8108 81.322 99.6665 81.1777 99.4977C81.0362 99.3262 80.9259 99.1642 80.8469 99.0117H80.7612V100H79.3074ZM80.7571 96.8636C80.7571 97.2693 80.8143 97.6246 80.9286 97.9295C81.0457 98.2344 81.2131 98.4727 81.4309 98.6442C81.6515 98.813 81.9183 98.8974 82.2314 98.8974C82.5581 98.8974 82.8317 98.8103 83.0522 98.636C83.2727 98.459 83.4388 98.2181 83.5504 97.9132C83.6648 97.6055 83.7219 97.2557 83.7219 96.8636C83.7219 96.4743 83.6661 96.1286 83.5545 95.8263C83.4429 95.5241 83.2768 95.2873 83.0563 95.1158C82.8358 94.9442 82.5608 94.8585 82.2314 94.8585C81.9155 94.8585 81.6474 94.9415 81.4268 95.1076C81.2063 95.2737 81.0389 95.5065 80.9245 95.8059C80.8129 96.1054 80.7571 96.458 80.7571 96.8636ZM89.2627 100.123C88.6337 100.123 88.0906 99.9918 87.6332 99.7305C87.1785 99.4664 86.8287 99.0934 86.5837 98.6115C86.3386 98.1269 86.2161 97.5565 86.2161 96.9004C86.2161 96.2551 86.3386 95.6889 86.5837 95.2015C86.8314 94.7115 87.1772 94.3303 87.621 94.0581C88.0647 93.7831 88.5861 93.6456 89.1851 93.6456C89.5717 93.6456 89.9365 93.7082 90.2795 93.8335C90.6253 93.956 90.9302 94.1465 91.1943 94.4052C91.4611 94.6638 91.6707 94.9933 91.8232 95.3935C91.9757 95.791 92.0519 96.2647 92.0519 96.8146V97.2679H86.9104V96.2715H90.6348C90.6321 95.9883 90.5708 95.7365 90.451 95.516C90.3312 95.2927 90.1638 95.1171 89.9487 94.9892C89.7364 94.8612 89.4886 94.7972 89.2055 94.7972C88.9033 94.7972 88.6378 94.8707 88.4091 95.0178C88.1804 95.1621 88.0021 95.3526 87.8742 95.5895C87.7489 95.8236 87.6849 96.0809 87.6822 96.3613V97.2312C87.6822 97.596 87.7489 97.9091 87.8823 98.1705C88.0157 98.4291 88.2022 98.6278 88.4418 98.7667C88.6814 98.9028 88.9618 98.9709 89.2831 98.9709C89.4982 98.9709 89.6928 98.9409 89.8671 98.881C90.0413 98.8184 90.1924 98.7272 90.3204 98.6074C90.4483 98.4876 90.545 98.3393 90.6103 98.1623L91.9906 98.3175C91.9035 98.6823 91.7374 99.0008 91.4924 99.2731C91.2501 99.5426 90.9397 99.7522 90.5613 99.902C90.1829 100.049 89.75 100.123 89.2627 100.123ZM93.3026 100V93.7273H94.736V94.7727H94.8013C94.9157 94.4106 95.1117 94.1316 95.3894 93.9355C95.6698 93.7368 95.9897 93.6374 96.3491 93.6374C96.4308 93.6374 96.522 93.6415 96.6227 93.6497C96.7261 93.6551 96.8119 93.6647 96.88 93.6783V95.0382C96.8174 95.0164 96.718 94.9973 96.5819 94.981C96.4484 94.9619 96.3191 94.9524 96.1939 94.9524C95.9244 94.9524 95.6821 95.0109 95.467 95.128C95.2546 95.2424 95.0872 95.4016 94.9647 95.6058C94.8422 95.81 94.7809 96.0455 94.7809 96.3123V100H93.3026ZM102.82 95.3853L101.472 95.5323C101.434 95.3962 101.367 95.2682 101.272 95.1484C101.18 95.0286 101.054 94.932 100.896 94.8585C100.738 94.785 100.545 94.7482 100.316 94.7482C100.009 94.7482 99.7502 94.8149 99.5406 94.9483C99.3337 95.0817 99.2316 95.2546 99.2343 95.467C99.2316 95.6494 99.2983 95.7978 99.4344 95.9121C99.5732 96.0265 99.8019 96.1204 100.12 96.1939L101.19 96.4226C101.784 96.5505 102.225 96.7534 102.514 97.0311C102.805 97.3088 102.952 97.6722 102.955 98.1214C102.952 98.5162 102.836 98.8647 102.608 99.1669C102.382 99.4664 102.067 99.7005 101.664 99.8693C101.261 100.038 100.798 100.123 100.276 100.123C99.5079 100.123 98.8899 99.9619 98.4216 99.6406C97.9533 99.3166 97.6743 98.8661 97.5844 98.2889L99.026 98.15C99.0914 98.4332 99.2302 98.6469 99.4426 98.7912C99.6549 98.9355 99.9313 99.0076 100.272 99.0076C100.623 99.0076 100.905 98.9355 101.117 98.7912C101.332 98.6469 101.44 98.4686 101.44 98.2562C101.44 98.0765 101.37 97.9281 101.231 97.8111C101.095 97.694 100.883 97.6042 100.594 97.5415L99.5242 97.3169C98.9226 97.1917 98.4774 96.9807 98.1888 96.6839C97.9002 96.3845 97.7573 96.006 97.76 95.5487C97.7573 95.1621 97.8621 94.8272 98.0745 94.544C98.2896 94.2582 98.5877 94.0376 98.9688 93.8825C99.3527 93.7246 99.7951 93.6456 100.296 93.6456C101.031 93.6456 101.61 93.8021 102.032 94.1152C102.456 94.4283 102.719 94.8517 102.82 95.3853ZM107.026 100V93.7273H108.439V94.7931H108.513C108.643 94.4338 108.86 94.1533 109.162 93.9519C109.464 93.7477 109.825 93.6456 110.244 93.6456C110.669 93.6456 111.027 93.7491 111.318 93.956C111.612 94.1602 111.819 94.4392 111.939 94.7931H112.004C112.143 94.4447 112.377 94.167 112.707 93.96C113.039 93.7504 113.432 93.6456 113.887 93.6456C114.464 93.6456 114.935 93.828 115.3 94.1928C115.665 94.5576 115.847 95.0899 115.847 95.7896V100H114.365V96.0183C114.365 95.629 114.261 95.3445 114.054 95.1648C113.848 94.9824 113.594 94.8912 113.295 94.8912C112.938 94.8912 112.659 95.0028 112.458 95.226C112.259 95.4466 112.16 95.7338 112.16 96.0877V100H110.71V95.957C110.71 95.633 110.612 95.3744 110.416 95.1811C110.222 94.9878 109.969 94.8912 109.656 94.8912C109.444 94.8912 109.251 94.9456 109.076 95.0545C108.902 95.1607 108.763 95.3118 108.66 95.5078C108.556 95.7011 108.505 95.9271 108.505 96.1857V100H107.026ZM121.345 97.3619V93.7273H122.823V100H121.39V98.8851H121.325C121.183 99.2363 120.95 99.5236 120.626 99.7468C120.305 99.9701 119.909 100.082 119.438 100.082C119.027 100.082 118.663 99.9905 118.348 99.8081C118.034 99.6229 117.789 99.3548 117.612 99.0036C117.435 98.6496 117.347 98.2222 117.347 97.7212V93.7273H118.825V97.4925C118.825 97.89 118.934 98.2058 119.152 98.44C119.37 98.6741 119.656 98.7912 120.01 98.7912C120.227 98.7912 120.438 98.7381 120.643 98.6319C120.847 98.5257 121.014 98.3678 121.145 98.1582C121.278 97.9458 121.345 97.6804 121.345 97.3619ZM129.301 95.3853L127.954 95.5323C127.916 95.3962 127.849 95.2682 127.754 95.1484C127.661 95.0286 127.536 94.932 127.378 94.8585C127.22 94.785 127.027 94.7482 126.798 94.7482C126.49 94.7482 126.232 94.8149 126.022 94.9483C125.815 95.0817 125.713 95.2546 125.716 95.467C125.713 95.6494 125.78 95.7978 125.916 95.9121C126.055 96.0265 126.283 96.1204 126.602 96.1939L127.672 96.4226C128.265 96.5505 128.706 96.7534 128.995 97.0311C129.286 97.3088 129.433 97.6722 129.436 98.1214C129.433 98.5162 129.318 98.8647 129.089 99.1669C128.863 99.4664 128.549 99.7005 128.146 99.8693C127.743 100.038 127.28 100.123 126.757 100.123C125.989 100.123 125.371 99.9619 124.903 99.6406C124.435 99.3166 124.156 98.8661 124.066 98.2889L125.507 98.15C125.573 98.4332 125.712 98.6469 125.924 98.7912C126.136 98.9355 126.413 99.0076 126.753 99.0076C127.104 99.0076 127.386 98.9355 127.598 98.7912C127.813 98.6469 127.921 98.4686 127.921 98.2562C127.921 98.0765 127.852 97.9281 127.713 97.8111C127.577 97.694 127.364 97.6042 127.076 97.5415L126.006 97.3169C125.404 97.1917 124.959 96.9807 124.67 96.6839C124.382 96.3845 124.239 96.006 124.241 95.5487C124.239 95.1621 124.344 94.8272 124.556 94.544C124.771 94.2582 125.069 94.0376 125.45 93.8825C125.834 93.7246 126.277 93.6456 126.778 93.6456C127.513 93.6456 128.091 93.8021 128.513 94.1152C128.938 94.4283 129.201 94.8517 129.301 95.3853ZM133.787 93.7273V94.8707H130.181V93.7273H133.787ZM131.072 92.2244H132.55V98.1133C132.55 98.312 132.58 98.4645 132.64 98.5707C132.702 98.6741 132.784 98.7449 132.885 98.783C132.986 98.8211 133.097 98.8402 133.22 98.8402C133.312 98.8402 133.397 98.8334 133.473 98.8198C133.552 98.8062 133.612 98.7939 133.653 98.783L133.902 99.9387C133.823 99.966 133.71 99.9959 133.563 100.029C133.418 100.061 133.242 100.08 133.032 100.086C132.662 100.097 132.328 100.041 132.031 99.9183C131.735 99.7931 131.499 99.5998 131.325 99.3384C131.153 99.0771 131.069 98.7504 131.072 98.3583V92.2244ZM137.942 100V91.6364H139.42V94.7646H139.481C139.557 94.6121 139.665 94.4501 139.804 94.2786C139.943 94.1043 140.131 93.956 140.367 93.8335C140.604 93.7082 140.906 93.6456 141.274 93.6456C141.759 93.6456 142.196 93.7695 142.585 94.0172C142.977 94.2623 143.287 94.6257 143.516 95.1076C143.747 95.5868 143.863 96.1748 143.863 96.8718C143.863 97.5606 143.75 98.146 143.524 98.6278C143.298 99.1097 142.991 99.4773 142.601 99.7305C142.212 99.9837 141.771 100.11 141.278 100.11C140.919 100.11 140.621 100.05 140.384 99.9306C140.147 99.8108 139.956 99.6665 139.812 99.4977C139.67 99.3262 139.56 99.1642 139.481 99.0117H139.395V100H137.942ZM139.391 96.8636C139.391 97.2693 139.449 97.6246 139.563 97.9295C139.68 98.2344 139.847 98.4727 140.065 98.6442C140.286 98.813 140.553 98.8974 140.866 98.8974C141.192 98.8974 141.466 98.8103 141.686 98.636C141.907 98.459 142.073 98.2181 142.185 97.9132C142.299 97.6055 142.356 97.2557 142.356 96.8636C142.356 96.4743 142.3 96.1286 142.189 95.8263C142.077 95.5241 141.911 95.2873 141.691 95.1158C141.47 94.9442 141.195 94.8585 140.866 94.8585C140.55 94.8585 140.282 94.9415 140.061 95.1076C139.841 95.2737 139.673 95.5065 139.559 95.8059C139.447 96.1054 139.391 96.458 139.391 96.8636ZM147.897 100.123C147.268 100.123 146.725 99.9918 146.267 99.7305C145.813 99.4664 145.463 99.0934 145.218 98.6115C144.973 98.1269 144.85 97.5565 144.85 96.9004C144.85 96.2551 144.973 95.6889 145.218 95.2015C145.466 94.7115 145.811 94.3303 146.255 94.0581C146.699 93.7831 147.22 93.6456 147.819 93.6456C148.206 93.6456 148.571 93.7082 148.914 93.8335C149.26 93.956 149.564 94.1465 149.829 94.4052C150.095 94.6638 150.305 94.9933 150.457 95.3935C150.61 95.791 150.686 96.2647 150.686 96.8146V97.2679H145.545V96.2715H149.269C149.266 95.9883 149.205 95.7365 149.085 95.516C148.966 95.2927 148.798 95.1171 148.583 94.9892C148.371 94.8612 148.123 94.7972 147.84 94.7972C147.538 94.7972 147.272 94.8707 147.043 95.0178C146.815 95.1621 146.636 95.3526 146.508 95.5895C146.383 95.8236 146.319 96.0809 146.316 96.3613V97.2312C146.316 97.596 146.383 97.9091 146.517 98.1705C146.65 98.4291 146.836 98.6278 147.076 98.7667C147.316 98.9028 147.596 98.9709 147.917 98.9709C148.132 98.9709 148.327 98.9409 148.501 98.881C148.676 98.8184 148.827 98.7272 148.955 98.6074C149.083 98.4876 149.179 98.3393 149.245 98.1623L150.625 98.3175C150.538 98.6823 150.372 99.0008 150.127 99.2731C149.884 99.5426 149.574 99.7522 149.196 99.902C148.817 100.049 148.384 100.123 147.897 100.123ZM157.517 102.483C156.986 102.483 156.53 102.411 156.149 102.267C155.768 102.125 155.462 101.934 155.23 101.695C154.999 101.455 154.838 101.19 154.749 100.898L156.08 100.576C156.14 100.698 156.227 100.819 156.341 100.939C156.456 101.062 156.609 101.163 156.803 101.241C156.999 101.323 157.245 101.364 157.542 101.364C157.961 101.364 158.308 101.262 158.583 101.058C158.858 100.856 158.996 100.524 158.996 100.061V98.8729H158.922C158.846 99.0253 158.734 99.1819 158.587 99.3425C158.443 99.5031 158.251 99.6379 158.011 99.7468C157.775 99.8557 157.477 99.9102 157.117 99.9102C156.635 99.9102 156.198 99.7972 155.806 99.5712C155.417 99.3425 155.107 99.0022 154.875 98.5502C154.646 98.0956 154.532 97.5266 154.532 96.8432C154.532 96.1544 154.646 95.5732 154.875 95.0994C155.107 94.623 155.418 94.2623 155.81 94.0172C156.202 93.7695 156.639 93.6456 157.121 93.6456C157.489 93.6456 157.791 93.7082 158.028 93.8335C158.267 93.956 158.458 94.1043 158.6 94.2786C158.741 94.4501 158.849 94.6121 158.922 94.7646H159.004V93.7273H160.462V100.102C160.462 100.638 160.334 101.082 160.078 101.433C159.822 101.785 159.472 102.047 159.028 102.222C158.585 102.396 158.081 102.483 157.517 102.483ZM157.53 98.7504C157.843 98.7504 158.11 98.6741 158.33 98.5217C158.551 98.3692 158.718 98.15 158.832 97.8642C158.947 97.5783 159.004 97.2353 159.004 96.835C159.004 96.4403 158.947 96.0945 158.832 95.7978C158.721 95.501 158.555 95.271 158.334 95.1076C158.116 94.9415 157.848 94.8585 157.53 94.8585C157.2 94.8585 156.925 94.9442 156.705 95.1158C156.484 95.2873 156.318 95.5228 156.206 95.8223C156.095 96.119 156.039 96.4566 156.039 96.835C156.039 97.2189 156.095 97.5552 156.206 97.8438C156.321 98.1296 156.488 98.3529 156.709 98.5135C156.932 98.6714 157.206 98.7504 157.53 98.7504ZM161.977 100V93.7273H163.455V100H161.977ZM162.72 92.837C162.486 92.837 162.285 92.7594 162.116 92.6042C161.947 92.4463 161.863 92.2571 161.863 92.0366C161.863 91.8133 161.947 91.6241 162.116 91.4689C162.285 91.311 162.486 91.2321 162.72 91.2321C162.957 91.2321 163.158 91.311 163.325 91.4689C163.493 91.6241 163.578 91.8133 163.578 92.0366C163.578 92.2571 163.493 92.4463 163.325 92.6042C163.158 92.7594 162.957 92.837 162.72 92.837ZM164.975 100V93.7273H166.409V94.7727H166.474C166.589 94.4106 166.785 94.1316 167.062 93.9355C167.343 93.7368 167.663 93.6374 168.022 93.6374C168.104 93.6374 168.195 93.6415 168.296 93.6497C168.399 93.6551 168.485 93.6647 168.553 93.6783V95.0382C168.49 95.0164 168.391 94.9973 168.255 94.981C168.121 94.9619 167.992 94.9524 167.867 94.9524C167.597 94.9524 167.355 95.0109 167.14 95.128C166.927 95.2424 166.76 95.4016 166.638 95.6058C166.515 95.81 166.454 96.0455 166.454 96.3123V100H164.975ZM171.013 91.6364V100H169.535V91.6364H171.013ZM177.491 95.3853L176.144 95.5323C176.105 95.3962 176.039 95.2682 175.943 95.1484C175.851 95.0286 175.726 94.932 175.568 94.8585C175.41 94.785 175.217 94.7482 174.988 94.7482C174.68 94.7482 174.422 94.8149 174.212 94.9483C174.005 95.0817 173.903 95.2546 173.906 95.467C173.903 95.6494 173.97 95.7978 174.106 95.9121C174.245 96.0265 174.473 96.1204 174.792 96.1939L175.862 96.4226C176.455 96.5505 176.896 96.7534 177.185 97.0311C177.476 97.3088 177.623 97.6722 177.626 98.1214C177.623 98.5162 177.508 98.8647 177.279 99.1669C177.053 99.4664 176.738 99.7005 176.336 99.8693C175.933 100.038 175.47 100.123 174.947 100.123C174.179 100.123 173.561 99.9619 173.093 99.6406C172.625 99.3166 172.346 98.8661 172.256 98.2889L173.697 98.15C173.763 98.4332 173.902 98.6469 174.114 98.7912C174.326 98.9355 174.603 99.0076 174.943 99.0076C175.294 99.0076 175.576 98.9355 175.788 98.7912C176.003 98.6469 176.111 98.4686 176.111 98.2562C176.111 98.0765 176.042 97.9281 175.903 97.8111C175.767 97.694 175.554 97.6042 175.266 97.5415L174.196 97.3169C173.594 97.1917 173.149 96.9807 172.86 96.6839C172.572 96.3845 172.429 96.006 172.431 95.5487C172.429 95.1621 172.534 94.8272 172.746 94.544C172.961 94.2582 173.259 94.0376 173.64 93.8825C174.024 93.7246 174.467 93.6456 174.967 93.6456C175.703 93.6456 176.281 93.8021 176.703 94.1152C177.128 94.4283 177.391 94.8517 177.491 95.3853ZM22.377 123.464C22.0476 123.464 21.7468 123.384 21.4745 123.224C21.2023 123.06 20.9845 122.842 20.8211 122.57C20.6605 122.298 20.5802 121.997 20.5802 121.668C20.5802 121.335 20.6605 121.035 20.8211 120.765C20.9845 120.493 21.2023 120.276 21.4745 120.116C21.7468 119.952 22.0476 119.871 22.377 119.871C22.7092 119.871 23.01 119.952 23.2796 120.116C23.5518 120.276 23.7683 120.493 23.9289 120.765C24.0922 121.035 24.1739 121.335 24.1739 121.668C24.1739 121.997 24.0922 122.298 23.9289 122.57C23.7683 122.842 23.5518 123.06 23.2796 123.224C23.01 123.384 22.7092 123.464 22.377 123.464ZM38.9838 119.458H37.4565C37.4129 119.208 37.3326 118.986 37.2156 118.793C37.0985 118.597 36.9528 118.431 36.7786 118.294C36.6043 118.158 36.4056 118.056 36.1824 117.988C35.9618 117.917 35.7236 117.882 35.4677 117.882C35.013 117.882 34.6101 117.996 34.2589 118.225C33.9077 118.451 33.6327 118.783 33.4339 119.221C33.2352 119.657 33.1358 120.189 33.1358 120.818C33.1358 121.458 33.2352 121.997 33.4339 122.435C33.6354 122.871 33.9104 123.2 34.2589 123.424C34.6101 123.644 35.0117 123.754 35.4636 123.754C35.7141 123.754 35.9482 123.722 36.166 123.656C36.3865 123.588 36.5839 123.489 36.7582 123.358C36.9351 123.228 37.0835 123.067 37.2033 122.876C37.3258 122.686 37.4102 122.468 37.4565 122.223L38.9838 122.231C38.9267 122.629 38.8028 123.002 38.6122 123.35C38.4244 123.699 38.178 124.006 37.873 124.273C37.5681 124.537 37.2115 124.744 36.8031 124.894C36.3947 125.041 35.9414 125.114 35.4432 125.114C34.7081 125.114 34.052 124.944 33.4748 124.604C32.8976 124.264 32.4429 123.772 32.1108 123.13C31.7786 122.487 31.6126 121.717 31.6126 120.818C31.6126 119.917 31.78 119.147 32.1149 118.507C32.4498 117.864 32.9058 117.373 33.483 117.032C34.0601 116.692 34.7135 116.522 35.4432 116.522C35.9087 116.522 36.3416 116.587 36.7418 116.718C37.142 116.849 37.4987 117.041 37.8118 117.294C38.1249 117.544 38.3822 117.852 38.5836 118.217C38.7878 118.579 38.9212 118.993 38.9838 119.458ZM40.306 125V118.727H41.7394V119.773H41.8047C41.9191 119.411 42.1151 119.132 42.3928 118.936C42.6732 118.737 42.9931 118.637 43.3525 118.637C43.4342 118.637 43.5254 118.642 43.6261 118.65C43.7296 118.655 43.8153 118.665 43.8834 118.678V120.038C43.8208 120.016 43.7214 119.997 43.5853 119.981C43.4519 119.962 43.3225 119.952 43.1973 119.952C42.9278 119.952 42.6855 120.011 42.4704 120.128C42.258 120.242 42.0906 120.402 41.9681 120.606C41.8456 120.81 41.7843 121.046 41.7843 121.312V125H40.306ZM47.3842 125.123C46.7553 125.123 46.2122 124.992 45.7548 124.73C45.3001 124.466 44.9503 124.093 44.7053 123.612C44.4602 123.127 44.3377 122.557 44.3377 121.9C44.3377 121.255 44.4602 120.689 44.7053 120.202C44.953 119.711 45.2988 119.33 45.7425 119.058C46.1863 118.783 46.7077 118.646 47.3066 118.646C47.6932 118.646 48.0581 118.708 48.4011 118.833C48.7469 118.956 49.0518 119.147 49.3159 119.405C49.5827 119.664 49.7923 119.993 49.9448 120.393C50.0972 120.791 50.1735 121.265 50.1735 121.815V122.268H45.032V121.271H48.7564C48.7537 120.988 48.6924 120.737 48.5726 120.516C48.4528 120.293 48.2854 120.117 48.0703 119.989C47.858 119.861 47.6102 119.797 47.3271 119.797C47.0249 119.797 46.7594 119.871 46.5307 120.018C46.302 120.162 46.1237 120.353 45.9957 120.589C45.8705 120.824 45.8065 121.081 45.8038 121.361V122.231C45.8038 122.596 45.8705 122.909 46.0039 123.17C46.1373 123.429 46.3238 123.628 46.5634 123.767C46.803 123.903 47.0834 123.971 47.4047 123.971C47.6197 123.971 47.8144 123.941 47.9886 123.881C48.1629 123.818 48.314 123.727 48.4419 123.607C48.5699 123.488 48.6665 123.339 48.7319 123.162L50.1122 123.317C50.0251 123.682 49.859 124.001 49.614 124.273C49.3717 124.543 49.0613 124.752 48.6829 124.902C48.3045 125.049 47.8716 125.123 47.3842 125.123ZM53.2292 125.127C52.8317 125.127 52.4737 125.056 52.1551 124.914C51.8393 124.77 51.5889 124.558 51.4037 124.277C51.2213 123.997 51.1301 123.651 51.1301 123.24C51.1301 122.886 51.1954 122.593 51.3261 122.362C51.4568 122.13 51.6351 121.945 51.8611 121.806C52.0871 121.668 52.3416 121.563 52.6248 121.492C52.9106 121.419 53.206 121.365 53.511 121.333C53.8785 121.295 54.1766 121.261 54.4053 121.231C54.634 121.198 54.8001 121.149 54.9035 121.084C55.0097 121.016 55.0628 120.911 55.0628 120.769V120.745C55.0628 120.437 54.9716 120.199 54.7892 120.03C54.6068 119.861 54.3441 119.777 54.001 119.777C53.6389 119.777 53.3517 119.856 53.1393 120.014C52.9297 120.172 52.7881 120.358 52.7146 120.573L51.3343 120.377C51.4432 119.996 51.6229 119.677 51.8734 119.422C52.1238 119.163 52.4301 118.97 52.7922 118.842C53.1543 118.711 53.5545 118.646 53.9929 118.646C54.2951 118.646 54.5959 118.681 54.8954 118.752C55.1949 118.823 55.4685 118.94 55.7162 119.103C55.964 119.264 56.1627 119.483 56.3125 119.76C56.4649 120.038 56.5411 120.385 56.5411 120.802V125H55.12V124.138H55.071C54.9811 124.313 54.8545 124.476 54.6912 124.628C54.5306 124.778 54.3277 124.899 54.0827 124.992C53.8404 125.082 53.5559 125.127 53.2292 125.127ZM53.6131 124.04C53.9098 124.04 54.1671 123.982 54.3849 123.865C54.6027 123.745 54.7701 123.587 54.8872 123.391C55.007 123.195 55.0669 122.981 55.0669 122.75V122.011C55.0206 122.049 54.9417 122.084 54.83 122.117C54.7211 122.15 54.5986 122.178 54.4625 122.203C54.3264 122.227 54.1916 122.249 54.0582 122.268C53.9248 122.287 53.8091 122.303 53.7111 122.317C53.4905 122.347 53.2932 122.396 53.1189 122.464C52.9447 122.532 52.8072 122.627 52.7065 122.75C52.6057 122.87 52.5554 123.025 52.5554 123.215C52.5554 123.488 52.6547 123.693 52.8535 123.832C53.0522 123.971 53.3054 124.04 53.6131 124.04ZM61.1599 118.727V119.871H57.5539V118.727H61.1599ZM58.4442 117.224H59.9225V123.113C59.9225 123.312 59.9525 123.464 60.0124 123.571C60.075 123.674 60.1567 123.745 60.2574 123.783C60.3581 123.821 60.4698 123.84 60.5923 123.84C60.6849 123.84 60.7693 123.833 60.8455 123.82C60.9244 123.806 60.9843 123.794 61.0252 123.783L61.2743 124.939C61.1953 124.966 61.0823 124.996 60.9353 125.029C60.791 125.061 60.6141 125.08 60.4044 125.086C60.0342 125.097 59.7007 125.041 59.4039 124.918C59.1071 124.793 58.8716 124.6 58.6974 124.338C58.5259 124.077 58.4415 123.75 58.4442 123.358V117.224ZM62.3963 125V118.727H63.8746V125H62.3963ZM63.1396 117.837C62.9054 117.837 62.704 117.759 62.5352 117.604C62.3664 117.446 62.282 117.257 62.282 117.037C62.282 116.813 62.3664 116.624 62.5352 116.469C62.704 116.311 62.9054 116.232 63.1396 116.232C63.3764 116.232 63.5779 116.311 63.744 116.469C63.9128 116.624 63.9972 116.813 63.9972 117.037C63.9972 117.257 63.9128 117.446 63.744 117.604C63.5779 117.759 63.3764 117.837 63.1396 117.837ZM70.9978 118.727L68.764 125H67.1305L64.8966 118.727H66.473L67.9146 123.387H67.9799L69.4256 118.727H70.9978ZM74.5844 125.123C73.9555 125.123 73.4124 124.992 72.955 124.73C72.5003 124.466 72.1505 124.093 71.9055 123.612C71.6604 123.127 71.5379 122.557 71.5379 121.9C71.5379 121.255 71.6604 120.689 71.9055 120.202C72.1532 119.711 72.499 119.33 72.9427 119.058C73.3865 118.783 73.9079 118.646 74.5068 118.646C74.8934 118.646 75.2583 118.708 75.6013 118.833C75.9471 118.956 76.252 119.147 76.5161 119.405C76.7829 119.664 76.9925 119.993 77.145 120.393C77.2974 120.791 77.3737 121.265 77.3737 121.815V122.268H72.2322V121.271H75.9566C75.9539 120.988 75.8926 120.737 75.7728 120.516C75.653 120.293 75.4856 120.117 75.2705 119.989C75.0582 119.861 74.8104 119.797 74.5273 119.797C74.2251 119.797 73.9596 119.871 73.7309 120.018C73.5022 120.162 73.3239 120.353 73.1959 120.589C73.0707 120.824 73.0067 121.081 73.004 121.361V122.231C73.004 122.596 73.0707 122.909 73.2041 123.17C73.3375 123.429 73.524 123.628 73.7636 123.767C74.0032 123.903 74.2836 123.971 74.6048 123.971C74.8199 123.971 75.0146 123.941 75.1888 123.881C75.3631 123.818 75.5142 123.727 75.6421 123.607C75.7701 123.488 75.8667 123.339 75.9321 123.162L77.3124 123.317C77.2253 123.682 77.0592 124.001 76.8142 124.273C76.5719 124.543 76.2615 124.752 75.8831 124.902C75.5046 125.049 75.0718 125.123 74.5844 125.123ZM84.6092 118.727V119.871H81.0032V118.727H84.6092ZM81.8934 117.224H83.3718V123.113C83.3718 123.312 83.4017 123.464 83.4616 123.571C83.5242 123.674 83.6059 123.745 83.7066 123.783C83.8074 123.821 83.919 123.84 84.0415 123.84C84.1341 123.84 84.2185 123.833 84.2947 123.82C84.3737 123.806 84.4335 123.794 84.4744 123.783L84.7235 124.939C84.6445 124.966 84.5316 124.996 84.3845 125.029C84.2402 125.061 84.0633 125.08 83.8536 125.086C83.4834 125.097 83.1499 125.041 82.8531 124.918C82.5564 124.793 82.3209 124.6 82.1466 124.338C81.9751 124.077 81.8907 123.75 81.8934 123.358V117.224ZM87.4586 121.325V125H85.9803V116.636H87.426V119.793H87.4995C87.6465 119.439 87.8738 119.16 88.1815 118.956C88.4918 118.749 88.8866 118.646 89.3658 118.646C89.8014 118.646 90.1812 118.737 90.5051 118.919C90.8291 119.102 91.0796 119.368 91.2566 119.72C91.4363 120.071 91.5261 120.5 91.5261 121.006V125H90.0478V121.235C90.0478 120.813 89.9389 120.485 89.7211 120.251C89.506 120.014 89.2038 119.895 88.8145 119.895C88.5531 119.895 88.319 119.952 88.112 120.067C87.9078 120.178 87.7472 120.34 87.6301 120.553C87.5158 120.765 87.4586 121.022 87.4586 121.325ZM93.033 125V118.727H94.5114V125H93.033ZM93.7763 117.837C93.5421 117.837 93.3407 117.759 93.1719 117.604C93.0031 117.446 92.9187 117.257 92.9187 117.037C92.9187 116.813 93.0031 116.624 93.1719 116.469C93.3407 116.311 93.5421 116.232 93.7763 116.232C94.0131 116.232 94.2146 116.311 94.3807 116.469C94.5495 116.624 94.6339 116.813 94.6339 117.037C94.6339 117.257 94.5495 117.446 94.3807 117.604C94.2146 117.759 94.0131 117.837 93.7763 117.837ZM97.5099 121.325V125H96.0316V118.727H97.4446V119.793H97.5181C97.6624 119.442 97.8924 119.163 98.2082 118.956C98.5268 118.749 98.9202 118.646 99.3885 118.646C99.8213 118.646 100.198 118.738 100.52 118.923C100.844 119.108 101.094 119.377 101.271 119.728C101.451 120.079 101.539 120.505 101.537 121.006V125H100.058V121.235C100.058 120.815 99.9493 120.487 99.7315 120.251C99.5164 120.014 99.2183 119.895 98.8371 119.895C98.5785 119.895 98.3484 119.952 98.147 120.067C97.9482 120.178 97.7917 120.34 97.6773 120.553C97.5657 120.765 97.5099 121.022 97.5099 121.325ZM104.387 123.032L104.383 121.247H104.62L106.874 118.727H108.602L105.829 121.815H105.522L104.387 123.032ZM103.039 125V116.636H104.518V125H103.039ZM106.976 125L104.934 122.145L105.931 121.104L108.744 125H106.976ZM109.587 125V118.727H111.065V125H109.587ZM110.33 117.837C110.096 117.837 109.894 117.759 109.726 117.604C109.557 117.446 109.472 117.257 109.472 117.037C109.472 116.813 109.557 116.624 109.726 116.469C109.894 116.311 110.096 116.232 110.33 116.232C110.567 116.232 110.768 116.311 110.934 116.469C111.103 116.624 111.188 116.813 111.188 117.037C111.188 117.257 111.103 117.446 110.934 117.604C110.768 117.759 110.567 117.837 110.33 117.837ZM114.064 121.325V125H112.585V118.727H113.998V119.793H114.072C114.216 119.442 114.446 119.163 114.762 118.956C115.08 118.749 115.474 118.646 115.942 118.646C116.375 118.646 116.752 118.738 117.073 118.923C117.397 119.108 117.648 119.377 117.825 119.728C118.004 120.079 118.093 120.505 118.09 121.006V125H116.612V121.235C116.612 120.815 116.503 120.487 116.285 120.251C116.07 120.014 115.772 119.895 115.391 119.895C115.132 119.895 114.902 119.952 114.701 120.067C114.502 120.178 114.345 120.34 114.231 120.553C114.119 120.765 114.064 121.022 114.064 121.325ZM122.321 127.483C121.79 127.483 121.334 127.411 120.953 127.267C120.572 127.125 120.266 126.934 120.034 126.695C119.803 126.455 119.642 126.19 119.552 125.898L120.884 125.576C120.943 125.698 121.031 125.819 121.145 125.939C121.259 126.062 121.413 126.163 121.606 126.241C121.802 126.323 122.049 126.364 122.346 126.364C122.765 126.364 123.112 126.262 123.387 126.058C123.662 125.856 123.799 125.524 123.799 125.061V123.873H123.726C123.65 124.025 123.538 124.182 123.391 124.343C123.247 124.503 123.055 124.638 122.815 124.747C122.578 124.856 122.28 124.91 121.921 124.91C121.439 124.91 121.002 124.797 120.61 124.571C120.221 124.343 119.91 124.002 119.679 123.55C119.45 123.096 119.336 122.527 119.336 121.843C119.336 121.154 119.45 120.573 119.679 120.099C119.91 119.623 120.222 119.262 120.614 119.017C121.006 118.769 121.443 118.646 121.925 118.646C122.292 118.646 122.595 118.708 122.832 118.833C123.071 118.956 123.262 119.104 123.403 119.279C123.545 119.45 123.652 119.612 123.726 119.765H123.808V118.727H125.265V125.102C125.265 125.638 125.138 126.082 124.882 126.433C124.626 126.785 124.276 127.047 123.832 127.222C123.388 127.396 122.885 127.483 122.321 127.483ZM122.333 123.75C122.646 123.75 122.913 123.674 123.134 123.522C123.354 123.369 123.522 123.15 123.636 122.864C123.75 122.578 123.808 122.235 123.808 121.835C123.808 121.44 123.75 121.095 123.636 120.798C123.524 120.501 123.358 120.271 123.138 120.108C122.92 119.942 122.652 119.858 122.333 119.858C122.004 119.858 121.729 119.944 121.508 120.116C121.288 120.287 121.122 120.523 121.01 120.822C120.899 121.119 120.843 121.457 120.843 121.835C120.843 122.219 120.899 122.555 121.01 122.844C121.125 123.13 121.292 123.353 121.512 123.513C121.736 123.671 122.009 123.75 122.333 123.75ZM22.377 149.464C22.0476 149.464 21.7468 149.384 21.4745 149.224C21.2023 149.06 20.9845 148.842 20.8211 148.57C20.6605 148.298 20.5802 147.997 20.5802 147.668C20.5802 147.335 20.6605 147.035 20.8211 146.765C20.9845 146.493 21.2023 146.276 21.4745 146.116C21.7468 145.952 22.0476 145.871 22.377 145.871C22.7092 145.871 23.01 145.952 23.2796 146.116C23.5518 146.276 23.7683 146.493 23.9289 146.765C24.0922 147.035 24.1739 147.335 24.1739 147.668C24.1739 147.997 24.0922 148.298 23.9289 148.57C23.7683 148.842 23.5518 149.06 23.2796 149.224C23.01 149.384 22.7092 149.464 22.377 149.464ZM31.8249 151V142.636H34.9613C35.6038 142.636 36.1429 142.756 36.5785 142.996C37.0168 143.235 37.3476 143.565 37.5708 143.984C37.7968 144.401 37.9098 144.874 37.9098 145.405C37.9098 145.942 37.7968 146.418 37.5708 146.835C37.3449 147.251 37.0114 147.579 36.5703 147.819C36.1293 148.056 35.5861 148.174 34.9409 148.174H32.8622V146.928H34.7367C35.1124 146.928 35.42 146.863 35.6596 146.732C35.8992 146.602 36.0762 146.422 36.1905 146.193C36.3076 145.965 36.3661 145.702 36.3661 145.405C36.3661 145.108 36.3076 144.847 36.1905 144.621C36.0762 144.395 35.8978 144.22 35.6555 144.094C35.416 143.966 35.1069 143.902 34.7285 143.902H33.34V151H31.8249ZM39.1605 151V144.727H40.5939V145.773H40.6592C40.7736 145.411 40.9696 145.132 41.2473 144.936C41.5277 144.737 41.8476 144.637 42.207 144.637C42.2887 144.637 42.3799 144.642 42.4806 144.65C42.5841 144.655 42.6698 144.665 42.7379 144.678V146.038C42.6753 146.016 42.5759 145.997 42.4398 145.981C42.3064 145.962 42.177 145.952 42.0518 145.952C41.7823 145.952 41.54 146.011 41.3249 146.128C41.1125 146.242 40.9451 146.402 40.8226 146.606C40.7001 146.81 40.6388 147.046 40.6388 147.312V151H39.1605ZM45.4128 151.127C45.0153 151.127 44.6573 151.056 44.3387 150.914C44.0229 150.77 43.7724 150.558 43.5873 150.277C43.4049 149.997 43.3137 149.651 43.3137 149.24C43.3137 148.886 43.379 148.593 43.5097 148.362C43.6404 148.13 43.8187 147.945 44.0447 147.806C44.2707 147.668 44.5252 147.563 44.8084 147.492C45.0942 147.419 45.3896 147.365 45.6946 147.333C46.0621 147.295 46.3602 147.261 46.5889 147.231C46.8176 147.198 46.9837 147.149 47.0871 147.084C47.1933 147.016 47.2464 146.911 47.2464 146.769V146.745C47.2464 146.437 47.1552 146.199 46.9728 146.03C46.7904 145.861 46.5277 145.777 46.1846 145.777C45.8225 145.777 45.5353 145.856 45.3229 146.014C45.1133 146.172 44.9717 146.358 44.8982 146.573L43.5179 146.377C43.6268 145.996 43.8065 145.677 44.057 145.422C44.3074 145.163 44.6137 144.97 44.9758 144.842C45.3379 144.711 45.7381 144.646 46.1764 144.646C46.4786 144.646 46.7795 144.681 47.079 144.752C47.3784 144.823 47.6521 144.94 47.8998 145.103C48.1476 145.264 48.3463 145.483 48.496 145.76C48.6485 146.038 48.7247 146.385 48.7247 146.802V151H47.3036V150.138H47.2546C47.1647 150.313 47.0381 150.476 46.8748 150.628C46.7141 150.778 46.5113 150.899 46.2663 150.992C46.024 151.082 45.7395 151.127 45.4128 151.127ZM45.7967 150.04C46.0934 150.04 46.3507 149.982 46.5685 149.865C46.7863 149.745 46.9537 149.587 47.0708 149.391C47.1906 149.195 47.2505 148.981 47.2505 148.75V148.011C47.2042 148.049 47.1253 148.084 47.0136 148.117C46.9047 148.15 46.7822 148.178 46.6461 148.203C46.51 148.227 46.3752 148.249 46.2418 148.268C46.1084 148.287 45.9927 148.303 45.8947 148.317C45.6741 148.347 45.4768 148.396 45.3025 148.464C45.1283 148.532 44.9908 148.627 44.89 148.75C44.7893 148.87 44.7389 149.025 44.7389 149.215C44.7389 149.488 44.8383 149.693 45.0371 149.832C45.2358 149.971 45.489 150.04 45.7967 150.04ZM52.9474 151.123C52.3212 151.123 51.7835 150.985 51.3343 150.71C50.8878 150.435 50.5434 150.055 50.3011 149.571C50.0615 149.083 49.9417 148.522 49.9417 147.888C49.9417 147.251 50.0642 146.689 50.3093 146.202C50.5543 145.711 50.9001 145.33 51.3465 145.058C51.7958 144.783 52.3267 144.646 52.9392 144.646C53.4483 144.646 53.8989 144.74 54.291 144.927C54.6857 145.113 55.0002 145.375 55.2343 145.716C55.4685 146.053 55.6019 146.448 55.6345 146.9H54.2215C54.1644 146.598 54.0282 146.346 53.8132 146.144C53.6008 145.94 53.3163 145.838 52.9597 145.838C52.6574 145.838 52.392 145.92 52.1633 146.083C51.9346 146.244 51.7563 146.475 51.6283 146.777C51.5031 147.08 51.4405 147.442 51.4405 147.864C51.4405 148.291 51.5031 148.659 51.6283 148.966C51.7536 149.271 51.9292 149.507 52.1551 149.673C52.3838 149.836 52.652 149.918 52.9597 149.918C53.1775 149.918 53.3721 149.877 53.5436 149.795C53.7179 149.711 53.8635 149.59 53.9806 149.432C54.0977 149.274 54.178 149.082 54.2215 148.856H55.6345C55.5992 149.3 55.4685 149.693 55.2425 150.036C55.0165 150.377 54.7089 150.643 54.3196 150.837C53.9302 151.027 53.4728 151.123 52.9474 151.123ZM59.9807 144.727V145.871H56.3747V144.727H59.9807ZM57.265 143.224H58.7433V149.113C58.7433 149.312 58.7733 149.464 58.8332 149.571C58.8958 149.674 58.9775 149.745 59.0782 149.783C59.1789 149.821 59.2906 149.84 59.4131 149.84C59.5057 149.84 59.5901 149.833 59.6663 149.82C59.7452 149.806 59.8051 149.794 59.846 149.783L60.0951 150.939C60.0161 150.966 59.9031 150.996 59.7561 151.029C59.6118 151.061 59.4349 151.08 59.2252 151.086C58.855 151.097 58.5215 151.041 58.2247 150.918C57.9279 150.793 57.6924 150.6 57.5182 150.338C57.3467 150.077 57.2623 149.75 57.265 149.358V143.224ZM61.2171 151V144.727H62.6954V151H61.2171ZM61.9604 143.837C61.7262 143.837 61.5248 143.759 61.356 143.604C61.1872 143.446 61.1028 143.257 61.1028 143.037C61.1028 142.813 61.1872 142.624 61.356 142.469C61.5248 142.311 61.7262 142.232 61.9604 142.232C62.1972 142.232 62.3987 142.311 62.5648 142.469C62.7336 142.624 62.818 142.813 62.818 143.037C62.818 143.257 62.7336 143.446 62.5648 143.604C62.3987 143.759 62.1972 143.837 61.9604 143.837ZM66.9518 151.123C66.3256 151.123 65.7879 150.985 65.3387 150.71C64.8922 150.435 64.5478 150.055 64.3055 149.571C64.0659 149.083 63.9461 148.522 63.9461 147.888C63.9461 147.251 64.0686 146.689 64.3137 146.202C64.5587 145.711 64.9044 145.33 65.3509 145.058C65.8002 144.783 66.3311 144.646 66.9436 144.646C67.4527 144.646 67.9033 144.74 68.2954 144.927C68.6901 145.113 69.0046 145.375 69.2387 145.716C69.4729 146.053 69.6063 146.448 69.6389 146.9H68.2259C68.1688 146.598 68.0326 146.346 67.8176 146.144C67.6052 145.94 67.3207 145.838 66.964 145.838C66.6618 145.838 66.3964 145.92 66.1677 146.083C65.939 146.244 65.7607 146.475 65.6327 146.777C65.5075 147.08 65.4449 147.442 65.4449 147.864C65.4449 148.291 65.5075 148.659 65.6327 148.966C65.758 149.271 65.9336 149.507 66.1595 149.673C66.3882 149.836 66.6564 149.918 66.964 149.918C67.1818 149.918 67.3765 149.877 67.548 149.795C67.7223 149.711 67.8679 149.59 67.985 149.432C68.1021 149.274 68.1824 149.082 68.2259 148.856H69.6389C69.6035 149.3 69.4729 149.693 69.2469 150.036C69.0209 150.377 68.7133 150.643 68.324 150.837C67.9346 151.027 67.4772 151.123 66.9518 151.123ZM72.6579 151.127C72.2604 151.127 71.9024 151.056 71.5839 150.914C71.268 150.77 71.0176 150.558 70.8324 150.277C70.65 149.997 70.5588 149.651 70.5588 149.24C70.5588 148.886 70.6242 148.593 70.7548 148.362C70.8855 148.13 71.0638 147.945 71.2898 147.806C71.5158 147.668 71.7703 147.563 72.0535 147.492C72.3394 147.419 72.6348 147.365 72.9397 147.333C73.3072 147.295 73.6053 147.261 73.834 147.231C74.0627 147.198 74.2288 147.149 74.3323 147.084C74.4384 147.016 74.4915 146.911 74.4915 146.769V146.745C74.4915 146.437 74.4003 146.199 74.2179 146.03C74.0355 145.861 73.7728 145.777 73.4297 145.777C73.0676 145.777 72.7804 145.856 72.568 146.014C72.3584 146.172 72.2168 146.358 72.1433 146.573L70.763 146.377C70.8719 145.996 71.0516 145.677 71.3021 145.422C71.5525 145.163 71.8588 144.97 72.2209 144.842C72.583 144.711 72.9832 144.646 73.4216 144.646C73.7238 144.646 74.0246 144.681 74.3241 144.752C74.6236 144.823 74.8972 144.94 75.1449 145.103C75.3927 145.264 75.5914 145.483 75.7412 145.76C75.8936 146.038 75.9699 146.385 75.9699 146.802V151H74.5487V150.138H74.4997C74.4098 150.313 74.2832 150.476 74.1199 150.628C73.9593 150.778 73.7564 150.899 73.5114 150.992C73.2691 151.082 72.9846 151.127 72.6579 151.127ZM73.0418 150.04C73.3385 150.04 73.5958 149.982 73.8136 149.865C74.0314 149.745 74.1988 149.587 74.3159 149.391C74.4357 149.195 74.4956 148.981 74.4956 148.75V148.011C74.4493 148.049 74.3704 148.084 74.2587 148.117C74.1498 148.15 74.0273 148.178 73.8912 148.203C73.7551 148.227 73.6203 148.249 73.4869 148.268C73.3535 148.287 73.2378 148.303 73.1398 148.317C72.9193 148.347 72.7219 148.396 72.5476 148.464C72.3734 148.532 72.2359 148.627 72.1352 148.75C72.0344 148.87 71.9841 149.025 71.9841 149.215C71.9841 149.488 72.0834 149.693 72.2822 149.832C72.4809 149.971 72.7341 150.04 73.0418 150.04ZM78.9347 142.636V151H77.4564V142.636H78.9347ZM80.4549 151V144.727H81.9332V151H80.4549ZM81.1982 143.837C80.964 143.837 80.7625 143.759 80.5938 143.604C80.425 143.446 80.3406 143.257 80.3406 143.037C80.3406 142.813 80.425 142.624 80.5938 142.469C80.7625 142.311 80.964 142.232 81.1982 142.232C81.435 142.232 81.6365 142.311 81.8026 142.469C81.9714 142.624 82.0558 142.813 82.0558 143.037C82.0558 143.257 81.9714 143.446 81.8026 143.604C81.6365 143.759 81.435 143.837 81.1982 143.837ZM86.5857 144.727V145.871H82.9797V144.727H86.5857ZM83.87 143.224H85.3483V149.113C85.3483 149.312 85.3783 149.464 85.4382 149.571C85.5008 149.674 85.5825 149.745 85.6832 149.783C85.7839 149.821 85.8956 149.84 86.0181 149.84C86.1106 149.84 86.195 149.833 86.2713 149.82C86.3502 149.806 86.4101 149.794 86.451 149.783L86.7001 150.939C86.6211 150.966 86.5081 150.996 86.3611 151.029C86.2168 151.061 86.0398 151.08 85.8302 151.086C85.4599 151.097 85.1264 151.041 84.8297 150.918C84.5329 150.793 84.2974 150.6 84.1232 150.338C83.9517 150.077 83.8673 149.75 83.87 149.358V143.224ZM88.7409 153.352C88.5395 153.352 88.353 153.336 88.1815 153.303C88.0127 153.273 87.8779 153.238 87.7772 153.197L88.1202 152.045C88.3353 152.108 88.5272 152.138 88.696 152.135C88.8648 152.133 89.0132 152.079 89.1412 151.976C89.2718 151.875 89.3821 151.706 89.4719 151.47L89.5985 151.131L87.3239 144.727H88.892L90.3377 149.464H90.4031L91.8528 144.727H93.4251L90.9135 151.76C90.7965 152.092 90.6413 152.376 90.448 152.613C90.2547 152.853 90.0178 153.035 89.7374 153.16C89.4597 153.288 89.1275 153.352 88.7409 153.352ZM99.1056 151.127C98.7082 151.127 98.3501 151.056 98.0316 150.914C97.7158 150.77 97.4653 150.558 97.2802 150.277C97.0978 149.997 97.0066 149.651 97.0066 149.24C97.0066 148.886 97.0719 148.593 97.2026 148.362C97.3333 148.13 97.5116 147.945 97.7376 147.806C97.9635 147.668 98.2181 147.563 98.5012 147.492C98.7871 147.419 99.0825 147.365 99.3874 147.333C99.755 147.295 100.053 147.261 100.282 147.231C100.51 147.198 100.677 147.149 100.78 147.084C100.886 147.016 100.939 146.911 100.939 146.769V146.745C100.939 146.437 100.848 146.199 100.666 146.03C100.483 145.861 100.221 145.777 99.8775 145.777C99.5154 145.777 99.2282 145.856 99.0158 146.014C98.8062 146.172 98.6646 146.358 98.5911 146.573L97.2108 146.377C97.3197 145.996 97.4993 145.677 97.7498 145.422C98.0003 145.163 98.3066 144.97 98.6687 144.842C99.0308 144.711 99.431 144.646 99.8693 144.646C100.172 144.646 100.472 144.681 100.772 144.752C101.071 144.823 101.345 144.94 101.593 145.103C101.84 145.264 102.039 145.483 102.189 145.76C102.341 146.038 102.418 146.385 102.418 146.802V151H100.996V150.138H100.947C100.858 150.313 100.731 150.476 100.568 150.628C100.407 150.778 100.204 150.899 99.9592 150.992C99.7169 151.082 99.4324 151.127 99.1056 151.127ZM99.4895 150.04C99.7863 150.04 100.044 149.982 100.261 149.865C100.479 149.745 100.647 149.587 100.764 149.391C100.883 149.195 100.943 148.981 100.943 148.75V148.011C100.897 148.049 100.818 148.084 100.706 148.117C100.598 148.15 100.475 148.178 100.339 148.203C100.203 148.227 100.068 148.249 99.9347 148.268C99.8013 148.287 99.6855 148.303 99.5875 148.317C99.367 148.347 99.1696 148.396 98.9954 148.464C98.8211 148.532 98.6837 148.627 98.5829 148.75C98.4822 148.87 98.4318 149.025 98.4318 149.215C98.4318 149.488 98.5312 149.693 98.7299 149.832C98.9287 149.971 99.1819 150.04 99.4895 150.04ZM105.382 147.325V151H103.904V144.727H105.317V145.793H105.391C105.535 145.442 105.765 145.163 106.081 144.956C106.399 144.749 106.793 144.646 107.261 144.646C107.694 144.646 108.071 144.738 108.392 144.923C108.716 145.108 108.967 145.377 109.144 145.728C109.323 146.079 109.412 146.505 109.409 147.006V151H107.931V147.235C107.931 146.815 107.822 146.487 107.604 146.251C107.389 146.014 107.091 145.895 106.71 145.895C106.451 145.895 106.221 145.952 106.02 146.067C105.821 146.178 105.664 146.34 105.55 146.553C105.438 146.765 105.382 147.022 105.382 147.325ZM113.24 151.11C112.747 151.11 112.306 150.984 111.917 150.73C111.527 150.477 111.22 150.11 110.994 149.628C110.768 149.146 110.655 148.561 110.655 147.872C110.655 147.175 110.769 146.587 110.998 146.108C111.229 145.626 111.541 145.262 111.933 145.017C112.325 144.769 112.762 144.646 113.244 144.646C113.611 144.646 113.914 144.708 114.15 144.833C114.387 144.956 114.575 145.104 114.714 145.279C114.853 145.45 114.96 145.612 115.037 145.765H115.098V142.636H116.58V151H115.126V150.012H115.037C114.96 150.164 114.85 150.326 114.706 150.498C114.561 150.666 114.371 150.811 114.134 150.931C113.897 151.05 113.599 151.11 113.24 151.11ZM113.652 149.897C113.965 149.897 114.232 149.813 114.453 149.644C114.673 149.473 114.841 149.234 114.955 148.93C115.069 148.625 115.126 148.269 115.126 147.864C115.126 147.458 115.069 147.105 114.955 146.806C114.843 146.506 114.677 146.274 114.457 146.108C114.239 145.942 113.971 145.858 113.652 145.858C113.323 145.858 113.048 145.944 112.827 146.116C112.607 146.287 112.441 146.524 112.329 146.826C112.217 147.129 112.162 147.474 112.162 147.864C112.162 148.256 112.217 148.606 112.329 148.913C112.443 149.218 112.611 149.459 112.831 149.636C113.055 149.81 113.328 149.897 113.652 149.897ZM121.073 151V142.636H126.431V143.906H122.589V146.177H126.064V147.447H122.589V151H121.073ZM130.063 151.123C129.434 151.123 128.891 150.992 128.434 150.73C127.979 150.466 127.629 150.093 127.384 149.612C127.139 149.127 127.016 148.557 127.016 147.9C127.016 147.255 127.139 146.689 127.384 146.202C127.632 145.711 127.977 145.33 128.421 145.058C128.865 144.783 129.386 144.646 129.985 144.646C130.372 144.646 130.737 144.708 131.08 144.833C131.426 144.956 131.73 145.147 131.995 145.405C132.261 145.664 132.471 145.993 132.623 146.393C132.776 146.791 132.852 147.265 132.852 147.815V148.268H127.711V147.271H131.435C131.432 146.988 131.371 146.737 131.251 146.516C131.132 146.293 130.964 146.117 130.749 145.989C130.537 145.861 130.289 145.797 130.006 145.797C129.704 145.797 129.438 145.871 129.209 146.018C128.981 146.162 128.802 146.353 128.674 146.589C128.549 146.824 128.485 147.081 128.483 147.361V148.231C128.483 148.596 128.549 148.909 128.683 149.17C128.816 149.429 129.003 149.628 129.242 149.767C129.482 149.903 129.762 149.971 130.083 149.971C130.298 149.971 130.493 149.941 130.667 149.881C130.842 149.818 130.993 149.727 131.121 149.607C131.249 149.488 131.345 149.339 131.411 149.162L132.791 149.317C132.704 149.682 132.538 150.001 132.293 150.273C132.05 150.543 131.74 150.752 131.362 150.902C130.983 151.049 130.55 151.123 130.063 151.123ZM135.908 151.127C135.51 151.127 135.152 151.056 134.834 150.914C134.518 150.77 134.268 150.558 134.082 150.277C133.9 149.997 133.809 149.651 133.809 149.24C133.809 148.886 133.874 148.593 134.005 148.362C134.136 148.13 134.314 147.945 134.54 147.806C134.766 147.668 135.02 147.563 135.303 147.492C135.589 147.419 135.885 147.365 136.19 147.333C136.557 147.295 136.855 147.261 137.084 147.231C137.313 147.198 137.479 147.149 137.582 147.084C137.688 147.016 137.742 146.911 137.742 146.769V146.745C137.742 146.437 137.65 146.199 137.468 146.03C137.285 145.861 137.023 145.777 136.68 145.777C136.318 145.777 136.03 145.856 135.818 146.014C135.608 146.172 135.467 146.358 135.393 146.573L134.013 146.377C134.122 145.996 134.302 145.677 134.552 145.422C134.803 145.163 135.109 144.97 135.471 144.842C135.833 144.711 136.233 144.646 136.672 144.646C136.974 144.646 137.275 144.681 137.574 144.752C137.874 144.823 138.147 144.94 138.395 145.103C138.643 145.264 138.841 145.483 138.991 145.76C139.144 146.038 139.22 146.385 139.22 146.802V151H137.799V150.138H137.75C137.66 150.313 137.533 150.476 137.37 150.628C137.209 150.778 137.006 150.899 136.761 150.992C136.519 151.082 136.235 151.127 135.908 151.127ZM136.292 150.04C136.589 150.04 136.846 149.982 137.064 149.865C137.281 149.745 137.449 149.587 137.566 149.391C137.686 149.195 137.746 148.981 137.746 148.75V148.011C137.699 148.049 137.62 148.084 137.509 148.117C137.4 148.15 137.277 148.178 137.141 148.203C137.005 148.227 136.87 148.249 136.737 148.268C136.604 148.287 136.488 148.303 136.39 148.317C136.169 148.347 135.972 148.396 135.798 148.464C135.623 148.532 135.486 148.627 135.385 148.75C135.284 148.87 135.234 149.025 135.234 149.215C135.234 149.488 135.333 149.693 135.532 149.832C135.731 149.971 135.984 150.04 136.292 150.04ZM145.664 146.385L144.316 146.532C144.278 146.396 144.212 146.268 144.116 146.148C144.024 146.029 143.899 145.932 143.741 145.858C143.583 145.785 143.389 145.748 143.161 145.748C142.853 145.748 142.594 145.815 142.385 145.948C142.178 146.082 142.076 146.255 142.079 146.467C142.076 146.649 142.143 146.798 142.279 146.912C142.417 147.026 142.646 147.12 142.965 147.194L144.035 147.423C144.628 147.551 145.069 147.753 145.358 148.031C145.649 148.309 145.796 148.672 145.799 149.121C145.796 149.516 145.68 149.865 145.452 150.167C145.226 150.466 144.911 150.701 144.508 150.869C144.105 151.038 143.643 151.123 143.12 151.123C142.352 151.123 141.734 150.962 141.266 150.641C140.798 150.317 140.519 149.866 140.429 149.289L141.87 149.15C141.936 149.433 142.074 149.647 142.287 149.791C142.499 149.935 142.775 150.008 143.116 150.008C143.467 150.008 143.749 149.935 143.961 149.791C144.176 149.647 144.284 149.469 144.284 149.256C144.284 149.077 144.214 148.928 144.076 148.811C143.939 148.694 143.727 148.604 143.438 148.542L142.368 148.317C141.767 148.192 141.322 147.981 141.033 147.684C140.744 147.384 140.602 147.006 140.604 146.549C140.602 146.162 140.706 145.827 140.919 145.544C141.134 145.258 141.432 145.038 141.813 144.882C142.197 144.725 142.639 144.646 143.14 144.646C143.875 144.646 144.454 144.802 144.876 145.115C145.301 145.428 145.563 145.852 145.664 146.385ZM147.018 151V144.727H148.496V151H147.018ZM147.761 143.837C147.527 143.837 147.326 143.759 147.157 143.604C146.988 143.446 146.904 143.257 146.904 143.037C146.904 142.813 146.988 142.624 147.157 142.469C147.326 142.311 147.527 142.232 147.761 142.232C147.998 142.232 148.199 142.311 148.366 142.469C148.534 142.624 148.619 142.813 148.619 143.037C148.619 143.257 148.534 143.446 148.366 143.604C148.199 143.759 147.998 143.837 147.761 143.837ZM150.082 151V142.636H151.56V145.765H151.621C151.698 145.612 151.805 145.45 151.944 145.279C152.083 145.104 152.271 144.956 152.508 144.833C152.744 144.708 153.047 144.646 153.414 144.646C153.899 144.646 154.336 144.769 154.725 145.017C155.117 145.262 155.427 145.626 155.656 146.108C155.888 146.587 156.003 147.175 156.003 147.872C156.003 148.561 155.89 149.146 155.664 149.628C155.438 150.11 155.131 150.477 154.741 150.73C154.352 150.984 153.911 151.11 153.418 151.11C153.059 151.11 152.761 151.05 152.524 150.931C152.287 150.811 152.096 150.666 151.952 150.498C151.811 150.326 151.7 150.164 151.621 150.012H151.536V151H150.082ZM151.532 147.864C151.532 148.269 151.589 148.625 151.703 148.93C151.82 149.234 151.988 149.473 152.205 149.644C152.426 149.813 152.693 149.897 153.006 149.897C153.332 149.897 153.606 149.81 153.827 149.636C154.047 149.459 154.213 149.218 154.325 148.913C154.439 148.606 154.496 148.256 154.496 147.864C154.496 147.474 154.441 147.129 154.329 146.826C154.217 146.524 154.051 146.287 153.831 146.116C153.61 145.944 153.335 145.858 153.006 145.858C152.69 145.858 152.422 145.942 152.201 146.108C151.981 146.274 151.813 146.506 151.699 146.806C151.587 147.105 151.532 147.458 151.532 147.864ZM157.26 151V144.727H158.738V151H157.26ZM158.003 143.837C157.769 143.837 157.568 143.759 157.399 143.604C157.23 143.446 157.146 143.257 157.146 143.037C157.146 142.813 157.23 142.624 157.399 142.469C157.568 142.311 157.769 142.232 158.003 142.232C158.24 142.232 158.442 142.311 158.608 142.469C158.777 142.624 158.861 142.813 158.861 143.037C158.861 143.257 158.777 143.446 158.608 143.604C158.442 143.759 158.24 143.837 158.003 143.837ZM161.737 142.636V151H160.259V142.636H161.737ZM163.257 151V144.727H164.735V151H163.257ZM164 143.837C163.766 143.837 163.565 143.759 163.396 143.604C163.227 143.446 163.143 143.257 163.143 143.037C163.143 142.813 163.227 142.624 163.396 142.469C163.565 142.311 163.766 142.232 164 142.232C164.237 142.232 164.439 142.311 164.605 142.469C164.774 142.624 164.858 142.813 164.858 143.037C164.858 143.257 164.774 143.446 164.605 143.604C164.439 143.759 164.237 143.837 164 143.837ZM169.388 144.727V145.871H165.782V144.727H169.388ZM166.672 143.224H168.151V149.113C168.151 149.312 168.181 149.464 168.24 149.571C168.303 149.674 168.385 149.745 168.485 149.783C168.586 149.821 168.698 149.84 168.82 149.84C168.913 149.84 168.997 149.833 169.074 149.82C169.152 149.806 169.212 149.794 169.253 149.783L169.502 150.939C169.423 150.966 169.31 150.996 169.163 151.029C169.019 151.061 168.842 151.08 168.632 151.086C168.262 151.097 167.929 151.041 167.632 150.918C167.335 150.793 167.1 150.6 166.925 150.338C166.754 150.077 166.67 149.75 166.672 149.358V143.224ZM171.543 153.352C171.342 153.352 171.155 153.336 170.984 153.303C170.815 153.273 170.68 153.238 170.579 153.197L170.922 152.045C171.138 152.108 171.329 152.138 171.498 152.135C171.667 152.133 171.815 152.079 171.943 151.976C172.074 151.875 172.184 151.706 172.274 151.47L172.401 151.131L170.126 144.727H171.694L173.14 149.464H173.205L174.655 144.727H176.227L173.716 151.76C173.599 152.092 173.444 152.376 173.25 152.613C173.057 152.853 172.82 153.035 172.54 153.16C172.262 153.288 171.93 153.352 171.543 153.352ZM22.377 174.464C22.0476 174.464 21.7468 174.384 21.4745 174.224C21.2023 174.06 20.9845 173.842 20.8211 173.57C20.6605 173.298 20.5802 172.997 20.5802 172.668C20.5802 172.335 20.6605 172.035 20.8211 171.765C20.9845 171.493 21.2023 171.276 21.4745 171.116C21.7468 170.952 22.0476 170.871 22.377 170.871C22.7092 170.871 23.01 170.952 23.2796 171.116C23.5518 171.276 23.7683 171.493 23.9289 171.765C24.0922 172.035 24.1739 172.335 24.1739 172.668C24.1739 172.997 24.0922 173.298 23.9289 173.57C23.7683 173.842 23.5518 174.06 23.2796 174.224C23.01 174.384 22.7092 174.464 22.377 174.464ZM31.8249 167.636H33.679L36.1619 173.697H36.2599L38.7429 167.636H40.5969V176H39.1431V170.254H39.0655L36.7541 175.975H35.6678L33.3564 170.242H33.2788V176H31.8249V167.636ZM46.1795 173.362V169.727H47.6578V176H46.2244V174.885H46.1591C46.0175 175.236 45.7847 175.524 45.4608 175.747C45.1395 175.97 44.7434 176.082 44.2724 176.082C43.8613 176.082 43.4978 175.99 43.182 175.808C42.8689 175.623 42.6239 175.355 42.4469 175.004C42.2699 174.65 42.1815 174.222 42.1815 173.721V169.727H43.6598V173.493C43.6598 173.89 43.7687 174.206 43.9865 174.44C44.2043 174.674 44.4902 174.791 44.8441 174.791C45.0619 174.791 45.2729 174.738 45.4771 174.632C45.6813 174.526 45.8487 174.368 45.9794 174.158C46.1128 173.946 46.1795 173.68 46.1795 173.362ZM54.1358 171.385L52.7881 171.532C52.75 171.396 52.6833 171.268 52.588 171.148C52.4955 171.029 52.3702 170.932 52.2123 170.858C52.0544 170.785 51.8611 170.748 51.6324 170.748C51.3248 170.748 51.0661 170.815 50.8565 170.948C50.6496 171.082 50.5475 171.255 50.5502 171.467C50.5475 171.649 50.6142 171.798 50.7503 171.912C50.8892 172.026 51.1179 172.12 51.4364 172.194L52.5063 172.423C53.0999 172.551 53.5409 172.753 53.8295 173.031C54.1208 173.309 54.2678 173.672 54.2706 174.121C54.2678 174.516 54.1521 174.865 53.9234 175.167C53.6975 175.466 53.383 175.701 52.9801 175.869C52.5771 176.038 52.1143 176.123 51.5916 176.123C50.8238 176.123 50.2058 175.962 49.7375 175.641C49.2693 175.317 48.9902 174.866 48.9003 174.289L50.3419 174.15C50.4073 174.433 50.5461 174.647 50.7585 174.791C50.9708 174.935 51.2472 175.008 51.5875 175.008C51.9387 175.008 52.2205 174.935 52.4328 174.791C52.6479 174.647 52.7555 174.469 52.7555 174.256C52.7555 174.077 52.686 173.928 52.5472 173.811C52.4111 173.694 52.1987 173.604 51.9101 173.542L50.8402 173.317C50.2385 173.192 49.7933 172.981 49.5047 172.684C49.2162 172.384 49.0732 172.006 49.0759 171.549C49.0732 171.162 49.178 170.827 49.3904 170.544C49.6055 170.258 49.9036 170.038 50.2848 169.882C50.6686 169.725 51.111 169.646 51.612 169.646C52.3471 169.646 52.9256 169.802 53.3476 170.115C53.7723 170.428 54.0351 170.852 54.1358 171.385ZM58.6218 169.727V170.871H55.0158V169.727H58.6218ZM55.9061 168.224H57.3845V174.113C57.3845 174.312 57.4144 174.464 57.4743 174.571C57.5369 174.674 57.6186 174.745 57.7193 174.783C57.8201 174.821 57.9317 174.84 58.0542 174.84C58.1468 174.84 58.2312 174.833 58.3074 174.82C58.3863 174.806 58.4462 174.794 58.4871 174.783L58.7362 175.939C58.6572 175.966 58.5443 175.996 58.3972 176.029C58.2529 176.061 58.076 176.08 57.8663 176.086C57.4961 176.097 57.1626 176.041 56.8658 175.918C56.5691 175.793 56.3336 175.6 56.1593 175.338C55.9878 175.077 55.9034 174.75 55.9061 174.358V168.224ZM67.6685 171.385L66.3208 171.532C66.2827 171.396 66.216 171.268 66.1207 171.148C66.0282 171.029 65.9029 170.932 65.745 170.858C65.5871 170.785 65.3938 170.748 65.1651 170.748C64.8575 170.748 64.5988 170.815 64.3892 170.948C64.1823 171.082 64.0802 171.255 64.0829 171.467C64.0802 171.649 64.1469 171.798 64.283 171.912C64.4219 172.026 64.6506 172.12 64.9691 172.194L66.0391 172.423C66.6326 172.551 67.0736 172.753 67.3622 173.031C67.6535 173.309 67.8005 173.672 67.8033 174.121C67.8005 174.516 67.6848 174.865 67.4561 175.167C67.2302 175.466 66.9157 175.701 66.5128 175.869C66.1098 176.038 65.647 176.123 65.1243 176.123C64.3565 176.123 63.7385 175.962 63.2702 175.641C62.802 175.317 62.5229 174.866 62.4331 174.289L63.8746 174.15C63.94 174.433 64.0788 174.647 64.2912 174.791C64.5036 174.935 64.7799 175.008 65.1202 175.008C65.4714 175.008 65.7532 174.935 65.9656 174.791C66.1806 174.647 66.2882 174.469 66.2882 174.256C66.2882 174.077 66.2188 173.928 66.0799 173.811C65.9438 173.694 65.7314 173.604 65.4428 173.542L64.3729 173.317C63.7712 173.192 63.3261 172.981 63.0375 172.684C62.7489 172.384 62.6059 172.006 62.6087 171.549C62.6059 171.162 62.7108 170.827 62.9231 170.544C63.1382 170.258 63.4363 170.038 63.8175 169.882C64.2013 169.725 64.6438 169.646 65.1447 169.646C65.8798 169.646 66.4583 169.802 66.8803 170.115C67.305 170.428 67.5678 170.852 67.6685 171.385ZM71.7584 176.123C71.1459 176.123 70.615 175.988 70.1657 175.718C69.7165 175.449 69.368 175.072 69.1203 174.587C68.8753 174.102 68.7528 173.536 68.7528 172.888C68.7528 172.24 68.8753 171.673 69.1203 171.185C69.368 170.698 69.7165 170.319 70.1657 170.05C70.615 169.78 71.1459 169.646 71.7584 169.646C72.371 169.646 72.9019 169.78 73.3511 170.05C73.8003 170.319 74.1475 170.698 74.3925 171.185C74.6402 171.673 74.7641 172.24 74.7641 172.888C74.7641 173.536 74.6402 174.102 74.3925 174.587C74.1475 175.072 73.8003 175.449 73.3511 175.718C72.9019 175.988 72.371 176.123 71.7584 176.123ZM71.7666 174.938C72.0988 174.938 72.3765 174.847 72.5997 174.665C72.8229 174.479 72.989 174.232 73.0979 173.921C73.2095 173.611 73.2654 173.265 73.2654 172.884C73.2654 172.5 73.2095 172.153 73.0979 171.843C72.989 171.53 72.8229 171.28 72.5997 171.095C72.3765 170.91 72.0988 170.818 71.7666 170.818C71.4263 170.818 71.1431 170.91 70.9172 171.095C70.6939 171.28 70.5265 171.53 70.4149 171.843C70.306 172.153 70.2515 172.5 70.2515 172.884C70.2515 173.265 70.306 173.611 70.4149 173.921C70.5265 174.232 70.6939 174.479 70.9172 174.665C71.1431 174.847 71.4263 174.938 71.7666 174.938ZM77.4972 167.636V176H76.0189V167.636H77.4972ZM84.6204 169.727L82.3865 176H80.753L78.5192 169.727H80.0955L81.5371 174.387H81.6025L83.0481 169.727H84.6204ZM88.207 176.123C87.5781 176.123 87.0349 175.992 86.5775 175.73C86.1229 175.466 85.773 175.093 85.528 174.612C85.283 174.127 85.1605 173.557 85.1605 172.9C85.1605 172.255 85.283 171.689 85.528 171.202C85.7758 170.711 86.1215 170.33 86.5653 170.058C87.0091 169.783 87.5304 169.646 88.1294 169.646C88.516 169.646 88.8808 169.708 89.2239 169.833C89.5696 169.956 89.8745 170.147 90.1386 170.405C90.4054 170.664 90.6151 170.993 90.7675 171.393C90.92 171.791 90.9962 172.265 90.9962 172.815V173.268H85.8547V172.271H89.5791C89.5764 171.988 89.5152 171.737 89.3954 171.516C89.2756 171.293 89.1081 171.117 88.8931 170.989C88.6807 170.861 88.433 170.797 88.1498 170.797C87.8476 170.797 87.5822 170.871 87.3535 171.018C87.1248 171.162 86.9465 171.353 86.8185 171.589C86.6933 171.824 86.6293 172.081 86.6266 172.361V173.231C86.6266 173.596 86.6933 173.909 86.8267 174.17C86.9601 174.429 87.1466 174.628 87.3861 174.767C87.6257 174.903 87.9061 174.971 88.2274 174.971C88.4425 174.971 88.6371 174.941 88.8114 174.881C88.9856 174.818 89.1367 174.727 89.2647 174.607C89.3927 174.488 89.4893 174.339 89.5546 174.162L90.935 174.317C90.8478 174.682 90.6818 175.001 90.4367 175.273C90.1944 175.543 89.8841 175.752 89.5056 175.902C89.1272 176.049 88.6943 176.123 88.207 176.123ZM96.9045 176.127C96.507 176.127 96.149 176.056 95.8304 175.914C95.5146 175.77 95.2641 175.558 95.079 175.277C94.8966 174.997 94.8054 174.651 94.8054 174.24C94.8054 173.886 94.8707 173.593 95.0014 173.362C95.1321 173.13 95.3104 172.945 95.5364 172.806C95.7624 172.668 96.0169 172.563 96.3001 172.492C96.5859 172.419 96.8813 172.365 97.1863 172.333C97.5538 172.295 97.8519 172.261 98.0806 172.231C98.3093 172.198 98.4754 172.149 98.5788 172.084C98.685 172.016 98.7381 171.911 98.7381 171.769V171.745C98.7381 171.437 98.6469 171.199 98.4645 171.03C98.2821 170.861 98.0194 170.777 97.6763 170.777C97.3142 170.777 97.027 170.856 96.8146 171.014C96.605 171.172 96.4634 171.358 96.3899 171.573L95.0096 171.377C95.1185 170.996 95.2982 170.677 95.5487 170.422C95.7991 170.163 96.1054 169.97 96.4675 169.842C96.8296 169.711 97.2298 169.646 97.6681 169.646C97.9703 169.646 98.2712 169.681 98.5707 169.752C98.8701 169.823 99.1438 169.94 99.3915 170.103C99.6393 170.264 99.838 170.483 99.9877 170.76C100.14 171.038 100.216 171.385 100.216 171.802V176H98.7953V175.138H98.7463C98.6564 175.313 98.5298 175.476 98.3665 175.628C98.2058 175.778 98.003 175.899 97.758 175.992C97.5157 176.082 97.2312 176.127 96.9045 176.127ZM97.2884 175.04C97.5851 175.04 97.8424 174.982 98.0602 174.865C98.278 174.745 98.4454 174.587 98.5625 174.391C98.6823 174.195 98.7422 173.981 98.7422 173.75V173.011C98.6959 173.049 98.617 173.084 98.5053 173.117C98.3964 173.15 98.2739 173.178 98.1378 173.203C98.0017 173.227 97.8669 173.249 97.7335 173.268C97.6001 173.287 97.4844 173.303 97.3864 173.317C97.1658 173.347 96.9685 173.396 96.7942 173.464C96.62 173.532 96.4825 173.627 96.3817 173.75C96.281 173.87 96.2306 174.025 96.2306 174.215C96.2306 174.488 96.33 174.693 96.5288 174.832C96.7275 174.971 96.9807 175.04 97.2884 175.04ZM104.555 176V169.727H105.989V170.773H106.054C106.169 170.411 106.365 170.132 106.642 169.936C106.923 169.737 107.243 169.637 107.602 169.637C107.684 169.637 107.775 169.642 107.876 169.65C107.979 169.655 108.065 169.665 108.133 169.678V171.038C108.07 171.016 107.971 170.997 107.835 170.981C107.701 170.962 107.572 170.952 107.447 170.952C107.177 170.952 106.935 171.011 106.72 171.128C106.508 171.242 106.34 171.402 106.218 171.606C106.095 171.81 106.034 172.046 106.034 172.312V176H104.555ZM111.634 176.123C111.005 176.123 110.462 175.992 110.004 175.73C109.55 175.466 109.2 175.093 108.955 174.612C108.71 174.127 108.587 173.557 108.587 172.9C108.587 172.255 108.71 171.689 108.955 171.202C109.203 170.711 109.548 170.33 109.992 170.058C110.436 169.783 110.957 169.646 111.556 169.646C111.943 169.646 112.308 169.708 112.651 169.833C112.996 169.956 113.301 170.147 113.565 170.405C113.832 170.664 114.042 170.993 114.194 171.393C114.347 171.791 114.423 172.265 114.423 172.815V173.268H109.281V172.271H113.006C113.003 171.988 112.942 171.737 112.822 171.516C112.702 171.293 112.535 171.117 112.32 170.989C112.107 170.861 111.86 170.797 111.577 170.797C111.274 170.797 111.009 170.871 110.78 171.018C110.552 171.162 110.373 171.353 110.245 171.589C110.12 171.824 110.056 172.081 110.053 172.361V173.231C110.053 173.596 110.12 173.909 110.253 174.17C110.387 174.429 110.573 174.628 110.813 174.767C111.052 174.903 111.333 174.971 111.654 174.971C111.869 174.971 112.064 174.941 112.238 174.881C112.412 174.818 112.563 174.727 112.691 174.607C112.819 174.488 112.916 174.339 112.981 174.162L114.362 174.317C114.275 174.682 114.109 175.001 113.864 175.273C113.621 175.543 113.311 175.752 112.932 175.902C112.554 176.049 112.121 176.123 111.634 176.123ZM117.479 176.127C117.081 176.127 116.723 176.056 116.405 175.914C116.089 175.77 115.838 175.558 115.653 175.277C115.471 174.997 115.38 174.651 115.38 174.24C115.38 173.886 115.445 173.593 115.576 173.362C115.706 173.13 115.885 172.945 116.111 172.806C116.337 172.668 116.591 172.563 116.874 172.492C117.16 172.419 117.456 172.365 117.76 172.333C118.128 172.295 118.426 172.261 118.655 172.231C118.884 172.198 119.05 172.149 119.153 172.084C119.259 172.016 119.312 171.911 119.312 171.769V171.745C119.312 171.437 119.221 171.199 119.039 171.03C118.856 170.861 118.594 170.777 118.251 170.777C117.888 170.777 117.601 170.856 117.389 171.014C117.179 171.172 117.038 171.358 116.964 171.573L115.584 171.377C115.693 170.996 115.872 170.677 116.123 170.422C116.373 170.163 116.68 169.97 117.042 169.842C117.404 169.711 117.804 169.646 118.242 169.646C118.545 169.646 118.845 169.681 119.145 169.752C119.444 169.823 119.718 169.94 119.966 170.103C120.213 170.264 120.412 170.483 120.562 170.76C120.714 171.038 120.791 171.385 120.791 171.802V176H119.369V175.138H119.32C119.231 175.313 119.104 175.476 118.941 175.628C118.78 175.778 118.577 175.899 118.332 175.992C118.09 176.082 117.805 176.127 117.479 176.127ZM117.863 175.04C118.159 175.04 118.417 174.982 118.634 174.865C118.852 174.745 119.02 174.587 119.137 174.391C119.257 174.195 119.316 173.981 119.316 173.75V173.011C119.27 173.049 119.191 173.084 119.08 173.117C118.971 173.15 118.848 173.178 118.712 173.203C118.576 173.227 118.441 173.249 118.308 173.268C118.174 173.287 118.059 173.303 117.961 173.317C117.74 173.347 117.543 173.396 117.368 173.464C117.194 173.532 117.057 173.627 116.956 173.75C116.855 173.87 116.805 174.025 116.805 174.215C116.805 174.488 116.904 174.693 117.103 174.832C117.302 174.971 117.555 175.04 117.863 175.04ZM123.756 167.636V176H122.277V167.636H123.756ZM129.607 167.636V176H128.128V167.636H129.607ZM131.127 176V169.727H132.605V176H131.127ZM131.87 168.837C131.636 168.837 131.434 168.759 131.266 168.604C131.097 168.446 131.012 168.257 131.012 168.037C131.012 167.813 131.097 167.624 131.266 167.469C131.434 167.311 131.636 167.232 131.87 167.232C132.107 167.232 132.308 167.311 132.474 167.469C132.643 167.624 132.728 167.813 132.728 168.037C132.728 168.257 132.643 168.446 132.474 168.604C132.308 168.759 132.107 168.837 131.87 168.837ZM137.303 169.727V170.871H133.594V169.727H137.303ZM134.521 176V169.135C134.521 168.713 134.609 168.362 134.783 168.081C134.96 167.801 135.197 167.591 135.493 167.453C135.79 167.314 136.12 167.244 136.482 167.244C136.738 167.244 136.965 167.265 137.164 167.306C137.362 167.346 137.509 167.383 137.605 167.416L137.311 168.559C137.248 168.54 137.169 168.521 137.074 168.502C136.979 168.48 136.872 168.469 136.755 168.469C136.48 168.469 136.286 168.536 136.171 168.67C136.06 168.8 136.004 168.988 136.004 169.233V176H134.521ZM141.001 176.123C140.373 176.123 139.829 175.992 139.372 175.73C138.917 175.466 138.567 175.093 138.322 174.612C138.077 174.127 137.955 173.557 137.955 172.9C137.955 172.255 138.077 171.689 138.322 171.202C138.57 170.711 138.916 170.33 139.36 170.058C139.804 169.783 140.325 169.646 140.924 169.646C141.31 169.646 141.675 169.708 142.018 169.833C142.364 169.956 142.669 170.147 142.933 170.405C143.2 170.664 143.41 170.993 143.562 171.393C143.714 171.791 143.791 172.265 143.791 172.815V173.268H138.649V172.271H142.374C142.371 171.988 142.31 171.737 142.19 171.516C142.07 171.293 141.903 171.117 141.688 170.989C141.475 170.861 141.227 170.797 140.944 170.797C140.642 170.797 140.377 170.871 140.148 171.018C139.919 171.162 139.741 171.353 139.613 171.589C139.488 171.824 139.424 172.081 139.421 172.361V173.231C139.421 173.596 139.488 173.909 139.621 174.17C139.754 174.429 139.941 174.628 140.181 174.767C140.42 174.903 140.701 174.971 141.022 174.971C141.237 174.971 141.432 174.941 141.606 174.881C141.78 174.818 141.931 174.727 142.059 174.607C142.187 174.488 142.284 174.339 142.349 174.162L143.729 174.317C143.642 174.682 143.476 175.001 143.231 175.273C142.989 175.543 142.679 175.752 142.3 175.902C141.922 176.049 141.489 176.123 141.001 176.123ZM31.7596 204.352V195.727H33.2134V196.765H33.2992C33.3754 196.612 33.483 196.45 33.6218 196.279C33.7607 196.104 33.9485 195.956 34.1854 195.833C34.4222 195.708 34.7244 195.646 35.092 195.646C35.5766 195.646 36.0136 195.769 36.4029 196.017C36.7949 196.262 37.1053 196.626 37.334 197.108C37.5654 197.587 37.6811 198.175 37.6811 198.872C37.6811 199.561 37.5681 200.146 37.3422 200.628C37.1162 201.11 36.8085 201.477 36.4192 201.73C36.0299 201.984 35.5888 202.11 35.0961 202.11C34.7367 202.11 34.4386 202.05 34.2017 201.931C33.9648 201.811 33.7743 201.666 33.63 201.498C33.4884 201.326 33.3781 201.164 33.2992 201.012H33.2379V204.352H31.7596ZM33.2093 198.864C33.2093 199.269 33.2665 199.625 33.3809 199.93C33.4979 200.234 33.6654 200.473 33.8832 200.644C34.1037 200.813 34.3705 200.897 34.6836 200.897C35.0103 200.897 35.2839 200.81 35.5044 200.636C35.725 200.459 35.891 200.218 36.0027 199.913C36.117 199.606 36.1742 199.256 36.1742 198.864C36.1742 198.474 36.1184 198.129 36.0067 197.826C35.8951 197.524 35.729 197.287 35.5085 197.116C35.288 196.944 35.013 196.858 34.6836 196.858C34.3678 196.858 34.0996 196.942 33.8791 197.108C33.6586 197.274 33.4911 197.506 33.3768 197.806C33.2652 198.105 33.2093 198.458 33.2093 198.864ZM38.9471 202V195.727H40.3805V196.773H40.4458C40.5602 196.411 40.7562 196.132 41.0339 195.936C41.3143 195.737 41.6342 195.637 41.9936 195.637C42.0753 195.637 42.1665 195.642 42.2672 195.65C42.3707 195.655 42.4564 195.665 42.5245 195.678V197.038C42.4619 197.016 42.3625 196.997 42.2264 196.981C42.093 196.962 41.9637 196.952 41.8384 196.952C41.5689 196.952 41.3266 197.011 41.1115 197.128C40.8991 197.242 40.7317 197.402 40.6092 197.606C40.4867 197.81 40.4254 198.046 40.4254 198.312V202H38.9471ZM45.9845 202.123C45.3719 202.123 44.841 201.988 44.3918 201.718C43.9426 201.449 43.5941 201.072 43.3464 200.587C43.1013 200.102 42.9788 199.536 42.9788 198.888C42.9788 198.24 43.1013 197.673 43.3464 197.185C43.5941 196.698 43.9426 196.319 44.3918 196.05C44.841 195.78 45.3719 195.646 45.9845 195.646C46.5971 195.646 47.128 195.78 47.5772 196.05C48.0264 196.319 48.3735 196.698 48.6186 197.185C48.8663 197.673 48.9902 198.24 48.9902 198.888C48.9902 199.536 48.8663 200.102 48.6186 200.587C48.3735 201.072 48.0264 201.449 47.5772 201.718C47.128 201.988 46.5971 202.123 45.9845 202.123ZM45.9927 200.938C46.3248 200.938 46.6025 200.847 46.8258 200.665C47.049 200.479 47.2151 200.232 47.324 199.921C47.4356 199.611 47.4914 199.265 47.4914 198.884C47.4914 198.5 47.4356 198.153 47.324 197.843C47.2151 197.53 47.049 197.28 46.8258 197.095C46.6025 196.91 46.3248 196.818 45.9927 196.818C45.6524 196.818 45.3692 196.91 45.1432 197.095C44.92 197.28 44.7526 197.53 44.6409 197.843C44.532 198.153 44.4776 198.5 44.4776 198.884C44.4776 199.265 44.532 199.611 44.6409 199.921C44.7526 200.232 44.92 200.479 45.1432 200.665C45.3692 200.847 45.6524 200.938 45.9927 200.938ZM50.3103 202V193.636H51.7886V196.765H51.8499C51.9261 196.612 52.0336 196.45 52.1725 196.279C52.3113 196.104 52.4992 195.956 52.7361 195.833C52.9729 195.708 53.2751 195.646 53.6427 195.646C54.1273 195.646 54.5642 195.769 54.9536 196.017C55.3456 196.262 55.656 196.626 55.8847 197.108C56.1161 197.587 56.2318 198.175 56.2318 198.872C56.2318 199.561 56.1188 200.146 55.8928 200.628C55.6669 201.11 55.3592 201.477 54.9699 201.73C54.5806 201.984 54.1395 202.11 53.6468 202.11C53.2874 202.11 52.9893 202.05 52.7524 201.931C52.5155 201.811 52.325 201.666 52.1807 201.498C52.0391 201.326 51.9288 201.164 51.8499 201.012H51.7641V202H50.3103ZM51.76 198.864C51.76 199.269 51.8172 199.625 51.9316 199.93C52.0486 200.234 52.2161 200.473 52.4339 200.644C52.6544 200.813 52.9212 200.897 53.2343 200.897C53.561 200.897 53.8346 200.81 54.0551 200.636C54.2757 200.459 54.4417 200.218 54.5534 199.913C54.6677 199.606 54.7249 199.256 54.7249 198.864C54.7249 198.474 54.6691 198.129 54.5574 197.826C54.4458 197.524 54.2797 197.287 54.0592 197.116C53.8387 196.944 53.5637 196.858 53.2343 196.858C52.9185 196.858 52.6503 196.942 52.4298 197.108C52.2093 197.274 52.0418 197.506 51.9275 197.806C51.8158 198.105 51.76 198.458 51.76 198.864ZM58.9669 193.636V202H57.4886V193.636H58.9669ZM63.2641 202.123C62.6352 202.123 62.0921 201.992 61.6347 201.73C61.18 201.466 60.8302 201.093 60.5851 200.612C60.3401 200.127 60.2176 199.557 60.2176 198.9C60.2176 198.255 60.3401 197.689 60.5851 197.202C60.8329 196.711 61.1787 196.33 61.6224 196.058C62.0662 195.783 62.5876 195.646 63.1865 195.646C63.5731 195.646 63.9379 195.708 64.281 195.833C64.6267 195.956 64.9317 196.147 65.1958 196.405C65.4626 196.664 65.6722 196.993 65.8247 197.393C65.9771 197.791 66.0534 198.265 66.0534 198.815V199.268H60.9118V198.271H64.6363C64.6336 197.988 64.5723 197.737 64.4525 197.516C64.3327 197.293 64.1653 197.117 63.9502 196.989C63.7378 196.861 63.4901 196.797 63.2069 196.797C62.9047 196.797 62.6393 196.871 62.4106 197.018C62.1819 197.162 62.0036 197.353 61.8756 197.589C61.7504 197.824 61.6864 198.081 61.6837 198.361V199.231C61.6837 199.596 61.7504 199.909 61.8838 200.17C62.0172 200.429 62.2037 200.628 62.4433 200.767C62.6829 200.903 62.9633 200.971 63.2845 200.971C63.4996 200.971 63.6943 200.941 63.8685 200.881C64.0428 200.818 64.1939 200.727 64.3218 200.607C64.4498 200.488 64.5464 200.339 64.6118 200.162L65.9921 200.317C65.905 200.682 65.7389 201.001 65.4939 201.273C65.2516 201.543 64.9412 201.752 64.5628 201.902C64.1843 202.049 63.7515 202.123 63.2641 202.123ZM67.304 202V195.727H68.717V196.793H68.7905C68.9212 196.434 69.1377 196.153 69.4399 195.952C69.7421 195.748 70.1028 195.646 70.5221 195.646C70.9468 195.646 71.3048 195.749 71.5961 195.956C71.8901 196.16 72.097 196.439 72.2168 196.793H72.2822C72.421 196.445 72.6552 196.167 72.9846 195.96C73.3167 195.75 73.7102 195.646 74.1648 195.646C74.742 195.646 75.213 195.828 75.5778 196.193C75.9426 196.558 76.125 197.09 76.125 197.79V202H74.6426V198.018C74.6426 197.629 74.5392 197.344 74.3323 197.165C74.1253 196.982 73.8721 196.891 73.5727 196.891C73.216 196.891 72.937 197.003 72.7355 197.226C72.5367 197.447 72.4374 197.734 72.4374 198.088V202H70.9876V197.957C70.9876 197.633 70.8896 197.374 70.6936 197.181C70.5003 196.988 70.2471 196.891 69.934 196.891C69.7216 196.891 69.5283 196.946 69.3541 197.055C69.1799 197.161 69.041 197.312 68.9375 197.508C68.8341 197.701 68.7824 197.927 68.7824 198.186V202H67.304ZM83.6546 195.727V196.871H79.9465V195.727H83.6546ZM80.8735 202V195.135C80.8735 194.713 80.9606 194.362 81.1349 194.081C81.3118 193.801 81.5487 193.591 81.8454 193.453C82.1422 193.314 82.4716 193.244 82.8337 193.244C83.0896 193.244 83.317 193.265 83.5157 193.306C83.7145 193.346 83.8615 193.383 83.9568 193.416L83.6627 194.559C83.6001 194.54 83.5212 194.521 83.4259 194.502C83.3306 194.48 83.2244 194.469 83.1073 194.469C82.8324 194.469 82.6377 194.536 82.5233 194.67C82.4117 194.8 82.3559 194.988 82.3559 195.233V202H80.8735ZM86.404 202.127C86.0065 202.127 85.6485 202.056 85.3299 201.914C85.0141 201.77 84.7637 201.558 84.5785 201.277C84.3961 200.997 84.3049 200.651 84.3049 200.24C84.3049 199.886 84.3703 199.593 84.5009 199.362C84.6316 199.13 84.8099 198.945 85.0359 198.806C85.2619 198.668 85.5164 198.563 85.7996 198.492C86.0854 198.419 86.3808 198.365 86.6858 198.333C87.0533 198.295 87.3514 198.261 87.5801 198.231C87.8088 198.198 87.9749 198.149 88.0783 198.084C88.1845 198.016 88.2376 197.911 88.2376 197.769V197.745C88.2376 197.437 88.1464 197.199 87.964 197.03C87.7816 196.861 87.5189 196.777 87.1758 196.777C86.8137 196.777 86.5265 196.856 86.3141 197.014C86.1045 197.172 85.9629 197.358 85.8894 197.573L84.5091 197.377C84.618 196.996 84.7977 196.677 85.0482 196.422C85.2986 196.163 85.6049 195.97 85.967 195.842C86.3291 195.711 86.7293 195.646 87.1677 195.646C87.4699 195.646 87.7707 195.681 88.0702 195.752C88.3697 195.823 88.6433 195.94 88.891 196.103C89.1388 196.264 89.3375 196.483 89.4873 196.76C89.6397 197.038 89.716 197.385 89.716 197.802V202H88.2948V201.138H88.2458C88.1559 201.313 88.0293 201.476 87.866 201.628C87.7054 201.778 87.5025 201.899 87.2575 201.992C87.0152 202.082 86.7307 202.127 86.404 202.127ZM86.7879 201.04C87.0846 201.04 87.3419 200.982 87.5597 200.865C87.7775 200.745 87.9449 200.587 88.062 200.391C88.1818 200.195 88.2417 199.981 88.2417 199.75V199.011C88.1954 199.049 88.1165 199.084 88.0048 199.117C87.8959 199.15 87.7734 199.178 87.6373 199.203C87.5012 199.227 87.3664 199.249 87.233 199.268C87.0996 199.287 86.9839 199.303 86.8859 199.317C86.6653 199.347 86.468 199.396 86.2937 199.464C86.1195 199.532 85.982 199.627 85.8813 199.75C85.7805 199.87 85.7302 200.025 85.7302 200.215C85.7302 200.488 85.8295 200.693 86.0283 200.832C86.227 200.971 86.4802 201.04 86.7879 201.04ZM93.9386 202.123C93.3124 202.123 92.7747 201.985 92.3255 201.71C91.879 201.435 91.5346 201.055 91.2923 200.571C91.0527 200.083 90.9329 199.522 90.9329 198.888C90.9329 198.251 91.0554 197.689 91.3005 197.202C91.5455 196.711 91.8913 196.33 92.3378 196.058C92.787 195.783 93.3179 195.646 93.9304 195.646C94.4396 195.646 94.8901 195.74 95.2822 195.927C95.677 196.113 95.9914 196.375 96.2255 196.716C96.4597 197.053 96.5931 197.448 96.6258 197.9H95.2128C95.1556 197.598 95.0195 197.346 94.8044 197.144C94.592 196.94 94.3075 196.838 93.9509 196.838C93.6487 196.838 93.3832 196.92 93.1545 197.083C92.9258 197.244 92.7475 197.475 92.6195 197.777C92.4943 198.08 92.4317 198.442 92.4317 198.864C92.4317 199.291 92.4943 199.659 92.6195 199.966C92.7448 200.271 92.9204 200.507 93.1464 200.673C93.375 200.836 93.6432 200.918 93.9509 200.918C94.1687 200.918 94.3633 200.877 94.5348 200.795C94.7091 200.711 94.8547 200.59 94.9718 200.432C95.0889 200.274 95.1692 200.082 95.2128 199.856H96.6258C96.5904 200.3 96.4597 200.693 96.2337 201.036C96.0077 201.377 95.7001 201.643 95.3108 201.837C94.9214 202.027 94.4641 202.123 93.9386 202.123ZM100.617 202.123C99.9877 202.123 99.4446 201.992 98.9872 201.73C98.5326 201.466 98.1827 201.093 97.9377 200.612C97.6926 200.127 97.5701 199.557 97.5701 198.9C97.5701 198.255 97.6926 197.689 97.9377 197.202C98.1854 196.711 98.5312 196.33 98.975 196.058C99.4187 195.783 99.9401 195.646 100.539 195.646C100.926 195.646 101.29 195.708 101.634 195.833C101.979 195.956 102.284 196.147 102.548 196.405C102.815 196.664 103.025 196.993 103.177 197.393C103.33 197.791 103.406 198.265 103.406 198.815V199.268H98.2644V198.271H101.989C101.986 197.988 101.925 197.737 101.805 197.516C101.685 197.293 101.518 197.117 101.303 196.989C101.09 196.861 100.843 196.797 100.559 196.797C100.257 196.797 99.9918 196.871 99.7631 197.018C99.5344 197.162 99.3561 197.353 99.2282 197.589C99.1029 197.824 99.0389 198.081 99.0362 198.361V199.231C99.0362 199.596 99.1029 199.909 99.2363 200.17C99.3697 200.429 99.5562 200.628 99.7958 200.767C100.035 200.903 100.316 200.971 100.637 200.971C100.852 200.971 101.047 200.941 101.221 200.881C101.395 200.818 101.546 200.727 101.674 200.607C101.802 200.488 101.899 200.339 101.964 200.162L103.345 200.317C103.258 200.682 103.091 201.001 102.846 201.273C102.604 201.543 102.294 201.752 101.915 201.902C101.537 202.049 101.104 202.123 100.617 202.123ZM106.984 202.11C106.492 202.11 106.051 201.984 105.661 201.73C105.272 201.477 104.964 201.11 104.738 200.628C104.512 200.146 104.399 199.561 104.399 198.872C104.399 198.175 104.514 197.587 104.742 197.108C104.974 196.626 105.285 196.262 105.678 196.017C106.07 195.769 106.507 195.646 106.988 195.646C107.356 195.646 107.658 195.708 107.895 195.833C108.132 195.956 108.32 196.104 108.459 196.279C108.597 196.45 108.705 196.612 108.781 196.765H108.842V193.636H110.325V202H108.871V201.012H108.781C108.705 201.164 108.595 201.326 108.45 201.498C108.306 201.666 108.116 201.811 107.879 201.931C107.642 202.05 107.344 202.11 106.984 202.11ZM107.397 200.897C107.71 200.897 107.977 200.813 108.197 200.644C108.418 200.473 108.585 200.234 108.7 199.93C108.814 199.625 108.871 199.269 108.871 198.864C108.871 198.458 108.814 198.105 108.7 197.806C108.588 197.506 108.422 197.274 108.201 197.108C107.984 196.942 107.715 196.858 107.397 196.858C107.067 196.858 106.792 196.944 106.572 197.116C106.351 197.287 106.185 197.524 106.074 197.826C105.962 198.129 105.906 198.474 105.906 198.864C105.906 199.256 105.962 199.606 106.074 199.913C106.188 200.218 106.355 200.459 106.576 200.636C106.799 200.81 107.073 200.897 107.397 200.897ZM114.818 202V193.636H116.296V196.765H116.358C116.434 196.612 116.541 196.45 116.68 196.279C116.819 196.104 117.007 195.956 117.244 195.833C117.481 195.708 117.783 195.646 118.15 195.646C118.635 195.646 119.072 195.769 119.461 196.017C119.853 196.262 120.164 196.626 120.392 197.108C120.624 197.587 120.74 198.175 120.74 198.872C120.74 199.561 120.627 200.146 120.401 200.628C120.175 201.11 119.867 201.477 119.478 201.73C119.088 201.984 118.647 202.11 118.155 202.11C117.795 202.11 117.497 202.05 117.26 201.931C117.023 201.811 116.833 201.666 116.688 201.498C116.547 201.326 116.437 201.164 116.358 201.012H116.272V202H114.818ZM116.268 198.864C116.268 199.269 116.325 199.625 116.439 199.93C116.556 200.234 116.724 200.473 116.942 200.644C117.162 200.813 117.429 200.897 117.742 200.897C118.069 200.897 118.342 200.81 118.563 200.636C118.783 200.459 118.95 200.218 119.061 199.913C119.176 199.606 119.233 199.256 119.233 198.864C119.233 198.474 119.177 198.129 119.065 197.826C118.954 197.524 118.788 197.287 118.567 197.116C118.347 196.944 118.072 196.858 117.742 196.858C117.426 196.858 117.158 196.942 116.938 197.108C116.717 197.274 116.55 197.506 116.435 197.806C116.324 198.105 116.268 198.458 116.268 198.864ZM122.702 204.352C122.5 204.352 122.314 204.336 122.142 204.303C121.974 204.273 121.839 204.238 121.738 204.197L122.081 203.045C122.296 203.108 122.488 203.138 122.657 203.135C122.826 203.133 122.974 203.079 123.102 202.976C123.233 202.875 123.343 202.706 123.433 202.47L123.559 202.131L121.285 195.727H122.853L124.299 200.464H124.364L125.814 195.727H127.386L124.874 202.76C124.757 203.092 124.602 203.376 124.409 203.613C124.216 203.853 123.979 204.035 123.698 204.16C123.421 204.288 123.088 204.352 122.702 204.352ZM133.99 204.483C133.459 204.483 133.003 204.411 132.621 204.267C132.24 204.125 131.934 203.934 131.703 203.695C131.471 203.455 131.311 203.19 131.221 202.898L132.552 202.576C132.612 202.698 132.699 202.819 132.813 202.939C132.928 203.062 133.082 203.163 133.275 203.241C133.471 203.323 133.717 203.364 134.014 203.364C134.433 203.364 134.78 203.262 135.055 203.058C135.33 202.856 135.468 202.524 135.468 202.061V200.873H135.394C135.318 201.025 135.206 201.182 135.059 201.343C134.915 201.503 134.723 201.638 134.484 201.747C134.247 201.856 133.949 201.91 133.589 201.91C133.107 201.91 132.67 201.797 132.278 201.571C131.889 201.343 131.579 201.002 131.347 200.55C131.119 200.096 131.004 199.527 131.004 198.843C131.004 198.154 131.119 197.573 131.347 197.099C131.579 196.623 131.89 196.262 132.282 196.017C132.675 195.769 133.112 195.646 133.593 195.646C133.961 195.646 134.263 195.708 134.5 195.833C134.74 195.956 134.93 196.104 135.072 196.279C135.213 196.45 135.321 196.612 135.394 196.765H135.476V195.727H136.934V202.102C136.934 202.638 136.806 203.082 136.55 203.433C136.294 203.785 135.944 204.047 135.501 204.222C135.057 204.396 134.553 204.483 133.99 204.483ZM134.002 200.75C134.315 200.75 134.582 200.674 134.802 200.522C135.023 200.369 135.19 200.15 135.305 199.864C135.419 199.578 135.476 199.235 135.476 198.835C135.476 198.44 135.419 198.095 135.305 197.798C135.193 197.501 135.027 197.271 134.806 197.108C134.588 196.942 134.32 196.858 134.002 196.858C133.672 196.858 133.397 196.944 133.177 197.116C132.956 197.287 132.79 197.523 132.679 197.822C132.567 198.119 132.511 198.457 132.511 198.835C132.511 199.219 132.567 199.555 132.679 199.844C132.793 200.13 132.96 200.353 133.181 200.513C133.404 200.671 133.678 200.75 134.002 200.75ZM138.449 202V195.727H139.927V202H138.449ZM139.192 194.837C138.958 194.837 138.757 194.759 138.588 194.604C138.419 194.446 138.335 194.257 138.335 194.037C138.335 193.813 138.419 193.624 138.588 193.469C138.757 193.311 138.958 193.232 139.192 193.232C139.429 193.232 139.631 193.311 139.797 193.469C139.965 193.624 140.05 193.813 140.05 194.037C140.05 194.257 139.965 194.446 139.797 194.604C139.631 194.759 139.429 194.837 139.192 194.837ZM141.448 202V195.727H142.881V196.773H142.946C143.061 196.411 143.257 196.132 143.534 195.936C143.815 195.737 144.135 195.637 144.494 195.637C144.576 195.637 144.667 195.642 144.768 195.65C144.871 195.655 144.957 195.665 145.025 195.678V197.038C144.962 197.016 144.863 196.997 144.727 196.981C144.593 196.962 144.464 196.952 144.339 196.952C144.069 196.952 143.827 197.011 143.612 197.128C143.4 197.242 143.232 197.402 143.11 197.606C142.987 197.81 142.926 198.046 142.926 198.312V202H141.448ZM147.485 193.636V202H146.007V193.636H147.485ZM153.963 197.385L152.616 197.532C152.578 197.396 152.511 197.268 152.416 197.148C152.323 197.029 152.198 196.932 152.04 196.858C151.882 196.785 151.689 196.748 151.46 196.748C151.152 196.748 150.894 196.815 150.684 196.948C150.477 197.082 150.375 197.255 150.378 197.467C150.375 197.649 150.442 197.798 150.578 197.912C150.717 198.026 150.945 198.12 151.264 198.194L152.334 198.423C152.927 198.551 153.369 198.753 153.657 199.031C153.948 199.309 154.095 199.672 154.098 200.121C154.095 200.516 153.98 200.865 153.751 201.167C153.525 201.466 153.211 201.701 152.808 201.869C152.405 202.038 151.942 202.123 151.419 202.123C150.651 202.123 150.033 201.962 149.565 201.641C149.097 201.317 148.818 200.866 148.728 200.289L150.17 200.15C150.235 200.433 150.374 200.647 150.586 200.791C150.798 200.935 151.075 201.008 151.415 201.008C151.766 201.008 152.048 200.935 152.26 200.791C152.476 200.647 152.583 200.469 152.583 200.256C152.583 200.077 152.514 199.928 152.375 199.811C152.239 199.694 152.026 199.604 151.738 199.542L150.668 199.317C150.066 199.192 149.621 198.981 149.332 198.684C149.044 198.384 148.901 198.006 148.904 197.549C148.901 197.162 149.006 196.827 149.218 196.544C149.433 196.258 149.731 196.038 150.112 195.882C150.496 195.725 150.939 195.646 151.44 195.646C152.175 195.646 152.753 195.802 153.175 196.115C153.6 196.428 153.863 196.852 153.963 197.385Z" fill="white"/>
<path d="M130.502 204.287H154.56V205.071H130.502V204.287Z" fill="white"/>
</g>
<defs>
<linearGradient id="paint0_linear_39_28" x1="-46.75" y1="-73.75" x2="213.25" y2="309.25" gradientUnits="userSpaceOnUse">
<stop stop-color="white"/>
<stop offset="1" stop-opacity="0"/>
</linearGradient>
<clipPath id="clip0_39_28">
<rect width="200" height="288" fill="white" transform="translate(0.25 0.5)"/>
</clipPath>
</defs>
</svg>
