<svg width="400" height="576" viewBox="0 0 400 576" fill="none" xmlns="http://www.w3.org/2000/svg">
<g clip-path="url(#clip0_39_28)">
<rect width="400" height="576" fill="#251102"/>
<rect width="400" height="576" fill="url(#paint0_linear_39_28)" fill-opacity="0.2"/>
<circle cx="219" cy="272" r="272" fill="#FF5C00"/>
<circle cx="219" cy="525" r="272" fill="#FF5C00"/>
<path d="M30.0334 145V115.909H40.9425C43.1773 115.909 45.0523 116.297 46.5675 117.074C48.0921 117.85 49.2427 118.939 50.0192 120.341C50.8052 121.733 51.1982 123.357 51.1982 125.213C51.1982 127.079 50.8004 128.698 50.005 130.071C49.219 131.435 48.0589 132.491 46.5249 133.239C44.9908 133.977 43.1063 134.347 40.8714 134.347H33.1016V129.972H40.1612C41.468 129.972 42.5381 129.792 43.3714 129.432C44.2048 129.062 44.8203 128.527 45.218 127.827C45.6252 127.116 45.8288 126.245 45.8288 125.213C45.8288 124.181 45.6252 123.3 45.218 122.571C44.8108 121.832 44.1906 121.274 43.3572 120.895C42.5239 120.507 41.4491 120.312 40.1328 120.312H35.3033V145H30.0334ZM45.0618 131.818L52.2635 145H46.3828L39.3089 131.818H45.0618ZM65.1683 145.426C62.9808 145.426 61.0916 144.972 59.5007 144.062C57.9193 143.144 56.7024 141.847 55.8501 140.17C54.9979 138.485 54.5717 136.501 54.5717 134.219C54.5717 131.974 54.9979 130.005 55.8501 128.31C56.7119 126.605 57.9145 125.279 59.4581 124.332C61.0017 123.376 62.8151 122.898 64.8984 122.898C66.2431 122.898 67.5121 123.116 68.7053 123.551C69.9079 123.977 70.9685 124.64 71.8871 125.54C72.8151 126.439 73.5443 127.585 74.0746 128.977C74.6049 130.36 74.87 132.008 74.87 133.92V135.497H56.9865V132.031H69.9411C69.9316 131.046 69.7185 130.17 69.3018 129.403C68.8852 128.627 68.3028 128.016 67.5547 127.571C66.8161 127.126 65.9543 126.903 64.9695 126.903C63.9183 126.903 62.995 127.159 62.1996 127.67C61.4041 128.172 60.7839 128.835 60.3388 129.659C59.9032 130.473 59.6806 131.368 59.6712 132.344V135.369C59.6712 136.638 59.9032 137.727 60.3672 138.636C60.8312 139.536 61.4799 140.227 62.3132 140.71C63.1465 141.184 64.1219 141.42 65.2393 141.42C65.9875 141.42 66.6645 141.316 67.2706 141.108C67.8767 140.89 68.4022 140.573 68.8473 140.156C69.2924 139.74 69.6286 139.223 69.8558 138.608L74.657 139.148C74.3539 140.417 73.7763 141.525 72.924 142.472C72.0812 143.409 71.0017 144.138 69.6854 144.659C68.3691 145.17 66.8634 145.426 65.1683 145.426ZM93.7798 153.182V141.562H93.5668C93.3016 142.093 92.9181 142.656 92.4162 143.253C91.9143 143.84 91.2514 144.342 90.4276 144.759C89.6037 145.175 88.5668 145.384 87.3168 145.384C85.6027 145.384 84.0687 144.943 82.7145 144.062C81.3603 143.182 80.2902 141.903 79.5043 140.227C78.7183 138.551 78.3253 136.515 78.3253 134.119C78.3253 131.695 78.723 129.65 79.5185 127.983C80.3234 126.307 81.4077 125.043 82.7713 124.19C84.1349 123.329 85.6548 122.898 87.331 122.898C88.6094 122.898 89.6605 123.116 90.4844 123.551C91.3082 123.977 91.9616 124.493 92.4446 125.099C92.9276 125.696 93.3016 126.259 93.5668 126.79H93.8793V123.182H98.9361V153.182H93.7798ZM88.7514 141.165C89.8404 141.165 90.7685 140.871 91.5355 140.284C92.3026 139.687 92.8849 138.859 93.2827 137.798C93.6804 136.738 93.8793 135.502 93.8793 134.091C93.8793 132.68 93.6804 131.454 93.2827 130.412C92.8944 129.37 92.3168 128.561 91.5497 127.983C90.7921 127.405 89.8594 127.116 88.7514 127.116C87.6056 127.116 86.6491 127.415 85.8821 128.011C85.1151 128.608 84.5374 129.432 84.1491 130.483C83.7609 131.534 83.5668 132.737 83.5668 134.091C83.5668 135.455 83.7609 136.671 84.1491 137.741C84.5469 138.802 85.1293 139.64 85.8963 140.256C86.6728 140.862 87.6245 141.165 88.7514 141.165ZM118.126 135.824V123.182H123.268V145H118.283V141.122H118.055C117.563 142.344 116.753 143.343 115.626 144.119C114.509 144.896 113.131 145.284 111.493 145.284C110.063 145.284 108.799 144.967 107.7 144.332C106.611 143.688 105.759 142.756 105.143 141.534C104.528 140.303 104.22 138.816 104.22 137.074V123.182H109.362V136.278C109.362 137.661 109.741 138.759 110.499 139.574C111.256 140.388 112.25 140.795 113.482 140.795C114.239 140.795 114.973 140.611 115.683 140.241C116.393 139.872 116.976 139.323 117.43 138.594C117.894 137.855 118.126 136.932 118.126 135.824ZM128.556 145V123.182H133.698V145H128.556ZM131.141 120.085C130.327 120.085 129.626 119.815 129.039 119.276C128.452 118.726 128.158 118.068 128.158 117.301C128.158 116.525 128.452 115.866 129.039 115.327C129.626 114.777 130.327 114.503 131.141 114.503C131.965 114.503 132.666 114.777 133.244 115.327C133.831 115.866 134.124 116.525 134.124 117.301C134.124 118.068 133.831 118.726 133.244 119.276C132.666 119.815 131.965 120.085 131.141 120.085ZM138.986 145V123.182H143.972V126.818H144.199C144.597 125.559 145.278 124.588 146.244 123.906C147.22 123.215 148.332 122.869 149.582 122.869C149.866 122.869 150.184 122.884 150.534 122.912C150.894 122.931 151.192 122.964 151.429 123.011V127.741C151.211 127.666 150.866 127.599 150.392 127.543C149.928 127.476 149.478 127.443 149.043 127.443C148.105 127.443 147.262 127.647 146.514 128.054C145.776 128.452 145.193 129.006 144.767 129.716C144.341 130.426 144.128 131.245 144.128 132.173V145H138.986ZM163.606 145.426C161.418 145.426 159.529 144.972 157.938 144.062C156.357 143.144 155.14 141.847 154.288 140.17C153.435 138.485 153.009 136.501 153.009 134.219C153.009 131.974 153.435 130.005 154.288 128.31C155.149 126.605 156.352 125.279 157.896 124.332C159.439 123.376 161.253 122.898 163.336 122.898C164.681 122.898 165.95 123.116 167.143 123.551C168.345 123.977 169.406 124.64 170.325 125.54C171.253 126.439 171.982 127.585 172.512 128.977C173.042 130.36 173.308 132.008 173.308 133.92V135.497H155.424V132.031H168.379C168.369 131.046 168.156 130.17 167.739 129.403C167.323 128.627 166.74 128.016 165.992 127.571C165.254 127.126 164.392 126.903 163.407 126.903C162.356 126.903 161.433 127.159 160.637 127.67C159.842 128.172 159.221 128.835 158.776 129.659C158.341 130.473 158.118 131.368 158.109 132.344V135.369C158.109 136.638 158.341 137.727 158.805 138.636C159.269 139.536 159.917 140.227 160.751 140.71C161.584 141.184 162.559 141.42 163.677 141.42C164.425 141.42 165.102 141.316 165.708 141.108C166.314 140.89 166.84 140.573 167.285 140.156C167.73 139.74 168.066 139.223 168.293 138.608L173.094 139.148C172.791 140.417 172.214 141.525 171.362 142.472C170.519 143.409 169.439 144.138 168.123 144.659C166.807 145.17 165.301 145.426 163.606 145.426ZM177.658 145V123.182H182.572V126.889H182.828C183.283 125.639 184.036 124.664 185.087 123.963C186.138 123.253 187.393 122.898 188.851 122.898C190.328 122.898 191.573 123.258 192.587 123.977C193.609 124.687 194.329 125.658 194.746 126.889H194.973C195.456 125.677 196.27 124.711 197.416 123.991C198.571 123.262 199.94 122.898 201.521 122.898C203.529 122.898 205.167 123.532 206.436 124.801C207.705 126.07 208.339 127.921 208.339 130.355V145H203.183V131.151C203.183 129.796 202.823 128.807 202.104 128.182C201.384 127.547 200.503 127.23 199.462 127.23C198.221 127.23 197.25 127.618 196.55 128.395C195.858 129.162 195.513 130.161 195.513 131.392V145H190.47V130.938C190.47 129.811 190.129 128.911 189.447 128.239C188.775 127.566 187.894 127.23 186.805 127.23C186.067 127.23 185.394 127.42 184.788 127.798C184.182 128.168 183.699 128.693 183.339 129.375C182.98 130.047 182.8 130.833 182.8 131.733V145H177.658ZM223.215 145.426C221.028 145.426 219.138 144.972 217.548 144.062C215.966 143.144 214.749 141.847 213.897 140.17C213.045 138.485 212.619 136.501 212.619 134.219C212.619 131.974 213.045 130.005 213.897 128.31C214.759 126.605 215.961 125.279 217.505 124.332C219.049 123.376 220.862 122.898 222.945 122.898C224.29 122.898 225.559 123.116 226.752 123.551C227.955 123.977 229.015 124.64 229.934 125.54C230.862 126.439 231.591 127.585 232.121 128.977C232.652 130.36 232.917 132.008 232.917 133.92V135.497H215.033V132.031H227.988C227.978 131.046 227.765 130.17 227.349 129.403C226.932 128.627 226.35 128.016 225.602 127.571C224.863 127.126 224.001 126.903 223.016 126.903C221.965 126.903 221.042 127.159 220.246 127.67C219.451 128.172 218.831 128.835 218.386 129.659C217.95 130.473 217.728 131.368 217.718 132.344V135.369C217.718 136.638 217.95 137.727 218.414 138.636C218.878 139.536 219.527 140.227 220.36 140.71C221.193 141.184 222.169 141.42 223.286 141.42C224.034 141.42 224.711 141.316 225.317 141.108C225.924 140.89 226.449 140.573 226.894 140.156C227.339 139.74 227.675 139.223 227.903 138.608L232.704 139.148C232.401 140.417 231.823 141.525 230.971 142.472C230.128 143.409 229.049 144.138 227.732 144.659C226.416 145.17 224.91 145.426 223.215 145.426ZM242.409 132.216V145H237.267V123.182H242.182V126.889H242.438C242.939 125.668 243.74 124.697 244.838 123.977C245.946 123.258 247.314 122.898 248.943 122.898C250.449 122.898 251.76 123.22 252.878 123.864C254.005 124.508 254.876 125.44 255.491 126.662C256.116 127.884 256.424 129.366 256.415 131.108V145H251.273V131.903C251.273 130.445 250.894 129.304 250.136 128.48C249.388 127.656 248.351 127.244 247.026 127.244C246.126 127.244 245.326 127.443 244.625 127.841C243.934 128.229 243.389 128.793 242.991 129.531C242.603 130.27 242.409 131.165 242.409 132.216ZM272.537 123.182V127.159H259.994V123.182H272.537ZM263.091 117.955H268.233V138.438C268.233 139.129 268.337 139.659 268.545 140.028C268.763 140.388 269.047 140.634 269.398 140.767C269.748 140.9 270.136 140.966 270.562 140.966C270.884 140.966 271.178 140.942 271.443 140.895C271.718 140.848 271.926 140.805 272.068 140.767L272.935 144.787C272.66 144.882 272.267 144.986 271.756 145.099C271.254 145.213 270.638 145.279 269.909 145.298C268.621 145.336 267.461 145.142 266.429 144.716C265.397 144.28 264.578 143.608 263.972 142.699C263.375 141.79 263.081 140.653 263.091 139.29V117.955ZM293.769 128.949L289.082 129.46C288.949 128.987 288.717 128.542 288.386 128.125C288.064 127.708 287.628 127.372 287.079 127.116C286.53 126.861 285.857 126.733 285.062 126.733C283.992 126.733 283.092 126.965 282.363 127.429C281.643 127.893 281.288 128.494 281.298 129.233C281.288 129.867 281.52 130.384 281.994 130.781C282.477 131.179 283.272 131.506 284.38 131.761L288.102 132.557C290.166 133.002 291.7 133.707 292.704 134.673C293.717 135.639 294.228 136.903 294.238 138.466C294.228 139.839 293.826 141.051 293.031 142.102C292.245 143.144 291.151 143.958 289.749 144.545C288.348 145.133 286.738 145.426 284.92 145.426C282.249 145.426 280.1 144.867 278.471 143.75C276.842 142.623 275.871 141.056 275.559 139.048L280.573 138.565C280.8 139.55 281.283 140.294 282.022 140.795C282.761 141.297 283.722 141.548 284.906 141.548C286.127 141.548 287.107 141.297 287.846 140.795C288.594 140.294 288.968 139.673 288.968 138.935C288.968 138.31 288.727 137.794 288.244 137.386C287.77 136.979 287.031 136.667 286.028 136.449L282.306 135.668C280.213 135.232 278.665 134.498 277.661 133.466C276.657 132.424 276.16 131.108 276.17 129.517C276.16 128.172 276.525 127.008 277.263 126.023C278.012 125.028 279.049 124.261 280.374 123.722C281.71 123.172 283.248 122.898 284.991 122.898C287.548 122.898 289.56 123.442 291.028 124.531C292.505 125.62 293.419 127.093 293.769 128.949Z" fill="white"/>
<path d="M44.2541 195.929C43.5952 195.929 42.9935 195.768 42.449 195.447C41.9045 195.12 41.4689 194.685 41.1422 194.14C40.821 193.596 40.6603 192.994 40.6603 192.335C40.6603 191.671 40.821 191.069 41.1422 190.53C41.4689 189.986 41.9045 189.553 42.449 189.232C42.9935 188.905 43.5952 188.741 44.2541 188.741C44.9184 188.741 45.5201 188.905 46.0591 189.232C46.6036 189.553 47.0365 189.986 47.3578 190.53C47.6845 191.069 47.8478 191.671 47.8478 192.335C47.8478 192.994 47.6845 193.596 47.3578 194.14C47.0365 194.685 46.6036 195.12 46.0591 195.447C45.5201 195.768 44.9184 195.929 44.2541 195.929ZM71.003 199H67.7686L73.6575 182.273H77.3983L83.2953 199H80.0609L75.5932 185.703H75.4625L71.003 199ZM71.1092 192.441H79.9302V194.875H71.1092V192.441ZM88.3245 182.273V199H85.3678V182.273H88.3245ZM94.3216 182.273V199H91.3649V182.273H94.3216ZM103.067 199V186.455H105.893V188.586H106.04C106.301 187.868 106.734 187.307 107.339 186.904C107.943 186.495 108.665 186.291 109.503 186.291C110.353 186.291 111.069 186.498 111.651 186.912C112.239 187.32 112.653 187.878 112.893 188.586H113.023C113.301 187.889 113.769 187.334 114.428 186.92C115.092 186.501 115.879 186.291 116.789 186.291C117.943 186.291 118.885 186.656 119.615 187.386C120.344 188.115 120.709 189.18 120.709 190.579V199H117.744V191.037C117.744 190.258 117.537 189.689 117.123 189.33C116.71 188.965 116.203 188.782 115.604 188.782C114.891 188.782 114.333 189.006 113.93 189.452C113.532 189.893 113.334 190.468 113.334 191.175V199H110.434V190.914C110.434 190.266 110.238 189.749 109.846 189.362C109.46 188.976 108.953 188.782 108.327 188.782C107.902 188.782 107.516 188.891 107.167 189.109C106.819 189.321 106.541 189.624 106.334 190.016C106.127 190.402 106.024 190.854 106.024 191.371V199H103.067ZM129.263 199.245C128.005 199.245 126.919 198.984 126.004 198.461C125.094 197.933 124.395 197.187 123.905 196.223C123.415 195.254 123.17 194.113 123.17 192.801C123.17 191.51 123.415 190.378 123.905 189.403C124.4 188.423 125.092 187.661 125.979 187.116C126.867 186.566 127.91 186.291 129.107 186.291C129.881 186.291 130.61 186.416 131.296 186.667C131.988 186.912 132.598 187.293 133.126 187.81C133.66 188.328 134.079 188.987 134.384 189.787C134.689 190.582 134.841 191.529 134.841 192.629V193.536H124.558V191.543H132.007C132.001 190.977 131.879 190.473 131.639 190.032C131.4 189.585 131.065 189.234 130.635 188.978C130.21 188.722 129.715 188.594 129.148 188.594C128.544 188.594 128.013 188.741 127.556 189.036C127.098 189.324 126.742 189.705 126.486 190.179C126.235 190.647 126.107 191.162 126.102 191.723V193.462C126.102 194.192 126.235 194.818 126.502 195.341C126.769 195.858 127.142 196.256 127.621 196.533C128.1 196.806 128.661 196.942 129.303 196.942C129.734 196.942 130.123 196.882 130.471 196.762C130.82 196.637 131.122 196.454 131.378 196.215C131.634 195.975 131.827 195.679 131.958 195.325L134.719 195.635C134.544 196.365 134.212 197.002 133.722 197.546C133.238 198.085 132.617 198.504 131.86 198.804C131.103 199.098 130.237 199.245 129.263 199.245ZM137.342 199V186.455H140.168V188.586H140.315C140.577 187.868 141.01 187.307 141.614 186.904C142.218 186.495 142.94 186.291 143.778 186.291C144.628 186.291 145.344 186.498 145.927 186.912C146.515 187.32 146.928 187.878 147.168 188.586H147.299C147.576 187.889 148.045 187.334 148.704 186.92C149.368 186.501 150.155 186.291 151.064 186.291C152.218 186.291 153.16 186.656 153.89 187.386C154.62 188.115 154.984 189.18 154.984 190.579V199H152.02V191.037C152.02 190.258 151.813 189.689 151.399 189.33C150.985 188.965 150.479 188.782 149.88 188.782C149.166 188.782 148.608 189.006 148.205 189.452C147.808 189.893 147.609 190.468 147.609 191.175V199H144.71V190.914C144.71 190.266 144.514 189.749 144.122 189.362C143.735 188.976 143.229 188.782 142.602 188.782C142.178 188.782 141.791 188.891 141.443 189.109C141.094 189.321 140.816 189.624 140.609 190.016C140.403 190.402 140.299 190.854 140.299 191.371V199H137.342ZM158.115 199V182.273H161.071V188.529H161.194C161.346 188.224 161.561 187.9 161.839 187.557C162.117 187.209 162.493 186.912 162.966 186.667C163.44 186.416 164.044 186.291 164.779 186.291C165.749 186.291 166.623 186.539 167.401 187.034C168.185 187.525 168.806 188.251 169.263 189.215C169.726 190.174 169.958 191.35 169.958 192.744C169.958 194.121 169.732 195.292 169.28 196.256C168.828 197.219 168.213 197.955 167.434 198.461C166.655 198.967 165.773 199.221 164.788 199.221C164.069 199.221 163.473 199.101 162.999 198.861C162.525 198.622 162.144 198.333 161.855 197.995C161.572 197.652 161.352 197.328 161.194 197.023H161.022V199H158.115ZM161.014 192.727C161.014 193.539 161.129 194.249 161.357 194.859C161.591 195.469 161.926 195.945 162.362 196.288C162.803 196.626 163.337 196.795 163.963 196.795C164.616 196.795 165.163 196.621 165.604 196.272C166.045 195.918 166.378 195.436 166.601 194.826C166.83 194.211 166.944 193.511 166.944 192.727C166.944 191.949 166.832 191.257 166.609 190.653C166.386 190.048 166.054 189.575 165.613 189.232C165.172 188.888 164.622 188.717 163.963 188.717C163.331 188.717 162.795 188.883 162.354 189.215C161.913 189.547 161.578 190.013 161.349 190.612C161.126 191.211 161.014 191.916 161.014 192.727ZM178.025 199.245C176.767 199.245 175.681 198.984 174.766 198.461C173.857 197.933 173.157 197.187 172.667 196.223C172.177 195.254 171.932 194.113 171.932 192.801C171.932 191.51 172.177 190.378 172.667 189.403C173.163 188.423 173.854 187.661 174.742 187.116C175.629 186.566 176.672 186.291 177.87 186.291C178.643 186.291 179.373 186.416 180.059 186.667C180.751 186.912 181.36 187.293 181.889 187.81C182.422 188.328 182.841 188.987 183.146 189.787C183.451 190.582 183.604 191.529 183.604 192.629V193.536H173.321V191.543H180.77C180.764 190.977 180.642 190.473 180.402 190.032C180.162 189.585 179.828 189.234 179.397 188.978C178.973 188.722 178.477 188.594 177.911 188.594C177.307 188.594 176.776 188.741 176.318 189.036C175.861 189.324 175.504 189.705 175.248 190.179C174.998 190.647 174.87 191.162 174.864 191.723V193.462C174.864 194.192 174.998 194.818 175.265 195.341C175.531 195.858 175.904 196.256 176.384 196.533C176.863 196.806 177.424 196.942 178.066 196.942C178.496 196.942 178.886 196.882 179.234 196.762C179.583 196.637 179.885 196.454 180.141 196.215C180.397 195.975 180.59 195.679 180.721 195.325L183.481 195.635C183.307 196.365 182.975 197.002 182.485 197.546C182 198.085 181.379 198.504 180.623 198.804C179.866 199.098 179 199.245 178.025 199.245ZM186.105 199V186.455H188.972V188.545H189.103C189.331 187.821 189.723 187.263 190.279 186.871C190.84 186.474 191.479 186.275 192.198 186.275C192.362 186.275 192.544 186.283 192.745 186.299C192.952 186.31 193.124 186.329 193.26 186.357V189.076C193.135 189.033 192.936 188.995 192.664 188.962C192.397 188.924 192.138 188.905 191.888 188.905C191.349 188.905 190.864 189.022 190.434 189.256C190.009 189.485 189.674 189.803 189.429 190.212C189.184 190.62 189.062 191.091 189.062 191.625V199H186.105ZM205.14 189.771L202.444 190.065C202.368 189.792 202.235 189.536 202.044 189.297C201.859 189.057 201.609 188.864 201.293 188.717C200.977 188.57 200.59 188.496 200.133 188.496C199.518 188.496 199 188.63 198.581 188.897C198.167 189.163 197.963 189.509 197.969 189.934C197.963 190.299 198.097 190.596 198.369 190.824C198.646 191.053 199.104 191.241 199.741 191.388L201.881 191.845C203.068 192.101 203.95 192.507 204.527 193.062C205.11 193.618 205.404 194.344 205.409 195.243C205.404 196.032 205.172 196.729 204.715 197.334C204.263 197.933 203.634 198.401 202.828 198.739C202.022 199.076 201.097 199.245 200.051 199.245C198.516 199.245 197.28 198.924 196.343 198.281C195.407 197.633 194.849 196.732 194.669 195.578L197.552 195.3C197.683 195.866 197.96 196.294 198.385 196.582C198.81 196.871 199.363 197.015 200.043 197.015C200.746 197.015 201.309 196.871 201.734 196.582C202.164 196.294 202.379 195.937 202.379 195.512C202.379 195.153 202.24 194.856 201.963 194.622C201.69 194.388 201.266 194.208 200.688 194.083L198.548 193.634C197.345 193.383 196.455 192.961 195.878 192.368C195.3 191.769 195.015 191.012 195.02 190.097C195.015 189.324 195.224 188.654 195.649 188.088C196.079 187.516 196.675 187.075 197.438 186.765C198.205 186.449 199.09 186.291 200.092 186.291C201.562 186.291 202.719 186.604 203.563 187.23C204.413 187.857 204.938 188.703 205.14 189.771ZM213.552 199V186.455H216.378V188.586H216.525C216.787 187.868 217.22 187.307 217.824 186.904C218.428 186.495 219.15 186.291 219.988 186.291C220.838 186.291 221.554 186.498 222.137 186.912C222.725 187.32 223.138 187.878 223.378 188.586H223.509C223.786 187.889 224.255 187.334 224.914 186.92C225.578 186.501 226.365 186.291 227.274 186.291C228.428 186.291 229.37 186.656 230.1 187.386C230.83 188.115 231.194 189.18 231.194 190.579V199H228.23V191.037C228.23 190.258 228.023 189.689 227.609 189.33C227.195 188.965 226.689 188.782 226.09 188.782C225.376 188.782 224.818 189.006 224.415 189.452C224.018 189.893 223.819 190.468 223.819 191.175V199H220.92V190.914C220.92 190.266 220.724 189.749 220.331 189.362C219.945 188.976 219.439 188.782 218.812 188.782C218.388 188.782 218.001 188.891 217.653 189.109C217.304 189.321 217.026 189.624 216.819 190.016C216.613 190.402 216.509 190.854 216.509 191.371V199H213.552ZM242.19 193.724V186.455H245.147V199H242.28V196.77H242.149C241.866 197.473 241.401 198.047 240.753 198.494C240.11 198.94 239.318 199.163 238.376 199.163C237.554 199.163 236.827 198.981 236.195 198.616C235.569 198.246 235.079 197.71 234.725 197.007C234.371 196.299 234.194 195.444 234.194 194.442V186.455H237.151V193.985C237.151 194.78 237.368 195.412 237.804 195.88C238.24 196.348 238.811 196.582 239.519 196.582C239.955 196.582 240.377 196.476 240.785 196.264C241.194 196.051 241.528 195.736 241.79 195.316C242.057 194.892 242.19 194.361 242.19 193.724ZM258.103 189.771L255.407 190.065C255.331 189.792 255.198 189.536 255.007 189.297C254.822 189.057 254.571 188.864 254.256 188.717C253.94 188.57 253.553 188.496 253.096 188.496C252.481 188.496 251.963 188.63 251.544 188.897C251.13 189.163 250.926 189.509 250.931 189.934C250.926 190.299 251.059 190.596 251.332 190.824C251.609 191.053 252.067 191.241 252.704 191.388L254.844 191.845C256.031 192.101 256.913 192.507 257.49 193.062C258.073 193.618 258.367 194.344 258.372 195.243C258.367 196.032 258.135 196.729 257.678 197.334C257.226 197.933 256.597 198.401 255.791 198.739C254.985 199.076 254.06 199.245 253.014 199.245C251.479 199.245 250.243 198.924 249.306 198.281C248.37 197.633 247.811 196.732 247.632 195.578L250.515 195.3C250.646 195.866 250.923 196.294 251.348 196.582C251.773 196.871 252.325 197.015 253.006 197.015C253.708 197.015 254.272 196.871 254.697 196.582C255.127 196.294 255.342 195.937 255.342 195.512C255.342 195.153 255.203 194.856 254.925 194.622C254.653 194.388 254.228 194.208 253.651 194.083L251.511 193.634C250.308 193.383 249.418 192.961 248.841 192.368C248.263 191.769 247.978 191.012 247.983 190.097C247.978 189.324 248.187 188.654 248.612 188.088C249.042 187.516 249.638 187.075 250.401 186.765C251.168 186.449 252.053 186.291 253.055 186.291C254.525 186.291 255.682 186.604 256.526 187.23C257.376 187.857 257.901 188.703 258.103 189.771ZM267.075 186.455V188.741H259.863V186.455H267.075ZM261.643 183.449H264.6V195.227C264.6 195.624 264.66 195.929 264.78 196.141C264.905 196.348 265.068 196.49 265.27 196.566C265.471 196.642 265.694 196.68 265.939 196.68C266.125 196.68 266.293 196.667 266.446 196.64C266.604 196.612 266.724 196.588 266.805 196.566L267.303 198.877C267.146 198.932 266.92 198.992 266.626 199.057C266.337 199.123 265.983 199.161 265.564 199.172C264.823 199.193 264.156 199.082 263.563 198.837C262.969 198.586 262.498 198.2 262.15 197.677C261.807 197.154 261.638 196.501 261.643 195.717V183.449ZM275.383 199V182.273H278.34V188.529H278.462C278.615 188.224 278.83 187.9 279.108 187.557C279.385 187.209 279.761 186.912 280.235 186.667C280.709 186.416 281.313 186.291 282.048 186.291C283.017 186.291 283.891 186.539 284.67 187.034C285.454 187.525 286.075 188.251 286.532 189.215C286.995 190.174 287.226 191.35 287.226 192.744C287.226 194.121 287 195.292 286.548 196.256C286.096 197.219 285.481 197.955 284.703 198.461C283.924 198.967 283.042 199.221 282.056 199.221C281.337 199.221 280.741 199.101 280.267 198.861C279.794 198.622 279.413 198.333 279.124 197.995C278.841 197.652 278.62 197.328 278.462 197.023H278.291V199H275.383ZM278.283 192.727C278.283 193.539 278.397 194.249 278.626 194.859C278.86 195.469 279.195 195.945 279.63 196.288C280.071 196.626 280.605 196.795 281.231 196.795C281.885 196.795 282.432 196.621 282.873 196.272C283.314 195.918 283.646 195.436 283.869 194.826C284.098 194.211 284.212 193.511 284.212 192.727C284.212 191.949 284.101 191.257 283.878 190.653C283.654 190.048 283.322 189.575 282.881 189.232C282.44 188.888 281.89 188.717 281.231 188.717C280.6 188.717 280.063 188.883 279.622 189.215C279.181 189.547 278.846 190.013 278.618 190.612C278.394 191.211 278.283 191.916 278.283 192.727ZM295.294 199.245C294.036 199.245 292.95 198.984 292.035 198.461C291.126 197.933 290.426 197.187 289.936 196.223C289.446 195.254 289.201 194.113 289.201 192.801C289.201 191.51 289.446 190.378 289.936 189.403C290.431 188.423 291.123 187.661 292.01 187.116C292.898 186.566 293.941 186.291 295.139 186.291C295.912 186.291 296.642 186.416 297.328 186.667C298.019 186.912 298.629 187.293 299.157 187.81C299.691 188.328 300.11 188.987 300.415 189.787C300.72 190.582 300.872 191.529 300.872 192.629V193.536H290.589V191.543H298.038C298.033 190.977 297.91 190.473 297.671 190.032C297.431 189.585 297.096 189.234 296.666 188.978C296.241 188.722 295.746 188.594 295.18 188.594C294.575 188.594 294.044 188.741 293.587 189.036C293.129 189.324 292.773 189.705 292.517 190.179C292.266 190.647 292.138 191.162 292.133 191.723V193.462C292.133 194.192 292.266 194.818 292.533 195.341C292.8 195.858 293.173 196.256 293.652 196.533C294.131 196.806 294.692 196.942 295.335 196.942C295.765 196.942 296.154 196.882 296.503 196.762C296.851 196.637 297.153 196.454 297.409 196.215C297.665 195.975 297.858 195.679 297.989 195.325L300.75 195.635C300.576 196.365 300.243 197.002 299.753 197.546C299.269 198.085 298.648 198.504 297.891 198.804C297.134 199.098 296.269 199.245 295.294 199.245ZM314.535 203.966C313.473 203.966 312.561 203.822 311.799 203.533C311.036 203.25 310.424 202.869 309.961 202.39C309.498 201.91 309.177 201.379 308.997 200.797L311.66 200.152C311.78 200.397 311.954 200.639 312.182 200.879C312.411 201.124 312.719 201.325 313.105 201.483C313.497 201.646 313.99 201.728 314.584 201.728C315.422 201.728 316.117 201.524 316.666 201.115C317.216 200.712 317.491 200.048 317.491 199.123V196.746H317.344C317.192 197.051 316.969 197.364 316.675 197.685C316.386 198.006 316.002 198.276 315.523 198.494C315.049 198.711 314.453 198.82 313.734 198.82C312.771 198.82 311.897 198.594 311.112 198.142C310.334 197.685 309.713 197.004 309.25 196.1C308.793 195.191 308.564 194.053 308.564 192.686C308.564 191.309 308.793 190.146 309.25 189.199C309.713 188.246 310.337 187.525 311.121 187.034C311.905 186.539 312.779 186.291 313.742 186.291C314.478 186.291 315.082 186.416 315.556 186.667C316.035 186.912 316.416 187.209 316.699 187.557C316.982 187.9 317.197 188.224 317.344 188.529H317.508V186.455H320.424V199.204C320.424 200.277 320.168 201.164 319.656 201.867C319.144 202.569 318.444 203.095 317.557 203.443C316.669 203.792 315.662 203.966 314.535 203.966ZM314.559 196.501C315.185 196.501 315.719 196.348 316.16 196.043C316.601 195.738 316.936 195.3 317.165 194.728C317.393 194.157 317.508 193.471 317.508 192.67C317.508 191.881 317.393 191.189 317.165 190.596C316.941 190.002 316.609 189.542 316.168 189.215C315.733 188.883 315.196 188.717 314.559 188.717C313.9 188.717 313.35 188.888 312.909 189.232C312.468 189.575 312.136 190.046 311.913 190.645C311.69 191.238 311.578 191.913 311.578 192.67C311.578 193.438 311.69 194.11 311.913 194.688C312.142 195.259 312.476 195.706 312.918 196.027C313.364 196.343 313.911 196.501 314.559 196.501ZM323.454 199V186.455H326.41V199H323.454ZM324.94 184.674C324.472 184.674 324.069 184.519 323.731 184.208C323.394 183.893 323.225 183.514 323.225 183.073C323.225 182.627 323.394 182.248 323.731 181.938C324.069 181.622 324.472 181.464 324.94 181.464C325.414 181.464 325.817 181.622 326.149 181.938C326.487 182.248 326.655 182.627 326.655 183.073C326.655 183.514 326.487 183.893 326.149 184.208C325.817 184.519 325.414 184.674 324.94 184.674ZM329.451 199V186.455H332.318V188.545H332.448C332.677 187.821 333.069 187.263 333.624 186.871C334.185 186.474 334.825 186.275 335.544 186.275C335.707 186.275 335.89 186.283 336.091 186.299C336.298 186.31 336.47 186.329 336.606 186.357V189.076C336.48 189.033 336.282 188.995 336.009 188.962C335.743 188.924 335.484 188.905 335.233 188.905C334.694 188.905 334.21 189.022 333.78 189.256C333.355 189.485 333.02 189.803 332.775 190.212C332.53 190.62 332.407 191.091 332.407 191.625V199H329.451ZM341.527 182.273V199H338.57V182.273H341.527ZM354.483 189.771L351.787 190.065C351.711 189.792 351.578 189.536 351.387 189.297C351.202 189.057 350.951 188.864 350.636 188.717C350.32 188.57 349.933 188.496 349.476 188.496C348.86 188.496 348.343 188.63 347.924 188.897C347.51 189.163 347.306 189.509 347.311 189.934C347.306 190.299 347.439 190.596 347.712 190.824C347.989 191.053 348.447 191.241 349.084 191.388L351.224 191.845C352.411 192.101 353.293 192.507 353.87 193.062C354.453 193.618 354.747 194.344 354.752 195.243C354.747 196.032 354.515 196.729 354.058 197.334C353.606 197.933 352.977 198.401 352.171 198.739C351.365 199.076 350.44 199.245 349.394 199.245C347.859 199.245 346.623 198.924 345.686 198.281C344.749 197.633 344.191 196.732 344.012 195.578L346.895 195.3C347.025 195.866 347.303 196.294 347.728 196.582C348.153 196.871 348.705 197.015 349.386 197.015C350.088 197.015 350.652 196.871 351.077 196.582C351.507 196.294 351.722 195.937 351.722 195.512C351.722 195.153 351.583 194.856 351.305 194.622C351.033 194.388 350.608 194.208 350.031 194.083L347.891 193.634C346.688 193.383 345.798 192.961 345.22 192.368C344.643 191.769 344.357 191.012 344.363 190.097C344.357 189.324 344.567 188.654 344.992 188.088C345.422 187.516 346.018 187.075 346.78 186.765C347.548 186.449 348.433 186.291 349.435 186.291C350.905 186.291 352.062 186.604 352.906 187.23C353.756 187.857 354.281 188.703 354.483 189.771ZM44.2541 246.929C43.5952 246.929 42.9935 246.768 42.449 246.447C41.9045 246.12 41.4689 245.685 41.1422 245.14C40.821 244.596 40.6603 243.994 40.6603 243.335C40.6603 242.671 40.821 242.069 41.1422 241.53C41.4689 240.986 41.9045 240.553 42.449 240.232C42.9935 239.905 43.5952 239.741 44.2541 239.741C44.9184 239.741 45.5201 239.905 46.0591 240.232C46.6036 240.553 47.0365 240.986 47.3578 241.53C47.6845 242.069 47.8478 242.671 47.8478 243.335C47.8478 243.994 47.6845 244.596 47.3578 245.14C47.0365 245.685 46.6036 246.12 46.0591 246.447C45.5201 246.768 44.9184 246.929 44.2541 246.929ZM77.4677 238.917H74.413C74.3259 238.416 74.1652 237.972 73.9311 237.585C73.697 237.193 73.4057 236.861 73.0572 236.589C72.7087 236.317 72.3112 236.112 71.8647 235.976C71.4237 235.835 70.9472 235.764 70.4354 235.764C69.526 235.764 68.7202 235.993 68.0178 236.45C67.3153 236.902 66.7654 237.566 66.3679 238.443C65.9704 239.314 65.7717 240.379 65.7717 241.636C65.7717 242.916 65.9704 243.994 66.3679 244.871C66.7708 245.742 67.3208 246.401 68.0178 246.847C68.7202 247.288 69.5233 247.509 70.4272 247.509C70.9281 247.509 71.3964 247.444 71.832 247.313C72.2731 247.177 72.6679 246.978 73.0163 246.717C73.3703 246.455 73.667 246.134 73.9066 245.753C74.1516 245.372 74.3204 244.936 74.413 244.446L77.4677 244.462C77.3533 245.257 77.1056 246.003 76.7244 246.7C76.3487 247.397 75.8559 248.013 75.2461 248.546C74.6362 249.074 73.9229 249.488 73.1062 249.788C72.2894 250.082 71.3828 250.229 70.3864 250.229C68.9162 250.229 67.6039 249.888 66.4496 249.208C65.2952 248.527 64.3859 247.544 63.7216 246.259C63.0573 244.974 62.7251 243.433 62.7251 241.636C62.7251 239.834 63.06 238.293 63.7298 237.013C64.3995 235.728 65.3116 234.746 66.4659 234.065C67.6203 233.384 68.9271 233.044 70.3864 233.044C71.3175 233.044 72.1832 233.175 72.9837 233.436C73.7841 233.697 74.4974 234.081 75.1236 234.588C75.7498 235.089 76.2643 235.704 76.6673 236.434C77.0756 237.158 77.3424 237.985 77.4677 238.917ZM80.1119 250V237.455H82.9788V239.545H83.1095C83.3382 238.821 83.7302 238.263 84.2856 237.871C84.8464 237.474 85.4862 237.275 86.205 237.275C86.3683 237.275 86.5508 237.283 86.7522 237.299C86.9591 237.31 87.1307 237.329 87.2668 237.357V240.076C87.1415 240.033 86.9428 239.995 86.6705 239.962C86.4037 239.924 86.1451 239.905 85.8946 239.905C85.3556 239.905 84.8709 240.022 84.4408 240.256C84.0161 240.485 83.6812 240.803 83.4362 241.212C83.1911 241.62 83.0686 242.091 83.0686 242.625V250H80.1119ZM94.2685 250.245C93.0107 250.245 91.9244 249.984 91.0096 249.461C90.1003 248.933 89.4006 248.187 88.9105 247.223C88.4205 246.254 88.1754 245.113 88.1754 243.801C88.1754 242.51 88.4205 241.378 88.9105 240.403C89.406 239.423 90.0975 238.661 90.9851 238.116C91.8726 237.566 92.9154 237.291 94.1133 237.291C94.8865 237.291 95.6161 237.416 96.3022 237.667C96.9937 237.912 97.6036 238.293 98.1317 238.81C98.6654 239.328 99.0846 239.987 99.3896 240.787C99.6945 241.582 99.8469 242.529 99.8469 243.629V244.536H89.5639V242.543H97.0128C97.0073 241.977 96.8848 241.473 96.6452 241.032C96.4057 240.585 96.0708 240.234 95.6406 239.978C95.2159 239.722 94.7204 239.594 94.1541 239.594C93.5497 239.594 93.0188 239.741 92.5614 240.036C92.104 240.324 91.7474 240.705 91.4915 241.179C91.241 241.647 91.113 242.162 91.1076 242.723V244.462C91.1076 245.192 91.241 245.818 91.5078 246.341C91.7746 246.858 92.1476 247.256 92.6268 247.533C93.1059 247.806 93.6668 247.942 94.3093 247.942C94.7395 247.942 95.1288 247.882 95.4773 247.762C95.8258 247.637 96.128 247.454 96.3839 247.215C96.6398 246.975 96.8331 246.679 96.9638 246.325L99.7244 246.635C99.5502 247.365 99.218 248.002 98.728 248.546C98.2434 249.085 97.6226 249.504 96.8658 249.804C96.1089 250.098 95.2431 250.245 94.2685 250.245ZM105.958 250.253C105.163 250.253 104.447 250.112 103.81 249.828C103.179 249.54 102.678 249.115 102.307 248.554C101.943 247.993 101.76 247.302 101.76 246.48C101.76 245.772 101.891 245.187 102.152 244.724C102.414 244.261 102.77 243.891 103.222 243.613C103.674 243.335 104.183 243.126 104.75 242.984C105.321 242.837 105.912 242.731 106.522 242.665C107.257 242.589 107.853 242.521 108.311 242.461C108.768 242.396 109.1 242.298 109.307 242.167C109.519 242.031 109.626 241.821 109.626 241.538V241.489C109.626 240.874 109.443 240.398 109.078 240.06C108.714 239.722 108.188 239.554 107.502 239.554C106.778 239.554 106.203 239.712 105.779 240.027C105.359 240.343 105.076 240.716 104.929 241.146L102.169 240.754C102.386 239.992 102.746 239.355 103.247 238.843C103.748 238.326 104.36 237.939 105.084 237.683C105.809 237.422 106.609 237.291 107.486 237.291C108.09 237.291 108.692 237.362 109.291 237.504C109.89 237.645 110.437 237.879 110.932 238.206C111.428 238.527 111.825 238.966 112.125 239.521C112.43 240.076 112.582 240.771 112.582 241.604V250H109.74V248.277H109.642C109.462 248.625 109.209 248.952 108.882 249.257C108.561 249.556 108.155 249.799 107.665 249.984C107.181 250.163 106.612 250.253 105.958 250.253ZM106.726 248.081C107.32 248.081 107.834 247.964 108.27 247.729C108.705 247.49 109.04 247.174 109.274 246.782C109.514 246.39 109.634 245.962 109.634 245.5V244.021C109.541 244.098 109.383 244.168 109.16 244.234C108.942 244.299 108.697 244.356 108.425 244.405C108.153 244.454 107.883 244.498 107.616 244.536C107.35 244.574 107.118 244.607 106.922 244.634C106.481 244.694 106.086 244.792 105.738 244.928C105.389 245.064 105.114 245.255 104.913 245.5C104.711 245.739 104.611 246.05 104.611 246.431C104.611 246.975 104.809 247.386 105.207 247.664C105.604 247.942 106.111 248.081 106.726 248.081ZM121.82 237.455V239.741H114.608V237.455H121.82ZM116.388 234.449H119.345V246.227C119.345 246.624 119.405 246.929 119.525 247.141C119.65 247.348 119.813 247.49 120.015 247.566C120.216 247.642 120.44 247.68 120.685 247.68C120.87 247.68 121.039 247.667 121.191 247.64C121.349 247.612 121.469 247.588 121.55 247.566L122.049 249.877C121.891 249.932 121.665 249.992 121.371 250.057C121.082 250.123 120.728 250.161 120.309 250.172C119.568 250.193 118.901 250.082 118.308 249.837C117.714 249.586 117.243 249.2 116.895 248.677C116.552 248.154 116.383 247.501 116.388 246.717V234.449ZM124.293 250V237.455H127.249V250H124.293ZM125.779 235.674C125.311 235.674 124.908 235.519 124.57 235.208C124.233 234.893 124.064 234.514 124.064 234.073C124.064 233.627 124.233 233.248 124.57 232.938C124.908 232.622 125.311 232.464 125.779 232.464C126.253 232.464 126.656 232.622 126.988 232.938C127.326 233.248 127.494 233.627 127.494 234.073C127.494 234.514 127.326 234.893 126.988 235.208C126.656 235.519 126.253 235.674 125.779 235.674ZM141.496 237.455L137.028 250H133.761L129.293 237.455H132.446L135.329 246.774H135.46L138.351 237.455H141.496ZM148.669 250.245C147.411 250.245 146.325 249.984 145.41 249.461C144.501 248.933 143.801 248.187 143.311 247.223C142.821 246.254 142.576 245.113 142.576 243.801C142.576 242.51 142.821 241.378 143.311 240.403C143.806 239.423 144.498 238.661 145.385 238.116C146.273 237.566 147.316 237.291 148.514 237.291C149.287 237.291 150.017 237.416 150.703 237.667C151.394 237.912 152.004 238.293 152.532 238.81C153.066 239.328 153.485 239.987 153.79 240.787C154.095 241.582 154.247 242.529 154.247 243.629V244.536H143.964V242.543H151.413C151.408 241.977 151.285 241.473 151.046 241.032C150.806 240.585 150.471 240.234 150.041 239.978C149.616 239.722 149.121 239.594 148.555 239.594C147.95 239.594 147.419 239.741 146.962 240.036C146.504 240.324 146.148 240.705 145.892 241.179C145.641 241.647 145.513 242.162 145.508 242.723V244.462C145.508 245.192 145.641 245.818 145.908 246.341C146.175 246.858 146.548 247.256 147.027 247.533C147.506 247.806 148.067 247.942 148.71 247.942C149.14 247.942 149.529 247.882 149.878 247.762C150.226 247.637 150.528 247.454 150.784 247.215C151.04 246.975 151.233 246.679 151.364 246.325L154.125 246.635C153.951 247.365 153.618 248.002 153.128 248.546C152.644 249.085 152.023 249.504 151.266 249.804C150.509 250.098 149.644 250.245 148.669 250.245ZM168.718 237.455V239.741H161.506V237.455H168.718ZM163.287 234.449H166.244V246.227C166.244 246.624 166.303 246.929 166.423 247.141C166.548 247.348 166.712 247.49 166.913 247.566C167.115 247.642 167.338 247.68 167.583 247.68C167.768 247.68 167.937 247.667 168.089 247.64C168.247 247.612 168.367 247.588 168.449 247.566L168.947 249.877C168.789 249.932 168.563 249.992 168.269 250.057C167.98 250.123 167.627 250.161 167.207 250.172C166.467 250.193 165.8 250.082 165.206 249.837C164.613 249.586 164.142 249.2 163.793 248.677C163.45 248.154 163.281 247.501 163.287 246.717V234.449ZM174.417 242.649V250H171.461V233.273H174.352V239.586H174.499C174.793 238.878 175.248 238.32 175.863 237.912C176.484 237.498 177.273 237.291 178.232 237.291C179.103 237.291 179.862 237.474 180.51 237.838C181.158 238.203 181.659 238.737 182.013 239.439C182.373 240.142 182.552 240.999 182.552 242.012V250H179.596V242.469C179.596 241.625 179.378 240.969 178.942 240.501C178.512 240.027 177.908 239.79 177.129 239.79C176.606 239.79 176.138 239.905 175.724 240.134C175.316 240.357 174.994 240.681 174.76 241.105C174.532 241.53 174.417 242.045 174.417 242.649ZM185.566 250V237.455H188.523V250H185.566ZM187.053 235.674C186.584 235.674 186.181 235.519 185.844 235.208C185.506 234.893 185.337 234.514 185.337 234.073C185.337 233.627 185.506 233.248 185.844 232.938C186.181 232.622 186.584 232.464 187.053 232.464C187.526 232.464 187.929 232.622 188.261 232.938C188.599 233.248 188.768 233.627 188.768 234.073C188.768 234.514 188.599 234.893 188.261 235.208C187.929 235.519 187.526 235.674 187.053 235.674ZM194.52 242.649V250H191.563V237.455H194.389V239.586H194.536C194.825 238.884 195.285 238.326 195.916 237.912C196.554 237.498 197.34 237.291 198.277 237.291C199.143 237.291 199.897 237.476 200.539 237.847C201.187 238.217 201.688 238.753 202.042 239.456C202.402 240.158 202.579 241.01 202.573 242.012V250H199.616V242.469C199.616 241.631 199.399 240.975 198.963 240.501C198.533 240.027 197.937 239.79 197.174 239.79C196.657 239.79 196.197 239.905 195.794 240.134C195.396 240.357 195.083 240.681 194.855 241.105C194.631 241.53 194.52 242.045 194.52 242.649ZM208.274 246.063L208.266 242.494H208.74L213.248 237.455H216.703L211.157 243.629H210.545L208.274 246.063ZM205.579 250V233.273H208.535V250H205.579ZM213.452 250L209.369 244.291L211.361 242.208L216.989 250H213.452ZM218.673 250V237.455H221.63V250H218.673ZM220.16 235.674C219.692 235.674 219.289 235.519 218.951 235.208C218.614 234.893 218.445 234.514 218.445 234.073C218.445 233.627 218.614 233.248 218.951 232.938C219.289 232.622 219.692 232.464 220.16 232.464C220.634 232.464 221.037 232.622 221.369 232.938C221.706 233.248 221.875 233.627 221.875 234.073C221.875 234.514 221.706 234.893 221.369 235.208C221.037 235.519 220.634 235.674 220.16 235.674ZM227.627 242.649V250H224.671V237.455H227.497V239.586H227.644C227.932 238.884 228.392 238.326 229.024 237.912C229.661 237.498 230.448 237.291 231.384 237.291C232.25 237.291 233.004 237.476 233.647 237.847C234.295 238.217 234.796 238.753 235.15 239.456C235.509 240.158 235.686 241.01 235.68 242.012V250H232.724V242.469C232.724 241.631 232.506 240.975 232.07 240.501C231.64 240.027 231.044 239.79 230.282 239.79C229.764 239.79 229.304 239.905 228.901 240.134C228.504 240.357 228.191 240.681 227.962 241.105C227.739 241.53 227.627 242.045 227.627 242.649ZM244.142 254.966C243.08 254.966 242.168 254.822 241.406 254.533C240.644 254.25 240.031 253.869 239.568 253.39C239.105 252.91 238.784 252.379 238.604 251.797L241.267 251.152C241.387 251.397 241.561 251.639 241.79 251.879C242.019 252.124 242.326 252.325 242.713 252.483C243.105 252.646 243.598 252.728 244.191 252.728C245.03 252.728 245.724 252.524 246.274 252.115C246.824 251.712 247.099 251.048 247.099 250.123V247.746H246.952C246.799 248.051 246.576 248.364 246.282 248.685C245.993 249.006 245.61 249.276 245.13 249.494C244.657 249.711 244.06 249.82 243.342 249.82C242.378 249.82 241.504 249.594 240.72 249.142C239.941 248.685 239.321 248.004 238.858 247.1C238.4 246.191 238.172 245.053 238.172 243.686C238.172 242.309 238.4 241.146 238.858 240.199C239.321 239.246 239.944 238.525 240.728 238.034C241.512 237.539 242.386 237.291 243.35 237.291C244.085 237.291 244.689 237.416 245.163 237.667C245.642 237.912 246.023 238.209 246.307 238.557C246.59 238.9 246.805 239.224 246.952 239.529H247.115V237.455H250.031V250.204C250.031 251.277 249.775 252.164 249.263 252.867C248.751 253.569 248.052 254.095 247.164 254.443C246.277 254.792 245.269 254.966 244.142 254.966ZM244.167 247.501C244.793 247.501 245.326 247.348 245.767 247.043C246.209 246.738 246.543 246.3 246.772 245.728C247.001 245.157 247.115 244.471 247.115 243.67C247.115 242.881 247.001 242.189 246.772 241.596C246.549 241.002 246.217 240.542 245.776 240.215C245.34 239.883 244.804 239.717 244.167 239.717C243.508 239.717 242.958 239.888 242.517 240.232C242.076 240.575 241.744 241.046 241.52 241.645C241.297 242.238 241.185 242.913 241.185 243.67C241.185 244.438 241.297 245.11 241.52 245.688C241.749 246.259 242.084 246.706 242.525 247.027C242.971 247.343 243.519 247.501 244.167 247.501ZM44.2541 297.929C43.5952 297.929 42.9935 297.768 42.449 297.447C41.9045 297.12 41.4689 296.685 41.1422 296.14C40.821 295.596 40.6603 294.994 40.6603 294.335C40.6603 293.671 40.821 293.069 41.1422 292.53C41.4689 291.986 41.9045 291.553 42.449 291.232C42.9935 290.905 43.5952 290.741 44.2541 290.741C44.9184 290.741 45.5201 290.905 46.0591 291.232C46.6036 291.553 47.0365 291.986 47.3578 292.53C47.6845 293.069 47.8478 293.671 47.8478 294.335C47.8478 294.994 47.6845 295.596 47.3578 296.14C47.0365 296.685 46.6036 297.12 46.0591 297.447C45.5201 297.768 44.9184 297.929 44.2541 297.929ZM63.1499 301V284.273H69.4226C70.7076 284.273 71.7857 284.512 72.657 284.991C73.5336 285.471 74.1952 286.129 74.6417 286.968C75.0936 287.801 75.3196 288.749 75.3196 289.81C75.3196 290.883 75.0936 291.836 74.6417 292.669C74.1897 293.502 73.5227 294.158 72.6406 294.637C71.7585 295.111 70.6722 295.348 69.3817 295.348H65.2244V292.857H68.9734C69.7248 292.857 70.3401 292.726 70.8192 292.465C71.2984 292.203 71.6523 291.844 71.881 291.387C72.1152 290.929 72.2322 290.404 72.2322 289.81C72.2322 289.217 72.1152 288.694 71.881 288.242C71.6523 287.79 71.2957 287.439 70.8111 287.189C70.3319 286.933 69.7139 286.805 68.957 286.805H66.18V301H63.1499ZM77.8209 301V288.455H80.6878V290.545H80.8184C81.0471 289.821 81.4392 289.263 81.9946 288.871C82.5554 288.474 83.1952 288.275 83.914 288.275C84.0773 288.275 84.2597 288.283 84.4612 288.299C84.6681 288.31 84.8396 288.329 84.9758 288.357V291.076C84.8505 291.033 84.6518 290.995 84.3795 290.962C84.1127 290.924 83.8541 290.905 83.6036 290.905C83.0645 290.905 82.5799 291.022 82.1498 291.256C81.7251 291.485 81.3902 291.803 81.1452 292.212C80.9001 292.62 80.7776 293.091 80.7776 293.625V301H77.8209ZM90.3256 301.253C89.5306 301.253 88.8145 301.112 88.1775 300.828C87.5458 300.54 87.0449 300.115 86.6746 299.554C86.3098 298.993 86.1274 298.302 86.1274 297.48C86.1274 296.772 86.2581 296.187 86.5194 295.724C86.7808 295.261 87.1375 294.891 87.5894 294.613C88.0413 294.335 88.5505 294.126 89.1167 293.984C89.6885 293.837 90.2793 293.731 90.8891 293.665C91.6242 293.589 92.2204 293.521 92.6778 293.461C93.1352 293.396 93.4674 293.298 93.6743 293.167C93.8866 293.031 93.9928 292.821 93.9928 292.538V292.489C93.9928 291.874 93.8104 291.398 93.4456 291.06C93.0808 290.722 92.5553 290.554 91.8692 290.554C91.145 290.554 90.5706 290.712 90.1459 291.027C89.7266 291.343 89.4434 291.716 89.2964 292.146L86.5358 291.754C86.7536 290.992 87.113 290.355 87.6139 289.843C88.1148 289.326 88.7274 288.939 89.4516 288.683C90.1758 288.422 90.9762 288.291 91.8529 288.291C92.4573 288.291 93.059 288.362 93.6579 288.504C94.2569 288.645 94.8041 288.879 95.2996 289.206C95.7951 289.527 96.1926 289.966 96.4921 290.521C96.797 291.076 96.9495 291.771 96.9495 292.604V301H94.1072V299.277H94.0091C93.8295 299.625 93.5763 299.952 93.2496 300.257C92.9283 300.556 92.5226 300.799 92.0326 300.984C91.548 301.163 90.979 301.253 90.3256 301.253ZM91.0933 299.081C91.6868 299.081 92.2014 298.964 92.637 298.729C93.0726 298.49 93.4075 298.174 93.6416 297.782C93.8812 297.39 94.001 296.962 94.001 296.5V295.021C93.9084 295.098 93.7505 295.168 93.5273 295.234C93.3095 295.299 93.0644 295.356 92.7922 295.405C92.5199 295.454 92.2504 295.498 91.9836 295.536C91.7168 295.574 91.4854 295.607 91.2893 295.634C90.8483 295.694 90.4535 295.792 90.105 295.928C89.7565 296.064 89.4816 296.255 89.2801 296.5C89.0786 296.739 88.9779 297.05 88.9779 297.431C88.9779 297.975 89.1766 298.386 89.5741 298.664C89.9716 298.942 90.478 299.081 91.0933 299.081ZM105.395 301.245C104.142 301.245 103.067 300.97 102.169 300.42C101.276 299.87 100.587 299.111 100.102 298.141C99.623 297.167 99.3834 296.045 99.3834 294.776C99.3834 293.502 99.6285 292.378 100.119 291.403C100.609 290.423 101.3 289.661 102.193 289.116C103.092 288.566 104.153 288.291 105.378 288.291C106.397 288.291 107.298 288.479 108.082 288.855C108.871 289.225 109.5 289.75 109.969 290.431C110.437 291.106 110.704 291.896 110.769 292.8H107.943C107.829 292.195 107.556 291.692 107.126 291.289C106.702 290.88 106.133 290.676 105.419 290.676C104.815 290.676 104.284 290.839 103.827 291.166C103.369 291.487 103.013 291.95 102.757 292.555C102.506 293.159 102.381 293.883 102.381 294.727C102.381 295.582 102.506 296.317 102.757 296.933C103.007 297.542 103.358 298.013 103.81 298.346C104.268 298.672 104.804 298.836 105.419 298.836C105.855 298.836 106.244 298.754 106.587 298.591C106.936 298.422 107.227 298.179 107.461 297.864C107.695 297.548 107.856 297.164 107.943 296.712H110.769C110.698 297.6 110.437 298.386 109.985 299.072C109.533 299.753 108.918 300.287 108.139 300.673C107.36 301.054 106.446 301.245 105.395 301.245ZM119.461 288.455V290.741H112.249V288.455H119.461ZM114.03 285.449H116.987V297.227C116.987 297.624 117.047 297.929 117.166 298.141C117.292 298.348 117.455 298.49 117.656 298.566C117.858 298.642 118.081 298.68 118.326 298.68C118.511 298.68 118.68 298.667 118.833 298.64C118.99 298.612 119.11 298.588 119.192 298.566L119.69 300.877C119.532 300.932 119.306 300.992 119.012 301.057C118.724 301.123 118.37 301.161 117.95 301.172C117.21 301.193 116.543 301.082 115.949 300.837C115.356 300.586 114.885 300.2 114.536 299.677C114.193 299.154 114.025 298.501 114.03 297.717V285.449ZM121.934 301V288.455H124.891V301H121.934ZM123.421 286.674C122.952 286.674 122.55 286.519 122.212 286.208C121.874 285.893 121.706 285.514 121.706 285.073C121.706 284.627 121.874 284.248 122.212 283.938C122.55 283.622 122.952 283.464 123.421 283.464C123.894 283.464 124.297 283.622 124.63 283.938C124.967 284.248 125.136 284.627 125.136 285.073C125.136 285.514 124.967 285.893 124.63 286.208C124.297 286.519 123.894 286.674 123.421 286.674ZM133.404 301.245C132.151 301.245 131.076 300.97 130.177 300.42C129.284 299.87 128.596 299.111 128.111 298.141C127.632 297.167 127.392 296.045 127.392 294.776C127.392 293.502 127.637 292.378 128.127 291.403C128.617 290.423 129.309 289.661 130.202 289.116C131.1 288.566 132.162 288.291 133.387 288.291C134.405 288.291 135.307 288.479 136.091 288.855C136.88 289.225 137.509 289.75 137.977 290.431C138.446 291.106 138.713 291.896 138.778 292.8H135.952C135.838 292.195 135.565 291.692 135.135 291.289C134.71 290.88 134.141 290.676 133.428 290.676C132.824 290.676 132.293 290.839 131.835 291.166C131.378 291.487 131.021 291.95 130.765 292.555C130.515 293.159 130.39 293.883 130.39 294.727C130.39 295.582 130.515 296.317 130.765 296.933C131.016 297.542 131.367 298.013 131.819 298.346C132.276 298.672 132.813 298.836 133.428 298.836C133.864 298.836 134.253 298.754 134.596 298.591C134.945 298.422 135.236 298.179 135.47 297.864C135.704 297.548 135.865 297.164 135.952 296.712H138.778C138.707 297.6 138.446 298.386 137.994 299.072C137.542 299.753 136.927 300.287 136.148 300.673C135.369 301.054 134.454 301.245 133.404 301.245ZM144.816 301.253C144.021 301.253 143.305 301.112 142.668 300.828C142.036 300.54 141.535 300.115 141.165 299.554C140.8 298.993 140.618 298.302 140.618 297.48C140.618 296.772 140.748 296.187 141.01 295.724C141.271 295.261 141.628 294.891 142.08 294.613C142.532 294.335 143.041 294.126 143.607 293.984C144.179 293.837 144.77 293.731 145.379 293.665C146.114 293.589 146.711 293.521 147.168 293.461C147.625 293.396 147.958 293.298 148.165 293.167C148.377 293.031 148.483 292.821 148.483 292.538V292.489C148.483 291.874 148.301 291.398 147.936 291.06C147.571 290.722 147.046 290.554 146.359 290.554C145.635 290.554 145.061 290.712 144.636 291.027C144.217 291.343 143.934 291.716 143.787 292.146L141.026 291.754C141.244 290.992 141.603 290.355 142.104 289.843C142.605 289.326 143.218 288.939 143.942 288.683C144.666 288.422 145.466 288.291 146.343 288.291C146.948 288.291 147.549 288.362 148.148 288.504C148.747 288.645 149.294 288.879 149.79 289.206C150.285 289.527 150.683 289.966 150.982 290.521C151.287 291.076 151.44 291.771 151.44 292.604V301H148.597V299.277H148.499C148.32 299.625 148.066 299.952 147.74 300.257C147.419 300.556 147.013 300.799 146.523 300.984C146.038 301.163 145.469 301.253 144.816 301.253ZM145.584 299.081C146.177 299.081 146.692 298.964 147.127 298.729C147.563 298.49 147.898 298.174 148.132 297.782C148.371 297.39 148.491 296.962 148.491 296.5V295.021C148.399 295.098 148.241 295.168 148.017 295.234C147.8 295.299 147.555 295.356 147.282 295.405C147.01 295.454 146.741 295.498 146.474 295.536C146.207 295.574 145.976 295.607 145.78 295.634C145.339 295.694 144.944 295.792 144.595 295.928C144.247 296.064 143.972 296.255 143.77 296.5C143.569 296.739 143.468 297.05 143.468 297.431C143.468 297.975 143.667 298.386 144.064 298.664C144.462 298.942 144.968 299.081 145.584 299.081ZM157.369 284.273V301H154.413V284.273H157.369ZM160.41 301V288.455H163.366V301H160.41ZM161.896 286.674C161.428 286.674 161.025 286.519 160.688 286.208C160.35 285.893 160.181 285.514 160.181 285.073C160.181 284.627 160.35 284.248 160.688 283.938C161.025 283.622 161.428 283.464 161.896 283.464C162.37 283.464 162.773 283.622 163.105 283.938C163.443 284.248 163.612 284.627 163.612 285.073C163.612 285.514 163.443 285.893 163.105 286.208C162.773 286.519 162.37 286.674 161.896 286.674ZM172.671 288.455V290.741H165.459V288.455H172.671ZM167.24 285.449H170.197V297.227C170.197 297.624 170.257 297.929 170.376 298.141C170.502 298.348 170.665 298.49 170.866 298.566C171.068 298.642 171.291 298.68 171.536 298.68C171.721 298.68 171.89 298.667 172.043 298.64C172.2 298.612 172.32 298.588 172.402 298.566L172.9 300.877C172.742 300.932 172.516 300.992 172.222 301.057C171.934 301.123 171.58 301.161 171.16 301.172C170.42 301.193 169.753 301.082 169.159 300.837C168.566 300.586 168.095 300.2 167.746 299.677C167.403 299.154 167.235 298.501 167.24 297.717V285.449ZM176.982 305.705C176.579 305.705 176.206 305.672 175.863 305.607C175.525 305.547 175.256 305.476 175.054 305.394L175.74 303.091C176.171 303.216 176.554 303.276 176.892 303.271C177.23 303.265 177.526 303.159 177.782 302.952C178.044 302.751 178.264 302.413 178.444 301.939L178.697 301.261L174.148 288.455H177.284L180.175 297.929H180.306L183.206 288.455H186.35L181.327 302.519C181.093 303.183 180.783 303.752 180.396 304.226C180.009 304.705 179.536 305.07 178.975 305.321C178.419 305.577 177.755 305.705 176.982 305.705ZM197.711 301.253C196.916 301.253 196.2 301.112 195.563 300.828C194.932 300.54 194.431 300.115 194.06 299.554C193.696 298.993 193.513 298.302 193.513 297.48C193.513 296.772 193.644 296.187 193.905 295.724C194.167 295.261 194.523 294.891 194.975 294.613C195.427 294.335 195.936 294.126 196.502 293.984C197.074 293.837 197.665 293.731 198.275 293.665C199.01 293.589 199.606 293.521 200.064 293.461C200.521 293.396 200.853 293.298 201.06 293.167C201.272 293.031 201.379 292.821 201.379 292.538V292.489C201.379 291.874 201.196 291.398 200.831 291.06C200.467 290.722 199.941 290.554 199.255 290.554C198.531 290.554 197.956 290.712 197.532 291.027C197.112 291.343 196.829 291.716 196.682 292.146L193.922 291.754C194.139 290.992 194.499 290.355 195 289.843C195.501 289.326 196.113 288.939 196.837 288.683C197.562 288.422 198.362 288.291 199.239 288.291C199.843 288.291 200.445 288.362 201.044 288.504C201.643 288.645 202.19 288.879 202.685 289.206C203.181 289.527 203.578 289.966 203.878 290.521C204.183 291.076 204.335 291.771 204.335 292.604V301H201.493V299.277H201.395C201.215 299.625 200.962 299.952 200.635 300.257C200.314 300.556 199.908 300.799 199.418 300.984C198.934 301.163 198.365 301.253 197.711 301.253ZM198.479 299.081C199.073 299.081 199.587 298.964 200.023 298.729C200.458 298.49 200.793 298.174 201.027 297.782C201.267 297.39 201.387 296.962 201.387 296.5V295.021C201.294 295.098 201.136 295.168 200.913 295.234C200.695 295.299 200.45 295.356 200.178 295.405C199.906 295.454 199.636 295.498 199.369 295.536C199.103 295.574 198.871 295.607 198.675 295.634C198.234 295.694 197.839 295.792 197.491 295.928C197.142 296.064 196.867 296.255 196.666 296.5C196.464 296.739 196.364 297.05 196.364 297.431C196.364 297.975 196.562 298.386 196.96 298.664C197.357 298.942 197.864 299.081 198.479 299.081ZM210.265 293.649V301H207.308V288.455H210.134V290.586H210.281C210.57 289.884 211.03 289.326 211.662 288.912C212.299 288.498 213.085 288.291 214.022 288.291C214.888 288.291 215.642 288.476 216.284 288.847C216.932 289.217 217.433 289.753 217.787 290.456C218.147 291.158 218.324 292.01 218.318 293.012V301H215.362V293.469C215.362 292.631 215.144 291.975 214.708 291.501C214.278 291.027 213.682 290.79 212.919 290.79C212.402 290.79 211.942 290.905 211.539 291.134C211.142 291.357 210.828 291.681 210.6 292.105C210.377 292.53 210.265 293.045 210.265 293.649ZM225.979 301.221C224.994 301.221 224.112 300.967 223.333 300.461C222.554 299.955 221.939 299.219 221.487 298.256C221.035 297.292 220.809 296.121 220.809 294.744C220.809 293.35 221.038 292.174 221.495 291.215C221.958 290.251 222.582 289.525 223.366 289.034C224.15 288.539 225.024 288.291 225.988 288.291C226.723 288.291 227.327 288.416 227.801 288.667C228.275 288.912 228.65 289.209 228.928 289.557C229.206 289.9 229.421 290.224 229.573 290.529H229.696V284.273H232.661V301H229.753V299.023H229.573C229.421 299.328 229.2 299.652 228.912 299.995C228.623 300.333 228.242 300.622 227.768 300.861C227.294 301.101 226.698 301.221 225.979 301.221ZM226.804 298.795C227.431 298.795 227.964 298.626 228.405 298.288C228.846 297.945 229.181 297.469 229.41 296.859C229.638 296.249 229.753 295.539 229.753 294.727C229.753 293.916 229.638 293.211 229.41 292.612C229.187 292.013 228.854 291.547 228.413 291.215C227.978 290.883 227.441 290.717 226.804 290.717C226.145 290.717 225.596 290.888 225.154 291.232C224.713 291.575 224.381 292.048 224.158 292.653C223.935 293.257 223.823 293.949 223.823 294.727C223.823 295.511 223.935 296.211 224.158 296.826C224.387 297.436 224.722 297.918 225.163 298.272C225.609 298.621 226.156 298.795 226.804 298.795ZM241.647 301V284.273H252.363V286.813H244.677V291.354H251.628V293.894H244.677V301H241.647ZM259.626 301.245C258.368 301.245 257.282 300.984 256.367 300.461C255.458 299.933 254.758 299.187 254.268 298.223C253.778 297.254 253.533 296.113 253.533 294.801C253.533 293.51 253.778 292.378 254.268 291.403C254.763 290.423 255.455 289.661 256.343 289.116C257.23 288.566 258.273 288.291 259.471 288.291C260.244 288.291 260.974 288.416 261.66 288.667C262.351 288.912 262.961 289.293 263.489 289.81C264.023 290.328 264.442 290.987 264.747 291.787C265.052 292.582 265.204 293.529 265.204 294.629V295.536H254.921V293.543H262.37C262.365 292.977 262.242 292.473 262.003 292.032C261.763 291.585 261.428 291.234 260.998 290.978C260.573 290.722 260.078 290.594 259.512 290.594C258.907 290.594 258.376 290.741 257.919 291.036C257.461 291.324 257.105 291.705 256.849 292.179C256.598 292.647 256.47 293.162 256.465 293.723V295.462C256.465 296.192 256.598 296.818 256.865 297.341C257.132 297.858 257.505 298.256 257.984 298.533C258.463 298.806 259.024 298.942 259.667 298.942C260.097 298.942 260.486 298.882 260.835 298.762C261.183 298.637 261.485 298.454 261.741 298.215C261.997 297.975 262.191 297.679 262.321 297.325L265.082 297.635C264.908 298.365 264.575 299.002 264.085 299.546C263.601 300.085 262.98 300.504 262.223 300.804C261.466 301.098 260.601 301.245 259.626 301.245ZM271.316 301.253C270.521 301.253 269.805 301.112 269.168 300.828C268.536 300.54 268.035 300.115 267.665 299.554C267.3 298.993 267.118 298.302 267.118 297.48C267.118 296.772 267.248 296.187 267.51 295.724C267.771 295.261 268.128 294.891 268.58 294.613C269.032 294.335 269.541 294.126 270.107 293.984C270.679 293.837 271.27 293.731 271.879 293.665C272.614 293.589 273.211 293.521 273.668 293.461C274.125 293.396 274.458 293.298 274.665 293.167C274.877 293.031 274.983 292.821 274.983 292.538V292.489C274.983 291.874 274.801 291.398 274.436 291.06C274.071 290.722 273.546 290.554 272.859 290.554C272.135 290.554 271.561 290.712 271.136 291.027C270.717 291.343 270.434 291.716 270.287 292.146L267.526 291.754C267.744 290.992 268.103 290.355 268.604 289.843C269.105 289.326 269.718 288.939 270.442 288.683C271.166 288.422 271.966 288.291 272.843 288.291C273.448 288.291 274.049 288.362 274.648 288.504C275.247 288.645 275.794 288.879 276.29 289.206C276.785 289.527 277.183 289.966 277.482 290.521C277.787 291.076 277.94 291.771 277.94 292.604V301H275.097V299.277H274.999C274.82 299.625 274.566 299.952 274.24 300.257C273.919 300.556 273.513 300.799 273.023 300.984C272.538 301.163 271.969 301.253 271.316 301.253ZM272.084 299.081C272.677 299.081 273.192 298.964 273.627 298.729C274.063 298.49 274.398 298.174 274.632 297.782C274.871 297.39 274.991 296.962 274.991 296.5V295.021C274.899 295.098 274.741 295.168 274.517 295.234C274.3 295.299 274.055 295.356 273.782 295.405C273.51 295.454 273.241 295.498 272.974 295.536C272.707 295.574 272.476 295.607 272.28 295.634C271.839 295.694 271.444 295.792 271.095 295.928C270.747 296.064 270.472 296.255 270.27 296.5C270.069 296.739 269.968 297.05 269.968 297.431C269.968 297.975 270.167 298.386 270.564 298.664C270.962 298.942 271.468 299.081 272.084 299.081ZM290.828 291.771L288.133 292.065C288.057 291.792 287.923 291.536 287.733 291.297C287.548 291.057 287.297 290.864 286.981 290.717C286.665 290.57 286.279 290.496 285.821 290.496C285.206 290.496 284.689 290.63 284.27 290.897C283.856 291.163 283.652 291.509 283.657 291.934C283.652 292.299 283.785 292.596 284.057 292.824C284.335 293.053 284.792 293.241 285.429 293.388L287.569 293.845C288.756 294.101 289.638 294.507 290.216 295.062C290.798 295.618 291.092 296.344 291.098 297.243C291.092 298.032 290.861 298.729 290.403 299.334C289.952 299.933 289.323 300.401 288.517 300.739C287.711 301.076 286.785 301.245 285.74 301.245C284.204 301.245 282.968 300.924 282.032 300.281C281.095 299.633 280.537 298.732 280.357 297.578L283.241 297.3C283.371 297.866 283.649 298.294 284.074 298.582C284.498 298.871 285.051 299.015 285.732 299.015C286.434 299.015 286.998 298.871 287.422 298.582C287.852 298.294 288.068 297.937 288.068 297.512C288.068 297.153 287.929 296.856 287.651 296.622C287.379 296.388 286.954 296.208 286.377 296.083L284.237 295.634C283.034 295.383 282.143 294.961 281.566 294.368C280.989 293.769 280.703 293.012 280.709 292.097C280.703 291.324 280.913 290.654 281.337 290.088C281.768 289.516 282.364 289.075 283.126 288.765C283.894 288.449 284.779 288.291 285.781 288.291C287.251 288.291 288.408 288.604 289.252 289.23C290.101 289.857 290.627 290.703 290.828 291.771ZM293.536 301V288.455H296.492V301H293.536ZM295.022 286.674C294.554 286.674 294.151 286.519 293.813 286.208C293.476 285.893 293.307 285.514 293.307 285.073C293.307 284.627 293.476 284.248 293.813 283.938C294.151 283.622 294.554 283.464 295.022 283.464C295.496 283.464 295.899 283.622 296.231 283.938C296.569 284.248 296.737 284.627 296.737 285.073C296.737 285.514 296.569 285.893 296.231 286.208C295.899 286.519 295.496 286.674 295.022 286.674ZM299.664 301V284.273H302.62V290.529H302.743C302.895 290.224 303.11 289.9 303.388 289.557C303.666 289.209 304.041 288.912 304.515 288.667C304.989 288.416 305.593 288.291 306.328 288.291C307.298 288.291 308.171 288.539 308.95 289.034C309.734 289.525 310.355 290.251 310.812 291.215C311.275 292.174 311.507 293.35 311.507 294.744C311.507 296.121 311.281 297.292 310.829 298.256C310.377 299.219 309.761 299.955 308.983 300.461C308.204 300.967 307.322 301.221 306.336 301.221C305.618 301.221 305.021 301.101 304.548 300.861C304.074 300.622 303.693 300.333 303.404 299.995C303.121 299.652 302.901 299.328 302.743 299.023H302.571V301H299.664ZM302.563 294.727C302.563 295.539 302.677 296.249 302.906 296.859C303.14 297.469 303.475 297.945 303.911 298.288C304.352 298.626 304.885 298.795 305.512 298.795C306.165 298.795 306.712 298.621 307.153 298.272C307.594 297.918 307.926 297.436 308.15 296.826C308.378 296.211 308.493 295.511 308.493 294.727C308.493 293.949 308.381 293.257 308.158 292.653C307.935 292.048 307.602 291.575 307.161 291.232C306.72 290.888 306.17 290.717 305.512 290.717C304.88 290.717 304.344 290.883 303.903 291.215C303.461 291.547 303.127 292.013 302.898 292.612C302.675 293.211 302.563 293.916 302.563 294.727ZM314.02 301V288.455H316.977V301H314.02ZM315.507 286.674C315.038 286.674 314.635 286.519 314.298 286.208C313.96 285.893 313.791 285.514 313.791 285.073C313.791 284.627 313.96 284.248 314.298 283.938C314.635 283.622 315.038 283.464 315.507 283.464C315.98 283.464 316.383 283.622 316.715 283.938C317.053 284.248 317.222 284.627 317.222 285.073C317.222 285.514 317.053 285.893 316.715 286.208C316.383 286.519 315.98 286.674 315.507 286.674ZM322.974 284.273V301H320.017V284.273H322.974ZM326.014 301V288.455H328.971V301H326.014ZM327.501 286.674C327.033 286.674 326.63 286.519 326.292 286.208C325.954 285.893 325.786 285.514 325.786 285.073C325.786 284.627 325.954 284.248 326.292 283.938C326.63 283.622 327.033 283.464 327.501 283.464C327.975 283.464 328.377 283.622 328.71 283.938C329.047 284.248 329.216 284.627 329.216 285.073C329.216 285.514 329.047 285.893 328.71 286.208C328.377 286.519 327.975 286.674 327.501 286.674ZM338.276 288.455V290.741H331.064V288.455H338.276ZM332.844 285.449H335.801V297.227C335.801 297.624 335.861 297.929 335.981 298.141C336.106 298.348 336.269 298.49 336.471 298.566C336.672 298.642 336.896 298.68 337.141 298.68C337.326 298.68 337.495 298.667 337.647 298.64C337.805 298.612 337.925 298.588 338.006 298.566L338.505 300.877C338.347 300.932 338.121 300.992 337.827 301.057C337.538 301.123 337.184 301.161 336.765 301.172C336.024 301.193 335.357 301.082 334.764 300.837C334.17 300.586 333.699 300.2 333.351 299.677C333.008 299.154 332.839 298.501 332.844 297.717V285.449ZM342.586 305.705C342.183 305.705 341.81 305.672 341.467 305.607C341.13 305.547 340.86 305.476 340.659 305.394L341.345 303.091C341.775 303.216 342.159 303.276 342.497 303.271C342.834 303.265 343.131 303.159 343.387 302.952C343.648 302.751 343.869 302.413 344.048 301.939L344.302 301.261L339.752 288.455H342.889L345.78 297.929H345.911L348.81 288.455H351.955L346.932 302.519C346.697 303.183 346.387 303.752 346 304.226C345.614 304.705 345.14 305.07 344.579 305.321C344.024 305.577 343.36 305.705 342.586 305.705ZM44.2541 348.929C43.5952 348.929 42.9935 348.768 42.449 348.447C41.9045 348.12 41.4689 347.685 41.1422 347.14C40.821 346.596 40.6603 345.994 40.6603 345.335C40.6603 344.671 40.821 344.069 41.1422 343.53C41.4689 342.986 41.9045 342.553 42.449 342.232C42.9935 341.905 43.5952 341.741 44.2541 341.741C44.9184 341.741 45.5201 341.905 46.0591 342.232C46.6036 342.553 47.0365 342.986 47.3578 343.53C47.6845 344.069 47.8478 344.671 47.8478 345.335C47.8478 345.994 47.6845 346.596 47.3578 347.14C47.0365 347.685 46.6036 348.12 46.0591 348.447C45.5201 348.768 44.9184 348.929 44.2541 348.929ZM63.1499 335.273H66.858L71.8239 347.393H72.0199L76.9858 335.273H80.6939V352H77.7862V340.508H77.631L73.0082 351.951H70.8356L66.2127 340.484H66.0575V352H63.1499V335.273ZM91.859 346.724V339.455H94.8157V352H91.9489V349.77H91.8182C91.535 350.473 91.0695 351.047 90.4215 351.494C89.779 351.94 88.9867 352.163 88.0447 352.163C87.2225 352.163 86.4956 351.981 85.864 351.616C85.2378 351.246 84.7478 350.71 84.3938 350.007C84.0399 349.299 83.8629 348.444 83.8629 347.442V339.455H86.8196V346.985C86.8196 347.78 87.0374 348.412 87.473 348.88C87.9086 349.348 88.4804 349.582 89.1882 349.582C89.6238 349.582 90.0458 349.476 90.4542 349.264C90.8626 349.051 91.1974 348.736 91.4588 348.316C91.7256 347.892 91.859 347.361 91.859 346.724ZM107.772 342.771L105.076 343.065C105 342.792 104.867 342.536 104.676 342.297C104.491 342.057 104.24 341.864 103.925 341.717C103.609 341.57 103.222 341.496 102.765 341.496C102.15 341.496 101.632 341.63 101.213 341.897C100.799 342.163 100.595 342.509 100.6 342.934C100.595 343.299 100.728 343.596 101.001 343.824C101.278 344.053 101.736 344.241 102.373 344.388L104.513 344.845C105.7 345.101 106.582 345.507 107.159 346.062C107.742 346.618 108.036 347.344 108.041 348.243C108.036 349.032 107.804 349.729 107.347 350.334C106.895 350.933 106.266 351.401 105.46 351.739C104.654 352.076 103.729 352.245 102.683 352.245C101.148 352.245 99.9116 351.924 98.9751 351.281C98.0385 350.633 97.4804 349.732 97.3007 348.578L100.184 348.3C100.315 348.866 100.592 349.294 101.017 349.582C101.442 349.871 101.994 350.015 102.675 350.015C103.377 350.015 103.941 349.871 104.366 349.582C104.796 349.294 105.011 348.937 105.011 348.512C105.011 348.153 104.872 347.856 104.594 347.622C104.322 347.388 103.897 347.208 103.32 347.083L101.18 346.634C99.9769 346.383 99.0867 345.961 98.5095 345.368C97.9323 344.769 97.6465 344.012 97.6519 343.097C97.6465 342.324 97.8561 341.654 98.2808 341.088C98.711 340.516 99.3072 340.075 100.07 339.765C100.837 339.449 101.722 339.291 102.724 339.291C104.194 339.291 105.351 339.604 106.195 340.23C107.045 340.857 107.57 341.703 107.772 342.771ZM116.744 339.455V341.741H109.532V339.455H116.744ZM111.312 336.449H114.269V348.227C114.269 348.624 114.329 348.929 114.449 349.141C114.574 349.348 114.737 349.49 114.939 349.566C115.14 349.642 115.363 349.68 115.608 349.68C115.794 349.68 115.962 349.667 116.115 349.64C116.273 349.612 116.392 349.588 116.474 349.566L116.972 351.877C116.814 351.932 116.589 351.992 116.294 352.057C116.006 352.123 115.652 352.161 115.233 352.172C114.492 352.193 113.825 352.082 113.232 351.837C112.638 351.586 112.167 351.2 111.819 350.677C111.476 350.154 111.307 349.501 111.312 348.717V336.449ZM134.837 342.771L132.142 343.065C132.065 342.792 131.932 342.536 131.741 342.297C131.556 342.057 131.306 341.864 130.99 341.717C130.674 341.57 130.288 341.496 129.83 341.496C129.215 341.496 128.698 341.63 128.278 341.897C127.865 342.163 127.66 342.509 127.666 342.934C127.66 343.299 127.794 343.596 128.066 343.824C128.344 344.053 128.801 344.241 129.438 344.388L131.578 344.845C132.765 345.101 133.647 345.507 134.224 346.062C134.807 346.618 135.101 347.344 135.107 348.243C135.101 349.032 134.87 349.729 134.412 350.334C133.96 350.933 133.331 351.401 132.526 351.739C131.72 352.076 130.794 352.245 129.749 352.245C128.213 352.245 126.977 351.924 126.04 351.281C125.104 350.633 124.546 349.732 124.366 348.578L127.249 348.3C127.38 348.866 127.658 349.294 128.082 349.582C128.507 349.871 129.06 350.015 129.74 350.015C130.443 350.015 131.006 349.871 131.431 349.582C131.861 349.294 132.076 348.937 132.076 348.512C132.076 348.153 131.938 347.856 131.66 347.622C131.388 347.388 130.963 347.208 130.386 347.083L128.246 346.634C127.042 346.383 126.152 345.961 125.575 345.368C124.998 344.769 124.712 344.012 124.717 343.097C124.712 342.324 124.922 341.654 125.346 341.088C125.776 340.516 126.373 340.075 127.135 339.765C127.903 339.449 128.788 339.291 129.789 339.291C131.26 339.291 132.417 339.604 133.261 340.23C134.11 340.857 134.636 341.703 134.837 342.771ZM143.017 352.245C141.792 352.245 140.73 351.975 139.831 351.436C138.933 350.897 138.236 350.143 137.741 349.174C137.251 348.205 137.006 347.072 137.006 345.776C137.006 344.48 137.251 343.345 137.741 342.37C138.236 341.396 138.933 340.639 139.831 340.1C140.73 339.561 141.792 339.291 143.017 339.291C144.242 339.291 145.304 339.561 146.202 340.1C147.101 340.639 147.795 341.396 148.285 342.37C148.78 343.345 149.028 344.48 149.028 345.776C149.028 347.072 148.78 348.205 148.285 349.174C147.795 350.143 147.101 350.897 146.202 351.436C145.304 351.975 144.242 352.245 143.017 352.245ZM143.033 349.876C143.698 349.876 144.253 349.694 144.699 349.329C145.146 348.959 145.478 348.463 145.696 347.843C145.919 347.222 146.031 346.53 146.031 345.768C146.031 345 145.919 344.306 145.696 343.685C145.478 343.059 145.146 342.561 144.699 342.191C144.253 341.82 143.698 341.635 143.033 341.635C142.353 341.635 141.786 341.82 141.334 342.191C140.888 342.561 140.553 343.059 140.33 343.685C140.112 344.306 140.003 345 140.003 345.768C140.003 346.53 140.112 347.222 140.33 347.843C140.553 348.463 140.888 348.959 141.334 349.329C141.786 349.694 142.353 349.876 143.033 349.876ZM154.494 335.273V352H151.538V335.273H154.494ZM168.741 339.455L164.273 352H161.006L156.538 339.455H159.691L162.574 348.774H162.705L165.596 339.455H168.741ZM175.914 352.245C174.656 352.245 173.57 351.984 172.655 351.461C171.746 350.933 171.046 350.187 170.556 349.223C170.066 348.254 169.821 347.113 169.821 345.801C169.821 344.51 170.066 343.378 170.556 342.403C171.052 341.423 171.743 340.661 172.631 340.116C173.518 339.566 174.561 339.291 175.759 339.291C176.532 339.291 177.262 339.416 177.948 339.667C178.639 339.912 179.249 340.293 179.777 340.81C180.311 341.328 180.73 341.987 181.035 342.787C181.34 343.582 181.492 344.529 181.492 345.629V346.536H171.209V344.543H178.658C178.653 343.977 178.53 343.473 178.291 343.032C178.051 342.585 177.716 342.234 177.286 341.978C176.861 341.722 176.366 341.594 175.8 341.594C175.195 341.594 174.664 341.741 174.207 342.036C173.75 342.324 173.393 342.705 173.137 343.179C172.887 343.647 172.759 344.162 172.753 344.723V346.462C172.753 347.192 172.887 347.818 173.153 348.341C173.42 348.858 173.793 349.256 174.272 349.533C174.751 349.806 175.312 349.942 175.955 349.942C176.385 349.942 176.774 349.882 177.123 349.762C177.471 349.637 177.773 349.454 178.029 349.215C178.285 348.975 178.479 348.679 178.609 348.325L181.37 348.635C181.196 349.365 180.864 350.002 180.373 350.546C179.889 351.085 179.268 351.504 178.511 351.804C177.754 352.098 176.889 352.245 175.914 352.245ZM193.309 352.253C192.514 352.253 191.798 352.112 191.161 351.828C190.529 351.54 190.028 351.115 189.658 350.554C189.293 349.993 189.111 349.302 189.111 348.48C189.111 347.772 189.241 347.187 189.503 346.724C189.764 346.261 190.121 345.891 190.573 345.613C191.025 345.335 191.534 345.126 192.1 344.984C192.672 344.837 193.263 344.731 193.873 344.665C194.608 344.589 195.204 344.521 195.661 344.461C196.119 344.396 196.451 344.298 196.658 344.167C196.87 344.031 196.976 343.821 196.976 343.538V343.489C196.976 342.874 196.794 342.398 196.429 342.06C196.064 341.722 195.539 341.554 194.853 341.554C194.128 341.554 193.554 341.712 193.129 342.027C192.71 342.343 192.427 342.716 192.28 343.146L189.519 342.754C189.737 341.992 190.096 341.355 190.597 340.843C191.098 340.326 191.711 339.939 192.435 339.683C193.159 339.422 193.96 339.291 194.836 339.291C195.441 339.291 196.042 339.362 196.641 339.504C197.24 339.645 197.788 339.879 198.283 340.206C198.779 340.527 199.176 340.966 199.475 341.521C199.78 342.076 199.933 342.771 199.933 343.604V352H197.091V350.277H196.993C196.813 350.625 196.56 350.952 196.233 351.257C195.912 351.556 195.506 351.799 195.016 351.984C194.531 352.163 193.962 352.253 193.309 352.253ZM194.077 350.081C194.67 350.081 195.185 349.964 195.62 349.729C196.056 349.49 196.391 349.174 196.625 348.782C196.865 348.39 196.984 347.962 196.984 347.5V346.021C196.892 346.098 196.734 346.168 196.511 346.234C196.293 346.299 196.048 346.356 195.776 346.405C195.503 346.454 195.234 346.498 194.967 346.536C194.7 346.574 194.469 346.607 194.273 346.634C193.832 346.694 193.437 346.792 193.088 346.928C192.74 347.064 192.465 347.255 192.263 347.5C192.062 347.739 191.961 348.05 191.961 348.431C191.961 348.975 192.16 349.386 192.558 349.664C192.955 349.942 193.461 350.081 194.077 350.081ZM208.611 352V339.455H211.478V341.545H211.608C211.837 340.821 212.229 340.263 212.785 339.871C213.345 339.474 213.985 339.275 214.704 339.275C214.867 339.275 215.05 339.283 215.251 339.299C215.458 339.31 215.63 339.329 215.766 339.357V342.076C215.641 342.033 215.442 341.995 215.17 341.962C214.903 341.924 214.644 341.905 214.394 341.905C213.855 341.905 213.37 342.022 212.94 342.256C212.515 342.485 212.18 342.803 211.935 343.212C211.69 343.62 211.568 344.091 211.568 344.625V352H208.611ZM222.767 352.245C221.51 352.245 220.423 351.984 219.509 351.461C218.599 350.933 217.9 350.187 217.41 349.223C216.919 348.254 216.674 347.113 216.674 345.801C216.674 344.51 216.919 343.378 217.41 342.403C217.905 341.423 218.597 340.661 219.484 340.116C220.372 339.566 221.414 339.291 222.612 339.291C223.386 339.291 224.115 339.416 224.801 339.667C225.493 339.912 226.103 340.293 226.631 340.81C227.164 341.328 227.584 341.987 227.889 342.787C228.194 343.582 228.346 344.529 228.346 345.629V346.536H218.063V344.543H225.512C225.506 343.977 225.384 343.473 225.144 343.032C224.905 342.585 224.57 342.234 224.14 341.978C223.715 341.722 223.219 341.594 222.653 341.594C222.049 341.594 221.518 341.741 221.06 342.036C220.603 342.324 220.246 342.705 219.991 343.179C219.74 343.647 219.612 344.162 219.607 344.723V346.462C219.607 347.192 219.74 347.818 220.007 348.341C220.274 348.858 220.647 349.256 221.126 349.533C221.605 349.806 222.166 349.942 222.808 349.942C223.238 349.942 223.628 349.882 223.976 349.762C224.325 349.637 224.627 349.454 224.883 349.215C225.139 348.975 225.332 348.679 225.463 348.325L228.223 348.635C228.049 349.365 227.717 350.002 227.227 350.546C226.742 351.085 226.122 351.504 225.365 351.804C224.608 352.098 223.742 352.245 222.767 352.245ZM234.457 352.253C233.662 352.253 232.946 352.112 232.309 351.828C231.678 351.54 231.177 351.115 230.806 350.554C230.442 349.993 230.259 349.302 230.259 348.48C230.259 347.772 230.39 347.187 230.651 346.724C230.913 346.261 231.269 345.891 231.721 345.613C232.173 345.335 232.682 345.126 233.249 344.984C233.82 344.837 234.411 344.731 235.021 344.665C235.756 344.589 236.352 344.521 236.81 344.461C237.267 344.396 237.599 344.298 237.806 344.167C238.018 344.031 238.125 343.821 238.125 343.538V343.489C238.125 342.874 237.942 342.398 237.577 342.06C237.213 341.722 236.687 341.554 236.001 341.554C235.277 341.554 234.702 341.712 234.278 342.027C233.858 342.343 233.575 342.716 233.428 343.146L230.668 342.754C230.885 341.992 231.245 341.355 231.746 340.843C232.247 340.326 232.859 339.939 233.583 339.683C234.308 339.422 235.108 339.291 235.985 339.291C236.589 339.291 237.191 339.362 237.79 339.504C238.389 339.645 238.936 339.879 239.431 340.206C239.927 340.527 240.324 340.966 240.624 341.521C240.929 342.076 241.081 342.771 241.081 343.604V352H238.239V350.277H238.141C237.961 350.625 237.708 350.952 237.381 351.257C237.06 351.556 236.654 351.799 236.164 351.984C235.68 352.163 235.111 352.253 234.457 352.253ZM235.225 350.081C235.819 350.081 236.333 349.964 236.769 349.729C237.204 349.49 237.539 349.174 237.773 348.782C238.013 348.39 238.133 347.962 238.133 347.5V346.021C238.04 346.098 237.882 346.168 237.659 346.234C237.441 346.299 237.196 346.356 236.924 346.405C236.652 346.454 236.382 346.498 236.115 346.536C235.849 346.574 235.617 346.607 235.421 346.634C234.98 346.694 234.585 346.792 234.237 346.928C233.888 347.064 233.613 347.255 233.412 347.5C233.21 347.739 233.11 348.05 233.11 348.431C233.11 348.975 233.308 349.386 233.706 349.664C234.103 349.942 234.61 350.081 235.225 350.081ZM247.011 335.273V352H244.054V335.273H247.011ZM258.713 335.273V352H255.756V335.273H258.713ZM261.754 352V339.455H264.71V352H261.754ZM263.24 337.674C262.772 337.674 262.369 337.519 262.031 337.208C261.694 336.893 261.525 336.514 261.525 336.073C261.525 335.627 261.694 335.248 262.031 334.938C262.369 334.622 262.772 334.464 263.24 334.464C263.714 334.464 264.117 334.622 264.449 334.938C264.786 335.248 264.955 335.627 264.955 336.073C264.955 336.514 264.786 336.893 264.449 337.208C264.117 337.519 263.714 337.674 263.24 337.674ZM274.105 339.455V341.741H266.689V339.455H274.105ZM268.543 352V338.27C268.543 337.426 268.717 336.724 269.066 336.163C269.42 335.602 269.893 335.183 270.487 334.905C271.08 334.627 271.739 334.489 272.463 334.489C272.975 334.489 273.43 334.529 273.827 334.611C274.225 334.693 274.519 334.766 274.709 334.832L274.121 337.119C273.996 337.08 273.838 337.042 273.648 337.004C273.457 336.961 273.245 336.939 273.011 336.939C272.461 336.939 272.071 337.072 271.843 337.339C271.619 337.6 271.508 337.976 271.508 338.466V352H268.543ZM281.503 352.245C280.245 352.245 279.159 351.984 278.244 351.461C277.335 350.933 276.635 350.187 276.145 349.223C275.655 348.254 275.41 347.113 275.41 345.801C275.41 344.51 275.655 343.378 276.145 342.403C276.64 341.423 277.332 340.661 278.219 340.116C279.107 339.566 280.15 339.291 281.348 339.291C282.121 339.291 282.85 339.416 283.537 339.667C284.228 339.912 284.838 340.293 285.366 340.81C285.9 341.328 286.319 341.987 286.624 342.787C286.929 343.582 287.081 344.529 287.081 345.629V346.536H276.798V344.543H284.247C284.242 343.977 284.119 343.473 283.88 343.032C283.64 342.585 283.305 342.234 282.875 341.978C282.45 341.722 281.955 341.594 281.388 341.594C280.784 341.594 280.253 341.741 279.796 342.036C279.338 342.324 278.982 342.705 278.726 343.179C278.475 343.647 278.347 344.162 278.342 344.723V346.462C278.342 347.192 278.475 347.818 278.742 348.341C279.009 348.858 279.382 349.256 279.861 349.533C280.34 349.806 280.901 349.942 281.544 349.942C281.974 349.942 282.363 349.882 282.712 349.762C283.06 349.637 283.362 349.454 283.618 349.215C283.874 348.975 284.067 348.679 284.198 348.325L286.959 348.635C286.785 349.365 286.452 350.002 285.962 350.546C285.478 351.085 284.857 351.504 284.1 351.804C283.343 352.098 282.478 352.245 281.503 352.245ZM63.0192 407.705V390.455H65.9268V392.529H66.0984C66.2508 392.224 66.4659 391.9 66.7436 391.557C67.0213 391.209 67.397 390.912 67.8707 390.667C68.3445 390.416 68.9489 390.291 69.6839 390.291C70.6532 390.291 71.5271 390.539 72.3058 391.034C73.0898 391.525 73.7106 392.251 74.168 393.215C74.6308 394.174 74.8622 395.35 74.8622 396.744C74.8622 398.121 74.6362 399.292 74.1843 400.256C73.7324 401.219 73.1171 401.955 72.3384 402.461C71.5598 402.967 70.6777 403.221 69.6921 403.221C68.9734 403.221 68.3771 403.101 67.9034 402.861C67.4297 402.622 67.0485 402.333 66.7599 401.995C66.4768 401.652 66.2563 401.328 66.0984 401.023H65.9759V407.705H63.0192ZM65.9187 396.727C65.9187 397.539 66.033 398.249 66.2617 398.859C66.4959 399.469 66.8307 399.945 67.2663 400.288C67.7074 400.626 68.241 400.795 68.8672 400.795C69.5206 400.795 70.0678 400.621 70.5089 400.272C70.9499 399.918 71.2821 399.436 71.5053 398.826C71.734 398.211 71.8484 397.511 71.8484 396.727C71.8484 395.949 71.7367 395.257 71.5135 394.653C71.2902 394.048 70.9581 393.575 70.517 393.232C70.076 392.888 69.526 392.717 68.8672 392.717C68.2356 392.717 67.6992 392.883 67.2582 393.215C66.8171 393.547 66.4822 394.013 66.2536 394.612C66.0303 395.211 65.9187 395.916 65.9187 396.727ZM77.3942 403V390.455H80.261V392.545H80.3917C80.6204 391.821 81.0124 391.263 81.5678 390.871C82.1287 390.474 82.7685 390.275 83.4872 390.275C83.6506 390.275 83.833 390.283 84.0344 390.299C84.2414 390.31 84.4129 390.329 84.549 390.357V393.076C84.4238 393.033 84.225 392.995 83.9528 392.962C83.686 392.924 83.4273 392.905 83.1768 392.905C82.6378 392.905 82.1532 393.022 81.723 393.256C81.2983 393.485 80.9634 393.803 80.7184 394.212C80.4734 394.62 80.3509 395.091 80.3509 395.625V403H77.3942ZM91.469 403.245C90.2439 403.245 89.1821 402.975 88.2836 402.436C87.3852 401.897 86.6882 401.143 86.1927 400.174C85.7027 399.205 85.4577 398.072 85.4577 396.776C85.4577 395.48 85.7027 394.345 86.1927 393.37C86.6882 392.396 87.3852 391.639 88.2836 391.1C89.1821 390.561 90.2439 390.291 91.469 390.291C92.6942 390.291 93.7559 390.561 94.6544 391.1C95.5528 391.639 96.2471 392.396 96.7371 393.37C97.2326 394.345 97.4804 395.48 97.4804 396.776C97.4804 398.072 97.2326 399.205 96.7371 400.174C96.2471 401.143 95.5528 401.897 94.6544 402.436C93.7559 402.975 92.6942 403.245 91.469 403.245ZM91.4854 400.876C92.1497 400.876 92.705 400.694 93.1515 400.329C93.598 399.959 93.9302 399.463 94.148 398.843C94.3712 398.222 94.4829 397.53 94.4829 396.768C94.4829 396 94.3712 395.306 94.148 394.685C93.9302 394.059 93.598 393.561 93.1515 393.191C92.705 392.82 92.1497 392.635 91.4854 392.635C90.8047 392.635 90.2384 392.82 89.7865 393.191C89.34 393.561 89.0051 394.059 88.7819 394.685C88.5641 395.306 88.4552 396 88.4552 396.768C88.4552 397.53 88.5641 398.222 88.7819 398.843C89.0051 399.463 89.34 399.959 89.7865 400.329C90.2384 400.694 90.8047 400.876 91.4854 400.876ZM100.121 403V386.273H103.077V392.529H103.2C103.352 392.224 103.567 391.9 103.845 391.557C104.123 391.209 104.498 390.912 104.972 390.667C105.446 390.416 106.05 390.291 106.785 390.291C107.755 390.291 108.628 390.539 109.407 391.034C110.191 391.525 110.812 392.251 111.269 393.215C111.732 394.174 111.964 395.35 111.964 396.744C111.964 398.121 111.738 399.292 111.286 400.256C110.834 401.219 110.218 401.955 109.44 402.461C108.661 402.967 107.779 403.221 106.794 403.221C106.075 403.221 105.479 403.101 105.005 402.861C104.531 402.622 104.15 402.333 103.861 401.995C103.578 401.652 103.358 401.328 103.2 401.023H103.028V403H100.121ZM103.02 396.727C103.02 397.539 103.134 398.249 103.363 398.859C103.597 399.469 103.932 399.945 104.368 400.288C104.809 400.626 105.342 400.795 105.969 400.795C106.622 400.795 107.169 400.621 107.61 400.272C108.051 399.918 108.383 399.436 108.607 398.826C108.835 398.211 108.95 397.511 108.95 396.727C108.95 395.949 108.838 395.257 108.615 394.653C108.392 394.048 108.059 393.575 107.618 393.232C107.177 392.888 106.627 392.717 105.969 392.717C105.337 392.717 104.801 392.883 104.36 393.215C103.919 393.547 103.584 394.013 103.355 394.612C103.132 395.211 103.02 395.916 103.02 396.727ZM117.434 386.273V403H114.477V386.273H117.434ZM126.028 403.245C124.77 403.245 123.684 402.984 122.769 402.461C121.86 401.933 121.16 401.187 120.67 400.223C120.18 399.254 119.935 398.113 119.935 396.801C119.935 395.51 120.18 394.378 120.67 393.403C121.166 392.423 121.857 391.661 122.745 391.116C123.632 390.566 124.675 390.291 125.873 390.291C126.646 390.291 127.376 390.416 128.062 390.667C128.753 390.912 129.363 391.293 129.892 391.81C130.425 392.328 130.844 392.987 131.149 393.787C131.454 394.582 131.607 395.529 131.607 396.629V397.536H121.324V395.543H128.773C128.767 394.977 128.645 394.473 128.405 394.032C128.165 393.585 127.831 393.234 127.4 392.978C126.976 392.722 126.48 392.594 125.914 392.594C125.309 392.594 124.779 392.741 124.321 393.036C123.864 393.324 123.507 393.705 123.251 394.179C123.001 394.647 122.873 395.162 122.867 395.723V397.462C122.867 398.192 123.001 398.818 123.268 399.341C123.534 399.858 123.907 400.256 124.387 400.533C124.866 400.806 125.427 400.942 126.069 400.942C126.499 400.942 126.889 400.882 127.237 400.762C127.586 400.637 127.888 400.454 128.144 400.215C128.4 399.975 128.593 399.679 128.724 399.325L131.484 399.635C131.31 400.365 130.978 401.002 130.488 401.546C130.003 402.085 129.382 402.504 128.626 402.804C127.869 403.098 127.003 403.245 126.028 403.245ZM134.108 403V390.455H136.934V392.586H137.081C137.342 391.868 137.775 391.307 138.38 390.904C138.984 390.495 139.706 390.291 140.544 390.291C141.394 390.291 142.11 390.498 142.692 390.912C143.28 391.32 143.694 391.878 143.934 392.586H144.064C144.342 391.889 144.81 391.334 145.469 390.92C146.133 390.501 146.92 390.291 147.83 390.291C148.984 390.291 149.926 390.656 150.656 391.386C151.385 392.115 151.75 393.18 151.75 394.579V403H148.785V395.037C148.785 394.258 148.578 393.689 148.165 393.33C147.751 392.965 147.244 392.782 146.645 392.782C145.932 392.782 145.374 393.006 144.971 393.452C144.573 393.893 144.375 394.468 144.375 395.175V403H141.475V394.914C141.475 394.266 141.279 393.749 140.887 393.362C140.501 392.976 139.994 392.782 139.368 392.782C138.943 392.782 138.557 392.891 138.208 393.109C137.86 393.321 137.582 393.624 137.375 394.016C137.168 394.402 137.065 394.854 137.065 395.371V403H134.108ZM166.809 390.455V392.741H159.393V390.455H166.809ZM161.247 403V389.27C161.247 388.426 161.421 387.724 161.77 387.163C162.124 386.602 162.597 386.183 163.191 385.905C163.784 385.627 164.443 385.489 165.167 385.489C165.679 385.489 166.134 385.529 166.531 385.611C166.929 385.693 167.223 385.766 167.414 385.832L166.825 388.119C166.7 388.08 166.542 388.042 166.352 388.004C166.161 387.961 165.949 387.939 165.715 387.939C165.165 387.939 164.775 388.072 164.547 388.339C164.323 388.6 164.212 388.976 164.212 389.466V403H161.247ZM172.308 403.253C171.513 403.253 170.797 403.112 170.16 402.828C169.528 402.54 169.027 402.115 168.657 401.554C168.292 400.993 168.11 400.302 168.11 399.48C168.11 398.772 168.241 398.187 168.502 397.724C168.763 397.261 169.12 396.891 169.572 396.613C170.024 396.335 170.533 396.126 171.099 395.984C171.671 395.837 172.262 395.731 172.872 395.665C173.607 395.589 174.203 395.521 174.66 395.461C175.118 395.396 175.45 395.298 175.657 395.167C175.869 395.031 175.975 394.821 175.975 394.538V394.489C175.975 393.874 175.793 393.398 175.428 393.06C175.063 392.722 174.538 392.554 173.852 392.554C173.127 392.554 172.553 392.712 172.128 393.027C171.709 393.343 171.426 393.716 171.279 394.146L168.518 393.754C168.736 392.992 169.095 392.355 169.596 391.843C170.097 391.326 170.71 390.939 171.434 390.683C172.158 390.422 172.959 390.291 173.835 390.291C174.44 390.291 175.041 390.362 175.64 390.504C176.239 390.645 176.787 390.879 177.282 391.206C177.778 391.527 178.175 391.966 178.475 392.521C178.779 393.076 178.932 393.771 178.932 394.604V403H176.09V401.277H175.992C175.812 401.625 175.559 401.952 175.232 402.257C174.911 402.556 174.505 402.799 174.015 402.984C173.53 403.163 172.961 403.253 172.308 403.253ZM173.076 401.081C173.669 401.081 174.184 400.964 174.619 400.729C175.055 400.49 175.39 400.174 175.624 399.782C175.864 399.39 175.983 398.962 175.983 398.5V397.021C175.891 397.098 175.733 397.168 175.51 397.234C175.292 397.299 175.047 397.356 174.775 397.405C174.502 397.454 174.233 397.498 173.966 397.536C173.699 397.574 173.468 397.607 173.272 397.634C172.831 397.694 172.436 397.792 172.087 397.928C171.739 398.064 171.464 398.255 171.263 398.5C171.061 398.739 170.96 399.05 170.96 399.431C170.96 399.975 171.159 400.386 171.557 400.664C171.954 400.942 172.46 401.081 173.076 401.081ZM187.377 403.245C186.125 403.245 185.049 402.97 184.151 402.42C183.258 401.87 182.569 401.111 182.085 400.141C181.605 399.167 181.366 398.045 181.366 396.776C181.366 395.502 181.611 394.378 182.101 393.403C182.591 392.423 183.283 391.661 184.176 391.116C185.074 390.566 186.136 390.291 187.361 390.291C188.379 390.291 189.28 390.479 190.064 390.855C190.854 391.225 191.483 391.75 191.951 392.431C192.419 393.106 192.686 393.896 192.752 394.8H189.926C189.811 394.195 189.539 393.692 189.109 393.289C188.684 392.88 188.115 392.676 187.402 392.676C186.797 392.676 186.266 392.839 185.809 393.166C185.352 393.487 184.995 393.95 184.739 394.555C184.489 395.159 184.363 395.883 184.363 396.727C184.363 397.582 184.489 398.317 184.739 398.933C184.99 399.542 185.341 400.013 185.793 400.346C186.25 400.672 186.786 400.836 187.402 400.836C187.837 400.836 188.227 400.754 188.57 400.591C188.918 400.422 189.209 400.179 189.444 399.864C189.678 399.548 189.838 399.164 189.926 398.712H192.752C192.681 399.6 192.419 400.386 191.967 401.072C191.515 401.753 190.9 402.287 190.122 402.673C189.343 403.054 188.428 403.245 187.377 403.245ZM200.733 403.245C199.475 403.245 198.389 402.984 197.474 402.461C196.565 401.933 195.865 401.187 195.375 400.223C194.885 399.254 194.64 398.113 194.64 396.801C194.64 395.51 194.885 394.378 195.375 393.403C195.871 392.423 196.562 391.661 197.45 391.116C198.337 390.566 199.38 390.291 200.578 390.291C201.351 390.291 202.081 390.416 202.767 390.667C203.459 390.912 204.068 391.293 204.597 391.81C205.13 392.328 205.549 392.987 205.854 393.787C206.159 394.582 206.312 395.529 206.312 396.629V397.536H196.029V395.543H203.478C203.472 394.977 203.35 394.473 203.11 394.032C202.871 393.585 202.536 393.234 202.105 392.978C201.681 392.722 201.185 392.594 200.619 392.594C200.015 392.594 199.484 392.741 199.026 393.036C198.569 393.324 198.212 393.705 197.956 394.179C197.706 394.647 197.578 395.162 197.572 395.723V397.462C197.572 398.192 197.706 398.818 197.973 399.341C198.239 399.858 198.612 400.256 199.092 400.533C199.571 400.806 200.132 400.942 200.774 400.942C201.204 400.942 201.594 400.882 201.942 400.762C202.291 400.637 202.593 400.454 202.849 400.215C203.105 399.975 203.298 399.679 203.429 399.325L206.189 399.635C206.015 400.365 205.683 401.002 205.193 401.546C204.708 402.085 204.087 402.504 203.331 402.804C202.574 403.098 201.708 403.245 200.733 403.245ZM213.469 403.221C212.483 403.221 211.601 402.967 210.822 402.461C210.044 401.955 209.428 401.219 208.976 400.256C208.525 399.292 208.299 398.121 208.299 396.744C208.299 395.35 208.527 394.174 208.985 393.215C209.447 392.251 210.071 391.525 210.855 391.034C211.639 390.539 212.513 390.291 213.477 390.291C214.212 390.291 214.816 390.416 215.29 390.667C215.764 390.912 216.139 391.209 216.417 391.557C216.695 391.9 216.91 392.224 217.062 392.529H217.185V386.273H220.15V403H217.242V401.023H217.062C216.91 401.328 216.689 401.652 216.401 401.995C216.112 402.333 215.731 402.622 215.257 402.861C214.784 403.101 214.187 403.221 213.469 403.221ZM214.294 400.795C214.92 400.795 215.453 400.626 215.894 400.288C216.335 399.945 216.67 399.469 216.899 398.859C217.128 398.249 217.242 397.539 217.242 396.727C217.242 395.916 217.128 395.211 216.899 394.612C216.676 394.013 216.344 393.547 215.903 393.215C215.467 392.883 214.931 392.717 214.294 392.717C213.635 392.717 213.085 392.888 212.644 393.232C212.203 393.575 211.871 394.048 211.647 394.653C211.424 395.257 211.312 395.949 211.312 396.727C211.312 397.511 211.424 398.211 211.647 398.826C211.876 399.436 212.211 399.918 212.652 400.272C213.098 400.621 213.646 400.795 214.294 400.795ZM229.136 403V386.273H232.093V392.529H232.215C232.368 392.224 232.583 391.9 232.861 391.557C233.138 391.209 233.514 390.912 233.988 390.667C234.461 390.416 235.066 390.291 235.801 390.291C236.77 390.291 237.644 390.539 238.423 391.034C239.207 391.525 239.828 392.251 240.285 393.215C240.748 394.174 240.979 395.35 240.979 396.744C240.979 398.121 240.753 399.292 240.301 400.256C239.849 401.219 239.234 401.955 238.455 402.461C237.677 402.967 236.795 403.221 235.809 403.221C235.09 403.221 234.494 403.101 234.02 402.861C233.547 402.622 233.166 402.333 232.877 401.995C232.594 401.652 232.373 401.328 232.215 401.023H232.044V403H229.136ZM232.036 396.727C232.036 397.539 232.15 398.249 232.379 398.859C232.613 399.469 232.948 399.945 233.383 400.288C233.824 400.626 234.358 400.795 234.984 400.795C235.638 400.795 236.185 400.621 236.626 400.272C237.067 399.918 237.399 399.436 237.622 398.826C237.851 398.211 237.965 397.511 237.965 396.727C237.965 395.949 237.854 395.257 237.631 394.653C237.407 394.048 237.075 393.575 236.634 393.232C236.193 392.888 235.643 392.717 234.984 392.717C234.353 392.717 233.816 392.883 233.375 393.215C232.934 393.547 232.599 394.013 232.371 394.612C232.147 395.211 232.036 395.916 232.036 396.727ZM244.904 407.705C244.501 407.705 244.128 407.672 243.785 407.607C243.447 407.547 243.178 407.476 242.976 407.394L243.662 405.091C244.092 405.216 244.476 405.276 244.814 405.271C245.152 405.265 245.448 405.159 245.704 404.952C245.966 404.751 246.186 404.413 246.366 403.939L246.619 403.261L242.07 390.455H245.206L248.097 399.929H248.228L251.127 390.455H254.272L249.249 404.519C249.015 405.183 248.704 405.752 248.318 406.226C247.931 406.705 247.458 407.07 246.897 407.321C246.341 407.577 245.677 407.705 244.904 407.705ZM267.479 407.966C266.417 407.966 265.505 407.822 264.743 407.533C263.981 407.25 263.368 406.869 262.905 406.39C262.442 405.91 262.121 405.379 261.941 404.797L264.604 404.152C264.724 404.397 264.898 404.639 265.127 404.879C265.355 405.124 265.663 405.325 266.05 405.483C266.442 405.646 266.935 405.728 267.528 405.728C268.367 405.728 269.061 405.524 269.611 405.115C270.161 404.712 270.436 404.048 270.436 403.123V400.746H270.289C270.136 401.051 269.913 401.364 269.619 401.685C269.33 402.006 268.946 402.276 268.467 402.494C267.994 402.711 267.397 402.82 266.679 402.82C265.715 402.82 264.841 402.594 264.057 402.142C263.278 401.685 262.657 401.004 262.195 400.1C261.737 399.191 261.509 398.053 261.509 396.686C261.509 395.309 261.737 394.146 262.195 393.199C262.657 392.246 263.281 391.525 264.065 391.034C264.849 390.539 265.723 390.291 266.687 390.291C267.422 390.291 268.026 390.416 268.5 390.667C268.979 390.912 269.36 391.209 269.643 391.557C269.927 391.9 270.142 392.224 270.289 392.529H270.452V390.455H273.368V403.204C273.368 404.277 273.112 405.164 272.6 405.867C272.088 406.569 271.389 407.095 270.501 407.443C269.614 407.792 268.606 407.966 267.479 407.966ZM267.504 400.501C268.13 400.501 268.663 400.348 269.104 400.043C269.545 399.738 269.88 399.3 270.109 398.728C270.338 398.157 270.452 397.471 270.452 396.67C270.452 395.881 270.338 395.189 270.109 394.596C269.886 394.002 269.554 393.542 269.113 393.215C268.677 392.883 268.141 392.717 267.504 392.717C266.845 392.717 266.295 392.888 265.854 393.232C265.413 393.575 265.08 394.046 264.857 394.645C264.634 395.238 264.522 395.913 264.522 396.67C264.522 397.438 264.634 398.11 264.857 398.688C265.086 399.259 265.421 399.706 265.862 400.027C266.308 400.343 266.856 400.501 267.504 400.501ZM276.398 403V390.455H279.355V403H276.398ZM277.885 388.674C277.416 388.674 277.013 388.519 276.676 388.208C276.338 387.893 276.169 387.514 276.169 387.073C276.169 386.627 276.338 386.248 276.676 385.938C277.013 385.622 277.416 385.464 277.885 385.464C278.358 385.464 278.761 385.622 279.093 385.938C279.431 386.248 279.6 386.627 279.6 387.073C279.6 387.514 279.431 387.893 279.093 388.208C278.761 388.519 278.358 388.674 277.885 388.674ZM282.395 403V390.455H285.262V392.545H285.393C285.621 391.821 286.013 391.263 286.569 390.871C287.13 390.474 287.769 390.275 288.488 390.275C288.652 390.275 288.834 390.283 289.035 390.299C289.242 390.31 289.414 390.329 289.55 390.357V393.076C289.425 393.033 289.226 392.995 288.954 392.962C288.687 392.924 288.428 392.905 288.178 392.905C287.639 392.905 287.154 393.022 286.724 393.256C286.299 393.485 285.964 393.803 285.719 394.212C285.474 394.62 285.352 395.091 285.352 395.625V403H282.395ZM294.471 386.273V403H291.514V386.273H294.471ZM307.427 393.771L304.732 394.065C304.655 393.792 304.522 393.536 304.331 393.297C304.146 393.057 303.896 392.864 303.58 392.717C303.264 392.57 302.877 392.496 302.42 392.496C301.805 392.496 301.288 392.63 300.868 392.897C300.454 393.163 300.25 393.509 300.256 393.934C300.25 394.299 300.384 394.596 300.656 394.824C300.934 395.053 301.391 395.241 302.028 395.388L304.168 395.845C305.355 396.101 306.237 396.507 306.814 397.062C307.397 397.618 307.691 398.344 307.696 399.243C307.691 400.032 307.46 400.729 307.002 401.334C306.55 401.933 305.921 402.401 305.115 402.739C304.31 403.076 303.384 403.245 302.338 403.245C300.803 403.245 299.567 402.924 298.63 402.281C297.694 401.633 297.136 400.732 296.956 399.578L299.839 399.3C299.97 399.866 300.248 400.294 300.672 400.582C301.097 400.871 301.65 401.015 302.33 401.015C303.033 401.015 303.596 400.871 304.021 400.582C304.451 400.294 304.666 399.937 304.666 399.512C304.666 399.153 304.527 398.856 304.25 398.622C303.977 398.388 303.553 398.208 302.975 398.083L300.836 397.634C299.632 397.383 298.742 396.961 298.165 396.368C297.588 395.769 297.302 395.012 297.307 394.097C297.302 393.324 297.511 392.654 297.936 392.088C298.366 391.516 298.962 391.075 299.725 390.765C300.493 390.449 301.377 390.291 302.379 390.291C303.849 390.291 305.007 390.604 305.85 391.23C306.7 391.857 307.225 392.703 307.427 393.771Z" fill="white"/>
<path d="M260.504 407.574H308.619V409.142H260.504V407.574Z" fill="white"/>
</g>
<defs>
<linearGradient id="paint0_linear_39_28" x1="-93.5" y1="-147.5" x2="426.5" y2="618.5" gradientUnits="userSpaceOnUse">
<stop stop-color="white"/>
<stop offset="1" stop-opacity="0"/>
</linearGradient>
<clipPath id="clip0_39_28">
<rect width="400" height="576" fill="white"/>
</clipPath>
</defs>
</svg>
